<?xml version="1.0" encoding="utf-8"?>
<!-- Generator: Adobe Illustrator 20.0.0, SVG Export Plug-In . SVG Version: 6.00 Build 0)  -->
<svg version="1.1" id="Calque_1" xmlns="http://www.w3.org/2000/svg" xmlns:xlink="http://www.w3.org/1999/xlink" x="0px" y="0px"
	 viewBox="0 0 40 40" style="enable-background:new 0 0 40 40;" xml:space="preserve">
<style type="text/css">
	.st0{fill:#8E5120;}
	.st1{fill:#21254C;}
	.st2{fill:#020203;}
	.st3{fill:#FEDD0A;}
</style>
<path class="st0" d="M6.2,12c-0.4,0-0.9,0-1.3,0c0,0-0.1-0.1-0.1-0.1c0-0.2,0-0.3,0-0.5c0-0.2,0-0.3,0-0.5c0-0.2,0-0.4,0-0.5
	c0-0.2,0-0.3,0-0.5s0-0.3,0-0.5c0-0.2,0-0.3,0-0.5c0-0.2,0-0.4,0-0.5c0-0.2,0-0.3,0-0.5c0.1-0.2,0-0.3,0-0.4c0-0.2,0-0.3,0-0.5
	c0-0.2,0-0.4,0-0.5c0-0.2,0-0.3,0-0.5s0-0.3,0-0.5c0,0,0.1-0.1,0.1-0.1c0.4,0,0.8,0,1.2,0c0-1.3,0-2.6,0-3.8c0,0,0.1-0.1,0.1-0.1
	c0.8,0,1.7,0,2.5,0c0-0.4,0-0.7,0-1.1c0-0.1,0-0.2,0.1-0.3c0.6,0,1.2,0,1.8,0c1,0,2.1,0,3.1,0c0.1,0,0.2-0.1,0.2,0.1
	c0,0.4,0,0.9,0,1.3c-0.9,0-1.7,0-2.5,0c0,0-0.1,0.1-0.1,0.1c0,0.8,0,1.6,0,2.4c0,0,0.1,0.1,0.1,0.1c0.9,0,1.8,0,2.7,0
	c0,0,0.1-0.1,0.1-0.1c0-0.4,0-0.8,0-1.2c0.8,0,1.6,0,2.4,0c0,0.2,0,0.3,0,0.5c0,0,0.1,0.1,0.1,0.1c0.4,0,0.8,0,1.3,0
	c0,0,0.1-0.1,0.1-0.1c0-0.4,0-0.8,0-1.3c0,0-0.1-0.1-0.1-0.1c-0.4,0-0.8,0-1.2,0c0.1-0.6-0.1-1.1-0.1-1.7c0.1-0.1,0.3-0.1,0.5-0.1
	c2.1,0,4.1,0,6.2,0c0,0.6,0,1.1,0,1.7c-0.4,0-0.8,0-1.2,0c0,0-0.1,0.1-0.1,0.1c0,0.4,0,0.8,0,1.3c0,0,0.1,0.1,0.1,0.1
	c0.4,0,0.8,0,1.2,0c0,0,0.1-0.1,0.1-0.1c0-0.1,0-0.2,0-0.4c0.8,0,1.6,0,2.4,0c0,0.4,0,0.8,0,1.2C25.9,4,26,4,26,4.1
	c0.2,0,0.3,0,0.5,0c0.7,0.1,1.4-0.1,2-0.1c0,0,0.1-0.1,0.1-0.1c0.1-0.8,0-1.5-0.1-2.2c0,0-0.1-0.1-0.1-0.1c-0.8,0-1.6,0-2.4,0
	c0,0,0,0,0,0c0,0,0,0,0,0c0-0.5,0-0.9,0-1.4c1.1,0,2.3,0,3.4,0c0.7,0,1.4,0.2,2.1,0.1c0.1,0.1,0.1,0.1,0.2,0.2c0,0.3,0,0.7,0,1.1
	c0.3,0,0.6,0,0.9,0c0.1,0.1,0.1,0.1,0.2,0.2c0,1.3,0,2.5,0,3.8c0.4,0,0.8,0,1.2,0c0,0,0.1,0.1,0.1,0.1c0,0,0,0.1,0,0.2
	c0,2,0,3.9,0,5.9c0,0.2,0,0.3-0.1,0.5c-0.4,0-0.8,0-1.1,0c-0.1,0.1-0.1,0.1-0.1,0.1c0,0.4,0,0.8,0,1.2c0,2.2,0,4.4,0,6.6
	c0,0-0.1,0.1-0.1,0.1c-0.4,0-0.8,0-1.2,0c0,0.4,0,0.7,0,1.1c0,0-0.1,0.1-0.1,0.1c-0.4,0-0.8,0-1.2,0c-0.4,0-0.8,0-1.2,0
	c-0.1,0.1-0.1,0.1-0.1,0.1c0,0.4,0,0.7,0,1.1c0.1,0.1,0.1,0.1,0.1,0.2c0.4,0,0.8,0,1.2,0c1.3,0,2.6,0,3.9,0c0,0,0.1,0.1,0.1,0.1
	c0,1.6,0,3.2,0,4.8c0,0,0,0,0,0c0,0.1,0.1,0.2,0.1,0.3c0.3,0,0.7,0,1.1,0c0,0.1,0.1,0.2,0.1,0.3c0,0.4,0,0.7,0,1.1
	c0,1.3,0,2.6,0,3.9c0,0-0.1,0.1-0.1,0.1c-1.2,0-2.4,0-3.6,0c0-0.5,0-0.9,0-1.4c0.8,0,1.5,0,2.3,0c0-0.2,0-0.5,0-0.7
	c0-0.2,0-0.4,0-0.6c-0.8,0-1.6,0-2.4,0c-3.2,0-6.4,0-9.5,0c0-0.1,0.1-0.2,0.1-0.3c0-0.3,0-0.6,0-0.8c0,0-0.1-0.1-0.1-0.1
	c-0.8,0-1.7,0-2.5,0c0,0.1-0.1,0.2-0.1,0.3c0,0.3,0,0.6,0,1c-3.1,0-6.1,0-9.2,0c-0.8,0-1.7,0-2.6,0c0,0.2,0,0.4,0,0.6
	c0,0.2,0,0.4,0,0.6c0.8,0,1.6,0,2.5,0c0,0.1,0.1,0.2,0.1,0.3c0,0.3,0,0.7,0,1c-0.1,0.1-0.2,0.1-0.4,0.1c-1.2,0-2.3,0-3.5,0
	c0,0-0.1-0.1-0.1-0.1c0-1.7,0-3.4,0-5.1c0.4-0.2,0.9-0.1,1.3-0.1c0-1.7,0-3.4,0-5.1c0,0,0.1-0.1,0.1-0.1c1.3,0,2.6,0,3.8,0
	c0.4,0,0.8,0.1,1.2-0.1c0-0.4,0-0.7,0-1c0,0-0.1-0.1-0.1-0.1c-0.3,0-0.6,0-0.8,0c-0.1,0-0.2,0.1-0.3,0.1c-0.1-0.1-0.2-0.1-0.4-0.1
	c-0.7,0-1.4,0-2.2,0c0,0-0.1-0.1-0.1-0.1c0-0.4,0-0.8,0-1.2c-0.4,0-0.9,0-1.3,0c0-0.1-0.1-0.2-0.1-0.2c0-0.1,0-0.2,0-0.3
	c0-2.1,0-4.1,0-6.2c0-0.4,0-0.8,0-1.2C7,11.9,6.6,12.1,6.2,12z M18.1,27.9c0,0.4,0,0.8,0,1.2c0,0,0.1,0.1,0.1,0.1
	c0.4-0.1,0.8,0.1,1.2-0.1c0-0.4,0-0.8,0-1.1c0,0-0.1-0.1-0.1-0.1C18.8,27.9,18.4,27.9,18.1,27.9c0-0.4,0-0.8,0-1.2
	c0,0-0.1-0.1-0.1-0.1c-0.4,0-0.7,0-1.1,0c0,0-0.1,0.1-0.1,0.1c0,0.2,0,0.4,0,0.6c0,0.2,0,0.4,0,0.6C17.2,27.9,17.6,27.9,18.1,27.9z
	 M27.2,23.9c0.5,0,0.9,0,1.4,0c0-0.4,0-0.8,0-1.2c-0.1-0.1-0.1-0.1-0.1-0.1c-0.3,0-0.7,0-1,0c-0.1,0.1-0.2,0.1-0.3,0.2
	c0,0.4,0,0.8-0.1,1.1c-0.2,0-0.4,0-0.7,0c-0.1,0-0.2,0.1-0.3,0.1c0,0.4,0,0.7,0,1c0.1,0.1,0.2,0.2,0.2,0.2c0.3,0,0.7,0,1,0
	c0,0,0.1-0.1,0.1-0.1c0-0.3,0-0.7,0-1.1C27.3,24,27.3,24,27.2,23.9z M16.7,14.6c-0.4,0-0.9,0-1.3,0c0,0-0.1,0.1-0.1,0.1
	c0,0.4,0,0.8,0,1.3c-0.4,0-0.7,0-1.1,0c-0.1,0.1-0.1,0.1-0.1,0.1c0,1.6,0,3.2,0,4.8c0,0,0.1,0.1,0.1,0.1c0.4,0,0.8,0,1.1,0
	c0.1,0.1,0.1,0.2,0.2,0.3c0.4,0,0.8,0,1.2,0c0,0.4,0,0.8,0,1.2c0,0,0.1,0.1,0.1,0.1c2.1,0,4.2,0,6.3,0c0,0,0.1-0.1,0.1-0.1
	c0-0.4,0-0.8,0-1.2c0.4,0,0.9,0,1.3,0c0.1-0.1,0.1-0.1,0.2-0.2c0.4,0,0.8,0,1.1,0c0,0,0.1-0.1,0.1-0.1c0-1.7,0-3.4,0-5.1
	c0,0-0.1-0.1-0.1-0.1c-0.4,0-0.8,0-1.2,0c0-0.3,0-0.6,0-0.9c0,0-0.1-0.1-0.1-0.1c-0.4,0-0.7,0-1.1,0c0,0-0.1,0.1-0.1,0.1
	c0,0.3,0,0.7,0,1c0,0,0.1,0.1,0.1,0.2c0.3,0,0.7,0,1,0c0,1.4,0,2.7,0,4.1c-3,0-5.9,0-8.9,0c0-0.2,0-0.3,0-0.4c0-1,0-2.1,0-3.1
	c0-0.1,0-0.3,0-0.4c0.3,0,0.7,0,1.1,0c0.1-0.1,0.1-0.1,0.1-0.1C16.7,15.5,16.7,15,16.7,14.6c0.1,0,0.2,0.1,0.4,0.1
	c0.7,0,1.4,0,2.2,0c0,0,0.1-0.1,0.1-0.1c0-0.4,0-0.7,0-1.1c0,0-0.1-0.1-0.1-0.1c-0.8,0-1.6,0-2.4,0c0,0-0.1,0.1-0.1,0.1
	C16.7,13.8,16.7,14.2,16.7,14.6z M24,6.2c0,0.1,0,0.3,0,0.5c-0.2,0-0.3,0-0.5,0c0,0-0.1,0.1-0.1,0.1c0,0.4,0,0.8,0,1.2
	c0,0,0.1,0.1,0.1,0.1c0.8,0,1.6,0,2.3,0c0,0,0.1-0.1,0.1-0.1c0-0.4,0-0.8,0-1.1c-0.1-0.3-0.3-0.1-0.4-0.2c0-0.2,0-0.3,0-0.5
	c0,0-0.1-0.1-0.1-0.1c-0.4,0-0.8,0-1.3,0C24.1,6,24.1,6.1,24,6.2z M16.1,6.1c-0.4,0-0.9,0-1.3,0c0,0-0.1,0.1-0.1,0.1
	c0,0.1,0,0.3,0,0.5c-0.2,0-0.3,0-0.5,0c-0.1,0.1-0.1,0.1-0.1,0.1c0,0.3,0,0.6,0,0.9c0,0.1,0.1,0.2,0.1,0.3c0.8,0,1.6,0,2.4,0
	c0,0,0.1-0.1,0.1-0.1c0-0.4,0-0.7,0-1.1c0,0-0.1-0.1-0.1-0.1c-0.1,0-0.2,0-0.4,0c0-0.2,0-0.3,0-0.5C16.1,6.2,16.1,6.2,16.1,6.1z
	 M20.8,13.5c0,0.4,0,0.7,0,1c0,0,0.1,0.1,0.1,0.1c0.8,0,1.6,0,2.3,0c0,0,0.1-0.1,0.1-0.1c0-0.3,0-0.6,0-0.9
	c-0.1-0.1-0.2-0.2-0.2-0.2c-0.8,0-1.5,0-2.2,0C20.9,13.4,20.8,13.4,20.8,13.5z M18.1,17c1.3,0,2.6,0,4,0c0-0.2,0-0.4,0-0.6
	c-1.3,0-2.6,0-3.9,0C18.1,16.6,18.1,16.8,18.1,17z M24.7,26.4c0.1,0.1,0.3,0.2,0.4,0.2c0.3,0,0.7,0,1,0c0.1-0.1,0.1-0.1,0.1-0.1
	c0-0.3,0-0.7,0-1c-0.4-0.3-0.9-0.2-1.3-0.2c-0.1,0.1-0.1,0.1-0.2,0.1C24.7,25.7,24.7,26,24.7,26.4z M23.3,27.8
	c0.4,0.2,0.9,0,1.3,0.1c0.1-0.1,0.1-0.1,0.1-0.1c0-0.3,0-0.7,0-1c-0.1-0.1-0.2-0.1-0.3-0.2c-0.3,0-0.7,0-1,0c0,0-0.1,0.1-0.1,0.1
	C23.3,27.1,23.3,27.4,23.3,27.8z M15.5,26.6c0.4,0,0.7,0,1.1,0c0,0,0.1-0.1,0.1-0.1c0-0.4,0-0.7,0-1.1c0,0-0.1-0.1-0.1-0.1
	c-0.4,0-0.7,0-1.1,0c-0.2,0.4,0,0.8-0.1,1.2C15.4,26.5,15.5,26.5,15.5,26.6z M15.3,24c-0.4,0-0.7,0-1.1,0c0,0-0.1,0.1-0.1,0.1
	c0,0.3,0,0.6,0,0.9c0,0.1,0.1,0.2,0.1,0.3c0.4,0,0.8,0,1.1,0c0,0,0.1-0.1,0.1-0.1C15.4,24.8,15.3,24.4,15.3,24
	C15.3,24,15.3,24,15.3,24z M13.9,22.7c-0.4,0-0.8,0-1.2,0c0,0-0.1,0.1-0.1,0.1c0.1,0.4-0.1,0.7,0.1,1.1c0.4,0,0.8,0,1.2,0
	c0.2-0.4,0-0.7,0.1-1.1C14,22.8,14,22.8,13.9,22.7z M23.2,28c-0.4,0-0.7,0-1.1,0c0,0-0.1,0.1-0.1,0.1c0.1,0.4-0.1,0.7,0.1,1.1
	c0.4,0,0.8,0,1.1,0c0.2-0.4,0-0.7,0.1-1.1C23.3,28.1,23.3,28.1,23.2,28z M10.3,5.5c0.3,0,0.6,0,0.8,0c0.1,0,0.2-0.1,0.3-0.1
	c-0.1-0.4,0.1-0.8-0.1-1.1c-0.4,0-0.7,0-1.1,0c-0.2,0.4,0,0.7-0.1,1.1C10.2,5.4,10.2,5.4,10.3,5.5z M30,5.3c0-0.4,0-0.7,0-1
	c0,0-0.1-0.1-0.1-0.1c-0.4,0.1-0.7-0.1-1.1,0.1c0,0.4,0,0.7,0,1.1c0.4,0.2,0.7,0,1.1,0.1C29.9,5.4,30,5.3,30,5.3z"/>
<path class="st1" d="M21.9,30.6c3.2,0,6.4,0,9.5,0c0,0.1,0.1,0.2,0.1,0.3c0,0.3,0,0.7,0,1c0,0.5,0,0.9,0,1.4c0,1.3,0,2.5,0,3.8
	c-1.7,0-3.5,0-5.2,0c-0.2,0-0.3,0-0.5,0.1c0-0.8,0-1.6,0-2.5c-3.5,0-7.1,0-10.6,0c0,0.1,0.1,0.2,0.1,0.3c0,0.4,0.1,0.7-0.1,1.1
	c0.2,0.3,0,0.7,0.1,1.1c0,0.1,0,0.2-0.1,0.3c-0.1-0.1-0.2-0.1-0.4-0.1c-0.6,0-1.3,0-1.9,0c0,0-0.1,0,0,0c-0.1-0.1-0.1-0.2-0.2-0.2
	c-0.9,0-1.8,0-2.7,0c0-0.7,0-1.3,0-2c0-0.3-0.1-0.7-0.1-1c0-0.2,0-0.4,0-0.5c0-0.2,0.1-0.3,0.1-0.5c0-0.3,0-0.7,0-1
	c0-0.1,0-0.2-0.1-0.3c0-0.3,0-0.6,0-1c0-0.1,0.1-0.2,0.1-0.3c3.1,0,6.1,0,9.2,0C20.2,30.6,21,30.6,21.9,30.6z"/>
<path class="st2" d="M25.9,37.2c0.1-0.1,0.3-0.1,0.5-0.1c1.7,0,3.5,0,5.2,0c0.8,0,1.6,0,2.4,0c0,0,0.1,0.1,0.1,0.1
	c0,0.9,0,1.7,0,2.6c-0.1,0.1-0.2,0.1-0.3,0.2c-1.3,0-2.5,0-3.8,0c0-0.1-0.1-0.2-0.1-0.3c0-0.4,0-0.8,0-1.3c-0.4,0-0.8-0.1-1.1,0.1
	c0,0.5,0,0.9,0,1.4c-0.1,0-0.3,0.1-0.4,0.1c-0.8,0-1.5,0-2.3,0c0,0-0.1-0.1-0.1-0.1C25.9,39,25.9,38.1,25.9,37.2z"/>
<path class="st2" d="M10.1,37.1c0.9,0,1.8,0,2.7,0c0,0.1,0.1,0.1,0.2,0.2c0,0,0,0,0,0c0.6,0,1.3,0,1.9,0c0.1,0,0.3,0,0.4,0.1
	c0.1,0.1,0.1,0.2,0.1,0.4c0,0.7,0,1.3,0,2c0,0-0.1,0.1-0.1,0.1c-0.9,0-1.7,0-2.6,0c0-0.5,0-1,0-1.5c-0.4,0-0.8,0-1.2,0
	c0,0.4,0,0.8,0,1.3c-0.1,0.1-0.1,0.1-0.1,0.1c-1.1,0-2.3,0-3.4,0c-0.2,0-0.4,0-0.5-0.1c0-0.8,0-1.7,0-2.5c0,0,0.1-0.1,0.1-0.1
	C8.3,37.1,9.2,37.1,10.1,37.1z"/>
<path class="st2" d="M16.7,0.2c-0.1,0.5,0.2,1.1,0.1,1.7c0.4,0,0.8,0,1.2,0C18,1.9,18.1,1.9,18.1,2c0,0.4,0,0.8,0,1.3
	c0,0-0.1,0.1-0.1,0.1c-0.4,0-0.8,0-1.3,0c0,0-0.1-0.1-0.1-0.1c0-0.1,0-0.3,0-0.5c-0.8,0-1.6,0-2.4,0c0,0.4,0,0.8,0,1.2
	c-0.1,0.1-0.1,0.1-0.1,0.1c-0.9,0-1.8,0-2.7,0c0,0-0.1-0.1-0.1-0.1c0-0.8,0-1.6,0-2.4c0,0,0.1-0.1,0.1-0.1c0.8,0,1.7,0,2.5,0
	c0-0.5,0-0.9,0-1.3c0.1,0,0.2-0.1,0.3-0.1c0.7,0,1.5,0,2.2,0C16.5,0.1,16.6,0.2,16.7,0.2z"/>
<path class="st2" d="M25.9,0.1c0,0.5,0,0.9,0,1.4c0,0,0,0,0,0c0,0,0,0,0,0c0.8,0,1.6,0,2.4,0c0,0,0.1,0.1,0.1,0.1
	c0.1,0.8,0.2,1.5,0.1,2.2c0,0-0.1,0.1-0.1,0.1c-0.7,0-1.3,0.2-2,0.1c-0.2,0-0.3,0-0.5,0C26,4,26,4,25.9,3.9c0-0.4,0-0.8,0-1.2
	c-0.8,0-1.6,0-2.4,0c0,0.1,0,0.3,0,0.4c-0.1,0.1-0.1,0.1-0.1,0.1c-0.4,0-0.8,0-1.2,0c0,0-0.1-0.1-0.1-0.1c0-0.4,0-0.8,0-1.3
	c0,0,0.1-0.1,0.1-0.1c0.4,0,0.8,0,1.2,0c0-0.6,0-1.1,0-1.7c0.1,0,0.2-0.1,0.3-0.1c0.7,0,1.3,0,2,0C25.7,0,25.8,0.1,25.9,0.1z"/>
<path class="st3" d="M30,22.6c-0.4,0-0.8,0-1.2,0c0,0-0.1-0.1-0.1-0.2c0-0.3,0-0.7,0-1.1c0,0,0.1-0.1,0.1-0.1c0.4,0,0.8,0,1.2,0
	c0,0.1,0.1,0.2,0.1,0.3c0,0.3,0,0.5,0,0.8C30,22.4,30,22.5,30,22.6z"/>
<path class="st3" d="M32.6,13.3c0-0.4,0-0.8,0-1.2c0,0,0.1-0.1,0.1-0.1c0.4,0,0.7,0,1.1,0c0,0.4,0,0.9,0,1.3
	c-0.1,0.1-0.1,0.1-0.1,0.1c-0.3,0-0.6,0-1,0C32.7,13.4,32.6,13.4,32.6,13.3z"/>
<path class="st3" d="M6.2,12c0.4,0,0.8-0.1,1.1,0.1c0,0.4,0,0.8,0,1.2c-0.1,0-0.2,0.1-0.3,0.1c-0.3,0-0.6,0-0.8,0
	c0,0-0.1-0.1-0.1-0.1c0-0.3,0-0.7,0-1C6.1,12.2,6.2,12.1,6.2,12z"/>
<path class="st3" d="M11.4,21.5c0.1,0,0.2-0.1,0.3-0.1c0.3,0,0.6,0,0.8,0c0,0,0.1,0.1,0.1,0.1c0,0.3,0,0.7,0,1
	c-0.4,0.2-0.8,0-1.2,0.1c0-0.1-0.1-0.2-0.1-0.3c0-0.2,0-0.4,0-0.6C11.3,21.6,11.4,21.6,11.4,21.5z"/>
<path class="st2" d="M16.7,14.6c0,0.4,0,0.9,0,1.4c0,0-0.1,0.1-0.1,0.1c-0.3,0-0.7,0-1.1,0c0,0.1,0,0.3,0,0.4c0,1,0,2.1,0,3.1
	c0,0.1,0,0.3,0,0.4c3,0,5.9,0,8.9,0c0-1.4,0-2.7,0-4.1c-0.3,0-0.7,0-1,0c-0.1-0.1-0.1-0.1-0.1-0.2c0-0.3,0-0.7,0-1
	c0,0,0.1-0.1,0.1-0.1c0.4,0,0.7,0,1.1,0c0,0,0.1,0.1,0.1,0.1c0,0.3,0,0.6,0,0.9c0.4,0,0.8,0,1.2,0c0.1,0.1,0.1,0.1,0.1,0.1
	c0,1.7,0,3.4,0,5.1c0,0-0.1,0.1-0.1,0.1c-0.4,0-0.8,0-1.1,0c-0.1,0.1-0.1,0.1-0.2,0.2c-0.4,0-0.8,0-1.3,0c0,0.4,0,0.8,0,1.2
	c-0.1,0.1-0.1,0.1-0.1,0.1c-2.1,0-4.2,0-6.3,0c0,0-0.1-0.1-0.1-0.1c0-0.4,0-0.8,0-1.2c-0.4,0-0.8,0-1.2,0c-0.1-0.1-0.1-0.2-0.2-0.3
	c-0.4,0-0.8,0-1.1,0c0,0-0.1-0.1-0.1-0.1c0-1.6,0-3.2,0-4.8c0,0,0.1-0.1,0.1-0.1c0.3,0,0.7,0,1.1,0c0-0.4,0-0.9,0-1.3
	c0,0,0.1-0.1,0.1-0.1C15.8,14.6,16.3,14.6,16.7,14.6z"/>
<path class="st2" d="M24,6.2c0.1-0.1,0.1-0.1,0.1-0.1c0.4,0,0.8,0,1.3,0c0,0,0.1,0.1,0.1,0.1c0,0.1,0,0.3,0,0.5
	c0.1,0.1,0.4-0.1,0.4,0.2c0,0.3,0,0.7,0,1.1c0,0-0.1,0.1-0.1,0.1c-0.8,0-1.5,0-2.3,0c0,0-0.1-0.1-0.1-0.1c0-0.4,0-0.8,0-1.2
	c0,0,0.1-0.1,0.1-0.1c0.1,0,0.3,0,0.5,0C24,6.5,24,6.3,24,6.2z"/>
<path class="st2" d="M16.1,6.1c0,0,0.1,0.1,0.1,0.1c0,0.1,0,0.3,0,0.5c0.1,0,0.3,0,0.4,0c0.1,0.1,0.1,0.1,0.1,0.1c0,0.4,0,0.8,0,1.1
	c0,0-0.1,0.1-0.1,0.1c-0.8,0-1.6,0-2.4,0c0-0.1-0.1-0.2-0.1-0.3c0-0.3,0-0.6,0-0.9c0,0,0.1-0.1,0.1-0.1c0.1,0,0.3,0,0.5,0
	c0-0.2,0-0.3,0-0.5c0,0,0.1-0.1,0.1-0.1C15.2,6.1,15.6,6.1,16.1,6.1z"/>
<path class="st2" d="M16.7,14.6c0-0.4,0-0.8,0-1.1c0,0,0.1-0.1,0.1-0.1c0.8,0,1.6,0,2.4,0c0,0,0.1,0.1,0.1,0.1c0,0.4,0,0.7,0,1.1
	c0,0-0.1,0.1-0.1,0.1c-0.7,0-1.4,0-2.2,0C16.9,14.7,16.8,14.6,16.7,14.6z"/>
<path class="st3" d="M21.9,30.6c-0.9,0-1.8,0-2.6,0c0-0.3,0-0.6,0-1c0-0.1,0.1-0.2,0.1-0.3c0.9,0,1.7,0,2.5,0c0,0,0.1,0.1,0.1,0.1
	c0,0.3,0,0.6,0,0.8C22,30.4,21.9,30.5,21.9,30.6z"/>
<path class="st2" d="M20.8,13.5c0,0,0.1-0.1,0.1-0.1c0.7,0,1.5,0,2.2,0c0.1,0.1,0.1,0.1,0.2,0.2c0,0.3,0,0.6,0,0.9
	c0,0-0.1,0.1-0.1,0.1c-0.8,0-1.5,0-2.3,0c0,0-0.1-0.1-0.1-0.1C20.8,14.1,20.8,13.8,20.8,13.5z"/>
<path class="st2" d="M18.1,17c0-0.2,0-0.4,0-0.6c1.3,0,2.6,0,3.9,0c0,0.2,0,0.4,0,0.6C20.8,17,19.5,17,18.1,17z"/>
<path class="st3" d="M24.7,26.4c0-0.4,0-0.7,0-1c0,0,0.1-0.1,0.2-0.1c0.4,0,0.9-0.1,1.3,0.2c0,0.3,0,0.7,0,1c0,0-0.1,0.1-0.1,0.1
	c-0.3,0-0.6,0-1,0C24.9,26.6,24.8,26.5,24.7,26.4z"/>
<path class="st3" d="M27.2,23.9c0-0.4,0-0.7,0-1.1c0.1-0.1,0.2-0.1,0.3-0.2c0.3,0,0.6,0,1,0c0,0,0.1,0.1,0.1,0.1c0,0.4,0,0.8,0,1.2
	C28.2,23.9,27.7,23.9,27.2,23.9z"/>
<path class="st3" d="M23.3,27.8c0-0.4,0-0.8,0-1.1c0,0,0.1-0.1,0.1-0.1c0.3,0,0.6,0,1,0c0.1,0.1,0.2,0.1,0.3,0.2c0,0.3,0,0.7,0,1
	c0,0-0.1,0.1-0.1,0.1C24.2,27.8,23.8,28,23.3,27.8z"/>
<path class="st3" d="M18,27.9c-0.4,0-0.8,0-1.3,0c0-0.2,0-0.4,0-0.6c0-0.2,0-0.4,0-0.6c0,0,0.1-0.1,0.1-0.1c0.4,0,0.7,0,1.1,0
	c0,0,0.1,0.1,0.1,0.1C18,27.1,18,27.5,18,27.9z"/>
<path class="st3" d="M18.1,27.9c0.4,0,0.8,0,1.2,0c0,0,0.1,0.1,0.1,0.1c0,0.4,0,0.7,0,1.1c-0.4,0.2-0.8,0-1.2,0.1
	c-0.1-0.1-0.1-0.1-0.1-0.1C18.1,28.7,18.1,28.3,18.1,27.9z"/>
<path class="st3" d="M15.5,26.6c0,0-0.1-0.1-0.1-0.1c0.1-0.4-0.1-0.8,0.1-1.2c0.4,0,0.8,0,1.1,0c0,0,0.1,0.1,0.1,0.1
	c0,0.4,0,0.7,0,1.1c0,0-0.1,0.1-0.1,0.1C16.2,26.6,15.9,26.6,15.5,26.6z"/>
<path class="st3" d="M15.3,24C15.3,24,15.3,24,15.3,24c0.1,0.5,0.1,0.8,0.1,1.2c0,0-0.1,0.1-0.1,0.1c-0.4,0-0.7,0-1.1,0
	c0-0.1-0.1-0.2-0.1-0.3c0-0.3,0-0.6,0-0.9c0,0,0.1-0.1,0.1-0.1C14.5,24,14.9,24,15.3,24z"/>
<path class="st3" d="M13.9,22.7c0,0,0.1,0.1,0.1,0.1c-0.1,0.4,0.1,0.7-0.1,1.1c-0.4,0-0.8,0-1.2,0c-0.2-0.4,0-0.7-0.1-1.1
	c0,0,0.1-0.1,0.1-0.1C13.1,22.7,13.5,22.7,13.9,22.7z"/>
<path class="st3" d="M27.1,23.9c0.2,0.1,0.3,0.1,0.3,0.1c0,0.4,0,0.7,0,1.1c0,0-0.1,0.1-0.1,0.1c-0.3,0-0.6,0-1,0
	c-0.1-0.1-0.1-0.1-0.2-0.2c0-0.3,0-0.6,0-1c0.1,0,0.2-0.1,0.3-0.1C26.6,23.9,26.9,23.9,27.1,23.9z"/>
<path class="st3" d="M23.2,28c0,0,0.1,0.1,0.1,0.1c-0.1,0.4,0.1,0.7-0.1,1.1c-0.4,0-0.8,0-1.1,0c-0.2-0.4,0-0.7-0.1-1.1
	c0,0,0.1-0.1,0.1-0.1C22.5,28,22.8,28,23.2,28z"/>
<path class="st2" d="M10.3,5.5c-0.1-0.1-0.1-0.1-0.1-0.1c0.1-0.4-0.1-0.7,0.1-1.1c0.4,0,0.7,0,1.1,0c0.2,0.4,0,0.7,0.1,1.1
	c-0.1,0-0.2,0.1-0.3,0.1C10.9,5.5,10.6,5.5,10.3,5.5z"/>
<path class="st2" d="M30,5.3c0,0-0.1,0.1-0.1,0.1c-0.4-0.1-0.7,0.1-1.1-0.1c0-0.4,0-0.7,0-1.1c0.4-0.2,0.7,0,1.1-0.1
	c0,0,0.1,0.1,0.1,0.1C30,4.6,30,4.9,30,5.3z"/>
</svg>
