<svg xmlns="http://www.w3.org/2000/svg" viewBox="0 0 1280 1024"><defs><style>.cls-1{fill:#666;}.cls-2{fill:#564d3d;}.cls-3{fill:#998c73;}.cls-4{fill:#bfb191;}.cls-5{fill:#423a2d;}.cls-6{opacity:0.38;}.cls-7{fill:#603813;}.cls-8{opacity:0.5;}.cls-19,.cls-9{fill:#fff;}.cls-10{fill:#f2f2f2;}.cls-11{fill:#ccc;}.cls-12{fill:#b3b3b3;}.cls-13{fill:#999;}.cls-14{fill:#e6e6e6;}.cls-15{fill:#1e1ee0;}.cls-16{opacity:0.6;}.cls-17{opacity:0.49;}.cls-18{opacity:0.75;}.cls-19{opacity:0.58;}.cls-20{opacity:0.71;}.cls-21{opacity:0.34;}.cls-22{fill:#82593a;}.cls-23{fill:#e8b134;}.cls-24{opacity:0.51;}.cls-25{fill:#f9f9f9;}.cls-26{fill:#261d0d;}</style></defs><title>Fond d&amp;apos;écran2</title><g id="Décor_-_copie" data-name="Décor - copie"><rect id="Sol" class="cls-1" y="863" width="1280" height="161"/><rect id="Mur" class="cls-2" x="-1" width="1281" height="861"/><g id="Pierres"><rect class="cls-3" y="5" width="258" height="103" rx="12" ry="12"/><rect class="cls-4" x="3" width="258" height="103" rx="12" ry="12"/><rect class="cls-3" x="261" y="5" width="258" height="103" rx="12" ry="12"/><rect class="cls-4" x="264" width="258" height="103" rx="12" ry="12"/><rect class="cls-3" x="522" y="5" width="258" height="103" rx="12" ry="12"/><rect class="cls-4" x="525" width="258" height="103" rx="12" ry="12"/><rect class="cls-3" x="782.65" y="4.75" width="258" height="103" rx="12" ry="12" transform="translate(18.21 -133.58) rotate(8.46)"/><rect class="cls-4" x="786.35" y="0.25" width="258" height="103" rx="12" ry="12" transform="translate(17.59 -134.18) rotate(8.46)"/><rect class="cls-3" x="1044" y="5" width="258" height="103" rx="12" ry="12"/><rect class="cls-4" x="1047" width="258" height="103" rx="12" ry="12"/><rect class="cls-3" x="-112" y="113" width="258" height="103" rx="12" ry="12"/><rect class="cls-4" x="-109" y="108" width="258" height="103" rx="12" ry="12"/><rect class="cls-3" x="149" y="113" width="258" height="103" rx="12" ry="12"/><rect class="cls-4" x="152" y="108" width="258" height="103" rx="12" ry="12"/><rect class="cls-3" x="410" y="113" width="258" height="103" rx="12" ry="12"/><rect class="cls-4" x="413" y="108" width="258" height="103" rx="12" ry="12"/><rect class="cls-3" x="671.34" y="113.18" width="258" height="103" rx="12" ry="12" transform="translate(-14.74 107.11) rotate(-7.59)"/><rect class="cls-4" x="673.66" y="107.82" width="258" height="103" rx="12" ry="12" transform="translate(-14.01 107.37) rotate(-7.59)"/><rect class="cls-3" x="1080.1" y="275.17" width="285.54" height="114" rx="12" ry="12" transform="translate(-40.27 433.26) rotate(-19.77)"/><rect class="cls-4" x="1081.35" y="268.84" width="285.54" height="114" rx="12" ry="12" transform="translate(-38.06 433.31) rotate(-19.77)"/><rect class="cls-3" x="3" y="221" width="258" height="103" rx="12" ry="12"/><rect class="cls-4" x="6" y="216" width="258" height="103" rx="12" ry="12"/><rect class="cls-3" x="264" y="221" width="258" height="103" rx="12" ry="12"/><rect class="cls-4" x="267" y="216" width="258" height="103" rx="12" ry="12"/><rect class="cls-3" x="525" y="221" width="258" height="103" rx="12" ry="12"/><rect class="cls-4" x="528" y="216" width="258" height="103" rx="12" ry="12"/><rect class="cls-3" x="-109" y="329" width="258" height="103" rx="12" ry="12"/><rect class="cls-4" x="-106" y="324" width="258" height="103" rx="12" ry="12"/><rect class="cls-3" x="152" y="329" width="258" height="103" rx="12" ry="12"/><rect class="cls-4" x="155" y="324" width="258" height="103" rx="12" ry="12"/><rect class="cls-3" x="413" y="329" width="258" height="103" rx="12" ry="12"/><rect class="cls-4" x="416" y="324" width="258" height="103" rx="12" ry="12"/><rect class="cls-3" x="673.68" y="328.78" width="258" height="103" rx="12" ry="12" transform="translate(57.23 -102.65) rotate(7.59)"/><rect class="cls-4" x="677.32" y="324.22" width="258" height="103" rx="12" ry="12" transform="translate(56.66 -103.17) rotate(7.59)"/><rect class="cls-3" y="437" width="258" height="103" rx="12" ry="12"/><rect class="cls-4" x="3" y="432" width="258" height="103" rx="12" ry="12"/><rect class="cls-3" x="261" y="437" width="258" height="103" rx="12" ry="12"/><rect class="cls-4" x="264" y="432" width="258" height="103" rx="12" ry="12"/><rect class="cls-3" x="522" y="437" width="258" height="103" rx="12" ry="12"/><rect class="cls-4" x="525" y="432" width="258" height="103" rx="12" ry="12"/><rect class="cls-3" x="3" y="653" width="258" height="103" rx="12" ry="12"/><rect class="cls-4" x="6" y="648" width="258" height="103" rx="12" ry="12"/><rect class="cls-3" x="264" y="653" width="258" height="103" rx="12" ry="12"/><rect class="cls-4" x="267" y="648" width="258" height="103" rx="12" ry="12"/><rect class="cls-3" x="525" y="653" width="258" height="103" rx="12" ry="12"/><rect class="cls-4" x="528" y="648" width="258" height="103" rx="12" ry="12"/><rect class="cls-3" x="786.16" y="653.09" width="258" height="103" rx="12" ry="12" transform="translate(-42.53 59) rotate(-3.61)"/><rect class="cls-4" x="788.84" y="647.91" width="258" height="103" rx="12" ry="12" transform="translate(-42.2 59.16) rotate(-3.61)"/><rect class="cls-3" x="1046.73" y="652.82" width="258" height="103" rx="12" ry="12" transform="translate(85.71 -126.5) rotate(6.39)"/><rect class="cls-4" x="1050.27" y="648.18" width="258" height="103" rx="12" ry="12" transform="translate(85.21 -126.92) rotate(6.39)"/><rect class="cls-3" x="-109" y="761" width="258" height="103" rx="12" ry="12"/><rect class="cls-4" x="-106" y="756" width="258" height="103" rx="12" ry="12"/><rect class="cls-3" x="152" y="761" width="258" height="103" rx="12" ry="12"/><rect class="cls-4" x="155" y="756" width="258" height="103" rx="12" ry="12"/><rect class="cls-3" x="413" y="761" width="258" height="103" rx="12" ry="12"/><rect class="cls-4" x="416" y="756" width="258" height="103" rx="12" ry="12"/><rect class="cls-3" x="674" y="761" width="258" height="103" rx="12" ry="12"/><rect class="cls-4" x="677" y="756" width="258" height="103" rx="12" ry="12"/><rect class="cls-3" x="935" y="761" width="258" height="103" rx="12" ry="12"/><rect class="cls-4" x="938" y="756" width="258" height="103" rx="12" ry="12"/><rect class="cls-3" x="1196" y="761" width="258" height="103" rx="12" ry="12"/><rect class="cls-4" x="1199" y="756" width="258" height="103" rx="12" ry="12"/><rect class="cls-3" x="670.15" y="553.08" width="258" height="103" rx="12" ry="12" transform="translate(-33.8 47.48) rotate(-3.33)"/><rect class="cls-4" x="672.85" y="547.92" width="258" height="103" rx="12" ry="12" transform="translate(-33.49 47.63) rotate(-3.33)"/><rect class="cls-3" x="-112" y="545" width="258" height="103" rx="12" ry="12"/><rect class="cls-4" x="-109" y="540" width="258" height="103" rx="12" ry="12"/><rect class="cls-3" x="149" y="545" width="258" height="103" rx="12" ry="12"/><rect class="cls-4" x="152" y="540" width="258" height="103" rx="12" ry="12"/><rect class="cls-3" x="410" y="545" width="258" height="103" rx="12" ry="12"/><rect class="cls-4" x="413" y="540" width="258" height="103" rx="12" ry="12"/><path class="cls-3" d="M1180,613l14-35-46.67-35H974a12,12,0,0,0-12,12v79a12,12,0,0,0,12,12h234a12,12,0,0,0,11.85-10.23Z"/><path class="cls-4" d="M1180,613l14-35-53.33-40H977a12,12,0,0,0-12,12v79a12,12,0,0,0,12,12h234a12,12,0,0,0,9.58-4.81Z"/><path class="cls-3" d="M1236.46,648a11.92,11.92,0,0,0,.54-1.7l17.69-77a12,12,0,0,0-9-14.38l-59.13-13.58,37.65,44.56-21.48,31Z"/><path class="cls-4" d="M1250.86,640.17a11.91,11.91,0,0,0,4-6.46l17.69-77a12,12,0,0,0-9-14.38L1195,526.59l43,50.93-21.48,31Z"/><polygon class="cls-5" points="1237.99 577.51 1194.97 526.59 1194.81 526.9 1194.58 526.62 1186.55 541.31 1224.2 585.87 1236.84 577.89 1237.99 577.51"/><polygon class="cls-5" points="1236.77 648.41 1250.56 640.05 1216.55 608.59 1202.76 616.95 1236.77 648.41"/><path class="cls-6" d="M1276.6,968.44l-36.09-48.93a9.26,9.26,0,0,0-12.92-2l-48.94,36.1L1155.71,974l36.18,15.39-11.55,28.48,70.73-19.09,23.58-17.39A9.26,9.26,0,0,0,1276.6,968.44Z"/><path class="cls-3" d="M1259.92,954.76s-.09,5.17-.07,7.24c0,4.54-.26,9.47-1.39,13.14a9.21,9.21,0,0,1-2.9,4.83c-6.81,5-41.35-65.14-41.35-65.14l2.31-18.92a8.5,8.5,0,0,1,5.06,3l36.89,50A10.15,10.15,0,0,1,1259.92,954.76Z"/><polygon class="cls-2" points="1160.33 986.28 1173.41 969.35 1137.24 953.96 1128 970.89 1160.33 986.28"/><polygon class="cls-3" points="1151.86 1024 1161.87 997.83 1173.41 969.35 1160.33 986.28 1151.86 1024"/><polygon class="cls-2" points="1151.86 1024 1235.69 994.63 1232.67 978.72 1161.87 997.83 1151.86 1024"/><path class="cls-3" d="M1256.89,967.51l-36.09-48.93a9.26,9.26,0,0,0-12.92-2l-57.94,42.74,23.47,10-11.55,28.48,70.8-19.11,3,15.91,19.25-14.2A9.26,9.26,0,0,0,1256.89,967.51Z"/><path class="cls-4" d="M1258.13,948.43,1222,899.5a9.26,9.26,0,0,0-12.92-2l-48.94,36.1L1137.24,954l36.18,15.39-11.55,28.48,70.73-19.09,23.58-17.39A9.26,9.26,0,0,0,1258.13,948.43Z"/><path class="cls-6" d="M1016,925.07l-31.74,5.43L1008,964.3l-26.09,19,73.76,22.14-158,12.72a9.74,9.74,0,0,1-10.46-8.9l-5.13-63.71a9.74,9.74,0,0,1,8.9-10.46Z"/><path class="cls-2" d="M866.59,933.23s2.94-4.57,4.07-6.43c2.48-4.08,5.48-8.31,8.52-11a9.68,9.68,0,0,1,5.27-2.7c8.87-.71.85,81.1.85,81.1l-12.54,15.62a8.93,8.93,0,0,1-2.87-5.45l-5.24-65.12A10.67,10.67,0,0,1,866.59,933.23Z"/><path class="cls-2" d="M1050,983.4H1050L976.2,961.27l26.09-19L986.87,920.3l-113.27,9.12a9.74,9.74,0,0,0-8.9,10.46l5.13,63.71a9.74,9.74,0,0,0,10.46,8.9L1044,999.31l6.07-15.88Z"/><polygon class="cls-2" points="996.65 920.64 987.37 921.02 978.51 908.43 1009.67 903.05 996.65 920.64"/><polygon class="cls-2" points="1002.3 942.23 991.99 963.45 980.62 972.58 972.93 957.34 1002.3 942.23"/><path class="cls-4" d="M1010.25,903l-31.74,5.43,23.79,33.79-26.09,19L1050,983.41l-158,12.72a9.74,9.74,0,0,1-10.46-8.9l-5.13-63.71a9.74,9.74,0,0,1,8.9-10.46Z"/></g></g><g id="Personnage"><g id="Visage"><path class="cls-7" d="M52.81,939.63s7.08-5.51,9-6.69,2.16-21.44,1.38-35.21-3.54-25.18-5.11-25.18a7.7,7.7,0,0,1-6.69,1.57c-4.33-.79-13-9.84-16.52-17.7s-1.57-15.74,0-16.52c0,0-9-18.49-11-27.15s-1.57-40.13,24.39-70.42,95.6-20.46,107.8-5.9,20.46,35,20.46,35,7.48,5.11,9.84,8.66,1.18,9.44,1.18,9.44,1.18,6.29.39,8.66-1.18,2.36-1.18,3.93a18.65,18.65,0,0,0,0,5.11c.39,4.33,9.44,14.56,10.23,21.64s-2,22.82-2,22.82,0,11,.79,12.59.79,9-1.18,19.28-.79,12.2-3.15,15-16.92,9.44-20.46,11c0,0,3.15,58.62,5.51,61s-20.85,25.57-39.34,29.9-63.34-22.82-72.39-32.26S52.81,939.63,52.81,939.63Z"/><g class="cls-8"><path d="M182.84,797.79c-8.66.39-13.77,1.57-13-.39s5.9-6.29,5.9-6.29-9.44,4.72-10.62,7.48,10.62,10.62,11,13h4.33a17.85,17.85,0,0,1,3.93.39s-3.93-2-5.11-2.75,2.75-.39,4.72-1.18a11.35,11.35,0,0,0,2.68-1.65,18.08,18.08,0,0,1,.07-4.25c0-1.57.39-1.57,1.18-3.93a5.61,5.61,0,0,0,.23-1.27A15.58,15.58,0,0,1,182.84,797.79Zm1,8.07c-1.18.79-6.69.39-6.69.39s.39-.39,0-1.57a21.88,21.88,0,0,0-1.57-3.15s3.54-.79,5.51,0S185,805.07,183.82,805.86Z"/><path d="M189.53,843.43a17.12,17.12,0,0,0-9-5.9c-2.36-.39-2.75,1.57-2.75,3.15s1.18,6.29,1.57,6.29a16,16,0,0,0,2.75-.79,8,8,0,0,1,7.08.79c3,1.69,5.33,5.4,5.91,6.4,0-1,0-1.68,0-1.68l.05-.31C193.84,849.53,191.26,845.74,189.53,843.43Z"/><path d="M185.4,832.22c1.18-2.36.39-6.29.39-5.11s-3.54,3.15-4.72,4.33-1.73,3.43-1.18,3.54A5,5,0,0,0,185.4,832.22Z"/><path d="M187,878.64a11.31,11.31,0,0,0,5.9-8.26s-5.51,2.75-8.26,3.15-8.26-2.36-8.26-3.15,2.36-1.18,3.15-.79c0,0-2.75-2.36-13-1.57,0,0-4.72.39-3.15-1.57s23.61-5.9,26.36-4.72a20.18,20.18,0,0,1,4.61,3.56c.09-.9.19-1.91.28-2.82a68.48,68.48,0,0,0-.76-8c-.39-1.18-2.36-4.33-3.54-5.11s-3.54-2-5.9-1.18-2,3.15-1.57,3.15,1.57-1.57,2.75-2,3.15,0,5.51,2.36,2,7.48,2,7.48a6.7,6.7,0,0,0-2.75-1.57,10.41,10.41,0,0,0-3.54,0c-.79,0-2.36-2.36-2.36-2.36s0,3.54-.79,3.93-2-1.18-3.15-2.36-1.18-5.51-2.75-6.69-7.08.79-11.41,2-9,9.84-11,8.66,3.93-7.87,8.26-10.62S175,847,175,847a5.71,5.71,0,0,0,.39-2.36c0-1.57-2.75-7.87-2.75-7.87a23.39,23.39,0,0,0,2.75-1.18c1.57-.79,3.54-3.54,3.54-4.33s-2.75-5.51-8.26-5.9-13.77,5.51-16.13,6.69-3.15-2-3.93-1.18-1.18,4.33-.79,5.51,3.54,2,5.9,2,4.72-1.18,5.11-.79-.39,1.18-1.18,3.15,0,6.29,0,6.29-3.15,1.57-11.8,7.87a43.93,43.93,0,0,0-11.2,12.49l-.21,1.68-.31-.8c-.84,1.46-1.26,2.38-1.26,2.38l.31-4.87c-1.63-4.29-4.25-11.36-4.25-12.44a8.14,8.14,0,0,0-.79-3.15s-3.15,1.18-3.54,0,.79-3.54,2.75-3.15c0,0-.39-3.93-1.18-4.33s-12.2-2-17.31-3.54-11.8-4.33-13.38-3.93-9.84,8.26-10.62,11.8.39,8.26,0,8.66-18.1,10.23-17.9,12c.16,1.41-2-9-4.33-10.62s-6.29-2-5.9-6.69,9.84-18.1,11.8-23.61,2.75-24,1.57-29.9c0,0,3.15,10.23,3.54,16.92S72.88,841.27,74.45,846s6.29,10.23,6.29,10.23-.79-12.2,0-15.74,15.74-28.33,16.13-28.33,4.33,1.18,6.29.79a36.69,36.69,0,0,0,5.51-2s9.84,4.33,17.31,3.15,13.77-7.48,13.77-7.48-6.69,2.75-9,.79c0,0,5.9-3.54,8.66-3.93a12.37,12.37,0,0,1,4.33,0s-7.08-5.51-14.16-5.11-13,4.72-13.38,4.72-1.18-5.11.39-8.66,7.87-6.69,14.56-5.9,11.41,5.51,13.38,8.66,5.11-4.72,3.93-7.87-6.29-4.33-7.08-5.9-.79-3.15,1.57-5.11a15.75,15.75,0,0,1,5.51-2.75s-8.26-7.87-7.87-8.66,7.48-8.26,10.23-9.44,8.66-.79,11-2,14.16,17.31,13.38,18.1-5.11-2-7.87-.39-2.75,7.08-3.54,11a93.37,93.37,0,0,0-1.15,11c.43-.84,5.8-11,13.35-11.35,5.26-.26,9.46,3.51,11.67,6l-.06-.34s1.18-5.9-1.18-9.44-9.84-8.66-9.84-8.66-8.26-20.46-20.46-35S74.25,712,48.29,742.32s-26.36,61.77-24.39,70.42,11,27.15,11,27.15c-1.57.79-3.54,8.66,0,16.52s12.2,16.92,16.52,17.7a7.7,7.7,0,0,0,6.69-1.57c1.56,0,4.28,11.23,5.09,24.85l0-.07v-15c0-3.93,2-10.23,3.15-10.23s5.51,13,5.9,15.74-3.15,13-2.75,14.16,4.33,5.51,5.9,8.26,1.18,25.57.79,27.93-5.7,7.67-6.89,8.46-5.9-4.72-6.69-5.51-.39-5.11-.79-4.33S55.17,942,55.17,942l-1.9.1c1.13,5.46,4.48,18.7,11.54,26.06,9,9.44,53.9,36.59,72.39,32.26s41.7-27.54,39.34-29.9c-1.15-1.15-2.48-15.53-3.54-30-.07.83-.14,1.5-.2,1.91-.39,2.75-13,13.77-13.38,14.16s-3.15-1.18-6.29-.79-11.41,2.36-12.59,2.36-1.57-5.11-.79-12.59,4.33-20.07,4.33-20.07c.79-1.57,12.59-10.62,16.92-13,3-1.64,7.56-2.52,10-2.91v0c3.54-1.57,18.1-8.26,20.46-11a6.43,6.43,0,0,0,1-1.48,4.37,4.37,0,0,0-2.75-1.86c-4.33-1.18-10.23,0-11-.39a9,9,0,0,1-3.93-5.9c-.39-3.15,0-3.93,0-3.93S181.46,881.79,187,878.64Zm-55.47-77.9c2,0,4.33,1.18,4.33,2.36s-3.15,1.57-4.72,2.36a7.84,7.84,0,0,1-3.15.79s0-3.15-1.18-3.93A12.36,12.36,0,0,1,131.5,800.74Zm-70,70c-1.57.79-7.08,1.18-7.87.79s-.39-3.93-1.57-3.93H46.91c-1.18,0-2.36-15.74-2.75-15.74a1.24,1.24,0,0,1-.39-2c1.5-1.5,3.54-.39,5.51-.79S52,848,52,848.74s-4.33,3.15-4.72,5.11,1.18,10.62,2.36,10.62,2-3.15,3.15-2.75,9.84-.39,9,.79-1.18,1.57-3.54,2-3.93-1.18-3.93,0,1.57,3.93,4.33,3.15,5.9-4.33,6.69-3.15S63,870,61.47,870.77Z"/></g><path d="M121.27,806.64s4.72-3.93,5.51-4.33,3.54.79,3.54.79L128,806.25S122.05,807,121.27,806.64Z"/><path d="M172.81,803.1c.79.79,3.54,3.15,4.33,3.15s1.57-3.54,1.57-3.54a13.32,13.32,0,0,0-3.15-1.18C174.77,801.53,172.81,803.1,172.81,803.1Z"/><path class="cls-9" d="M131.5,800.74a12.36,12.36,0,0,0-4.72,1.57c1.18.79,1.18,3.93,1.18,3.93a7.84,7.84,0,0,0,3.15-.79c1.57-.79,4.72-1.18,4.72-2.36S133.46,800.74,131.5,800.74Z"/><path class="cls-9" d="M183.82,805.86c1.18-.79-.79-3.54-2.75-4.33s-5.51,0-5.51,0a21.88,21.88,0,0,1,1.57,3.15c.39,1.18,0,1.57,0,1.57S182.64,806.64,183.82,805.86Z"/><path d="M174,773.65c-1.68-.37-4.63-1.63-6.7-.44-2.75,1.57-2.75,7.08-3.54,11a93.37,93.37,0,0,0-1.15,11c.43-.84,5.8-11,13.35-11.35,5.26-.26,9.46,3.51,11.67,6l-.06-.34s1.18-5.9-1.18-9.44a19.43,19.43,0,0,0-2.94-3.22C181.56,776.2,176.69,774.51,174,773.65Z"/><path d="M141.28,781.24a12.83,12.83,0,0,0-1.23-.79h0l-.05,0,0,0A37.34,37.34,0,0,0,126.78,776a51.4,51.4,0,0,0-12.12-.12,4.48,4.48,0,0,0-.87.12,4.88,4.88,0,0,0-.62.21,2.43,2.43,0,0,0-.46.2h0c-4.55,2.27-10,11.41-10.33,16.5-.39,5.51,1.57,7.87,1.57,7.87s6.71-12.13,14.76-15.51h0a26.59,26.59,0,0,1,7.57-1.33,32.73,32.73,0,0,1,16.77,4.32L143,788S144.67,783.77,141.28,781.24Z"/><path d="M189.53,843.43a17.12,17.12,0,0,0-9-5.9c-2.36-.39-2.75,1.57-2.75,3.15s1.18,6.29,1.57,6.29a16,16,0,0,0,2.75-.79,8,8,0,0,1,7.08.79c3,1.69,5.33,5.4,5.91,6.4,0-1,0-1.68,0-1.68l.05-.31C193.84,849.53,191.26,845.74,189.53,843.43Z"/><path d="M137,866.56l1.58,1.07s23.21-17.31,26.36-18.49a78.44,78.44,0,0,1,10.23-2.36s.79-.76,0-3.73-.59-5.38-2.07-5S144.09,854.25,137,866.56Z"/></g><g id="Boucle"><polygon points="48.88 872.74 51.05 867.64 55.96 865.66 61.06 867.83 63.04 872.74 61.06 877.65 60.68 877.86 57.14 870.38 48.88 872.74"/><g id="Boucle-2" data-name="Boucle"><polygon class="cls-9" points="55.17 871.96 60.27 867.05 62.25 871.96 55.17 871.96"/><polygon class="cls-10" points="55.17 864.87 60.27 867.05 55.17 871.96 55.17 864.87"/><polygon class="cls-11" points="55.17 871.96 62.25 871.96 60.28 876.86 55.17 871.96"/><polygon class="cls-12" points="55.17 871.96 60.28 876.86 55.17 879.04 55.17 871.96"/><polygon class="cls-13" points="55.17 871.96 55.17 879.04 50.26 877.06 55.17 871.96"/><polygon class="cls-12" points="48.09 871.96 55.17 871.96 50.26 877.06 48.09 871.96"/><polygon class="cls-14" points="50.26 866.85 55.17 864.87 55.17 871.96 50.26 866.85"/><polygon class="cls-11" points="48.09 871.96 50.26 866.85 55.17 871.96 48.09 871.96"/><polygon class="cls-10" points="51.63 871.96 52.72 869.4 55.17 868.41 57.72 869.5 58.71 871.96 57.72 874.41 55.17 875.5 52.72 874.51 51.63 871.96"/></g></g><path class="cls-15" d="M303.82,963.23c-16.13-31.87-44.06-32.65-44.06-32.65a69.06,69.06,0,0,0-10.23-28.33c-9-14.16-55.47-15-55.47-15H194l-.35,2.57v0l0,.4-.23,2.12,0,.15a26.59,26.59,0,0,1-.94,4.61c-.79,2-7.08,5.51-9.44,6.69s-11.8,5.51-11.8,5.51.39,11.41,1.18,22,.39,24.79-6.69,32.65-27.15,24-27.54,22S111,967.56,98.05,958.51s-36.59-24.39-35.8-26,1.57-15.34,1.57-20.07S63,892,63,892s-1.18-.79-15,0-33.84,5.51-35.41,6.29-1.18,7.87-1.18,7.87a17.72,17.72,0,0,0-6.69,3.93c-3.54,3.15-1.57,11.8-1.57,11.8-3.15.39-3.54,4.72-3.54,4.72v97.18H329A449.76,449.76,0,0,0,303.82,963.23Z"/><path class="cls-16" d="M29.79,913.86c-4.52.2-15.15-4.13-15.54-9.25s7.48-5.51,10.23-4.33a17.3,17.3,0,0,0,8.66.79c1.57-.39,15.34-4.33,17.31-4.72s13,1.18,13,1.18l.2,14.36s-10.23-6.69-15.34-5.51S34.32,913.66,29.79,913.86Z"/><g class="cls-16"><path d="M233,897.92a117.26,117.26,0,0,0-34.08-5.57h-1c-1.91,0-3.26,0-3.89.06h-.69c-.29,1.17-.5,4.33-1.37,5.45s-5.42,4-7.53,5.15a.34.34,0,0,0-.18.22c-1.57.93-8.51,5-11,5.94,2.1-.64,10-3,12.74-3.34,3.82,4,12.42,11,12.7,15.31.39,5.9-40.92,52.33-40.92,52.33s25.57-15.74,30.29-18.1,49.18-30.69,49.18-30.69S253.07,904.61,233,897.92Z"/><path d="M173.33,909.17l-.52.16A3.68,3.68,0,0,0,173.33,909.17Z"/></g><g class="cls-17"><path class="cls-14" d="M138,987.43S85.27,954,81.33,951.62,27,917.4,25.07,915.82s-13.38-7.87-11.8-13,10.62-6.29,13.38-5.51,18.1-2.36,21.64-3.15,15,.79,15,.79v-2s-11-.79-15.34-.39-18.1,3.15-20.85,3.15-14.16,1.18-14.56,7.08,7.08,9.84,12.2,14.16S67.56,944.15,68,944.54,135.63,987.43,138,987.43Z"/><path class="cls-14" d="M-.11,962.25s22.82,29.9,25.57,35.41,9.84,10.23,9.84,8.26-22-31.87-22.82-33.44S7,960.28,8.94,961.07s10.62,11.41,10.62,9.44S6.19,953.59,3.43,952-.5,949.66-.5,949.66Z"/><path class="cls-14" d="M-.5,939.82s2-3.15,7.08-1.18,16.92,13.77,20.07,15.74-9-14.56-12.59-18.49-11-9-11-10.62-1.18-9.84,1.18-9,7.87,7.87,9.84,9S2.65,915,6.58,910.71s5.9-3.54,5.9-3.54a9.11,9.11,0,0,0-8.66,4.33c-3.15,5.11-2,13.38-2,14.56s-2,3.15-2,3.15Z"/><path class="cls-14" d="M194.25,890.64s21.64.79,27.54,2,20.46,5.9,22.82,11.41-2.16,19.08-6.89,21.84-7.28,4.52-7.28,4.52l-90.29,57.24s97.37-59.21,101.31-63.15,6.29-16.13,4.33-20.85-17.7-11.8-24-12.59-27.93-1.57-27.93-1.57l-.2,1.38Z"/><path class="cls-14" d="M249.33,903.63s9.44,22,9,24-3.93,6.69-5.51,9.44,3.15-5.9,3.54-10.23S247.76,902.84,249.33,903.63Z"/><path class="cls-14" d="M258.38,941.4c-.6,1.56,3.54-5.9,9-5.51s28.72,22,33,25.57-24-28.72-32.65-28.72h-7.48A26.66,26.66,0,0,1,258.38,941.4Z"/></g><path class="cls-16" d="M5.4,949.66c-3-1,17.31,0,25.18,15.74s55.87,50,64.92,54.29l9,4.33L55,1023.62S16.81,976,16,972.48s7.48,2.75,9,1.18S16,953.2,5.4,949.66Z"/><path class="cls-16" d="M-.11,971.69s24,51.54,33,51.93H12.88s-12.59-30.29-13-35.8S-.11,971.69-.11,971.69Z"/><path class="cls-16" d="M300.08,967s-3.15,32.26-2.75,36.2,2.75,20.46,2.75,20.46h10.62s-9.44-5.11-10.62-8.26-2-12.2-1.18-15.74,1.57-2.75.39-7.87.39-14.56,2-13.38S300.08,967,300.08,967Z"/><g class="cls-18"><path d="M158.05,997.26c-2.38.23,46.82-20.46,61.38-30.29s38.95-32.26,38.95-33-3.54,11.41-27.15,31.87S178.12,995.3,158.05,997.26Z"/><path d="M5.4,921.33S27,938.25,36.48,941.79s35.41,15.74,48,25.18,31.08,20.46,38.95,22.82,10.23,2,10.23,2-9.44,1.57-29.51-7.48S77,965,65.2,959.49a89.51,89.51,0,0,1-20.07-13s2.36,8.26,9,13.38,16.92,9.84,16.92,9.84-16.52-5.11-20.46-8.26-9.84-13.38-11.8-15S27,939.82,29,942.18s24,31.47,40.52,43.67,46,20.07,48,21.25,6.69,6.69,6.29,11-5.9-5.9-8.26-6.29-.39,11.8-.39,11.8h-5.11s.39-11.41-5.11-14.56-29.51-15.34-37.38-21.25-39.74-38.16-44.46-47.61S6.19,926.05,5.4,921.33Z"/><path d="M57.73,935.89s81.91,51.26,80.65,50.36c-9.84-7.08-76.47-53.22-76.33-53.51.39-.79,1.77-10,1.77-18.69-7.08-5.11-20.46-7.08-21.44-.2-.42,3,2.75,8.66,6.69,13.38A77.28,77.28,0,0,0,57.73,935.89Z"/><path d="M157.86,973.46s32.65-39.34,33.44-41.7,6.69-7.48,5.9-10.23-8.26-16.52-15-14.56S172,910.12,172,910.12s4.31,21.08,1.57,35.41C170.4,962.24,160,972.61,157.86,973.46Z"/></g><circle class="cls-18" cx="148.81" cy="998.25" r="3.93"/><path class="cls-1" d="M148.81,992.35a5.9,5.9,0,1,0,5.9,5.9A5.9,5.9,0,0,0,148.81,992.35Zm0,9.84a3.93,3.93,0,1,1,3.93-3.93A3.93,3.93,0,0,1,148.81,1002.18Z"/><path class="cls-19" d="M144.87,998.25a3.92,3.92,0,0,1,1-2.58,3.93,3.93,0,1,0,5.55,5.55,3.93,3.93,0,0,1-6.51-3Z"/><path class="cls-19" d="M154.71,998.25a5.9,5.9,0,0,0-10.26-4,5.89,5.89,0,0,1,8.33,8.33A5.88,5.88,0,0,0,154.71,998.25Z"/><path class="cls-20" d="M143.3,997.85a5.87,5.87,0,0,1,1.54-4,5.9,5.9,0,1,0,8.33,8.33,5.89,5.89,0,0,1-9.87-4.36Z"/><path class="cls-20" d="M153.14,997.85a3.93,3.93,0,0,0-6.9-2.58,3.93,3.93,0,0,1,5.55,5.55A3.92,3.92,0,0,0,153.14,997.85Z"/><circle class="cls-18" cx="133.86" cy="998.25" r="3.93"/><path class="cls-1" d="M133.86,992.35a5.9,5.9,0,1,0,5.9,5.9A5.9,5.9,0,0,0,133.86,992.35Zm0,9.84a3.93,3.93,0,1,1,3.93-3.93A3.93,3.93,0,0,1,133.86,1002.18Z"/><path class="cls-19" d="M129.92,998.25a3.92,3.92,0,0,1,1-2.58,3.93,3.93,0,1,0,5.55,5.55,3.93,3.93,0,0,1-6.51-3Z"/><path class="cls-19" d="M139.76,998.25a5.9,5.9,0,0,0-10.26-4,5.89,5.89,0,0,1,8.33,8.33A5.88,5.88,0,0,0,139.76,998.25Z"/><path class="cls-20" d="M128.35,997.85a5.87,5.87,0,0,1,1.54-4,5.9,5.9,0,1,0,8.33,8.33,5.89,5.89,0,0,1-9.87-4.36Z"/><path class="cls-20" d="M138.19,997.85a3.93,3.93,0,0,0-6.9-2.58,3.93,3.93,0,0,1,5.55,5.55A3.92,3.92,0,0,0,138.19,997.85Z"/><path class="cls-18" d="M148.43,1011.34c-.14-1.57,1.22-6.44,2.44-10.38h0c.38-1.23.74-2.37,1-3.29-.18-1.24-.46-2.38-1.53-3-1.18.39-1.64,2.3-2.2,3.85v0c-1.67,4.66-3.07,11.24-2.9,13.11.25,2.77,3.71,12.95,3.71,12.95l3-.72S148.68,1014.11,148.43,1011.34Z"/><path class="cls-9" d="M149.22,1011.34c-.14-1.57,1.22-6.44,2.44-10.38h0c.38-1.23.74-2.37,1-3.29a3.93,3.93,0,0,0-2-2.88,19.32,19.32,0,0,0-1.71,3.77v0c-1.67,4.66-3.07,11.24-2.9,13.11.25,2.77,3.71,12.95,3.71,12.95l3-.72S149.47,1014.11,149.22,1011.34Z"/><path class="cls-18" d="M139,1005.33a12,12,0,0,0-2.53-4.63l-.08-.11-.22-.27-.11-.14-.22-.26-.12-.14-.23-.26-.12-.13-.24-.26L135,999l-.18-.19,0,0a17.88,17.88,0,0,0-3.4-2.93,2.18,2.18,0,0,0-1.49,2.38,34.37,34.37,0,0,1,4.56,4.85h0a6.67,6.67,0,0,1,1.34,2.63c.39,2.75.47,19.28.47,19.28h3.13S139.37,1008.08,139,1005.33Z"/><path class="cls-9" d="M139.76,1004.15a12,12,0,0,0-2.53-4.63l-.08-.11-.22-.27-.11-.14-.22-.26-.12-.14-.23-.26-.12-.13-.24-.26-.1-.11-.18-.19,0,0a17.88,17.88,0,0,0-3.4-2.93,3.94,3.94,0,0,0-1.91,1.92,41.44,41.44,0,0,1,5,5.31h0a6.67,6.67,0,0,1,1.34,2.63c.39,2.75.47,19.28.47,19.28h3.13S140.15,1006.9,139.76,1004.15Z"/><g id="Main"><path class="cls-7" d="M185.79,1023.82s-13-9-13-14.16,7.87-11.41,8.26-13.77-.79-6.69,0-9,5.11-6.29,5.51-8.66.79-2.36-.79-3.93-7.08-3.93-5.9-9.84,7.87-8.66,9.84-8.66.79-1.18.39-2-4.72-3.93-3.54-8.66,7.87-8.26,11.8-8.26,7.08,2,8.66,1.18,5.51-2.75,5.51-4.33-.79-22-.79-29.11,6.69-11.41,11-8.66,6.29,7.08,5.51,11.41-.39,17.31,3.54,26.36,8.66,12.2,9.84,15.34-1.18,8.66-.79,11.41,8.66,20.46,12.2,22.82,5.51,16.52,6.69,19.28,3.54,8.66,7.48,11,8.66,7.87,9,10.23Z"/><g class="cls-21"><path d="M255.23,1015.75c-1.18-.39-3.15,1.57-4.72,2.36a31.18,31.18,0,0,1-6.69,1.57c-.39,0-.39-.79.79-1.57s6.29-1.57,6.29-1.57a15.19,15.19,0,0,1,.79-4.33,23.84,23.84,0,0,1,2.75-5.11s-5.11-.79-5.11-1.57,3.93-1.18,3.93-1.18c-.79-1.57-3.54-1.18-4.72-1.18s-11.41-8.26-11.8-9,4.72-2.75,5.11-1.57,10.23,5.11,10.23,4.33-3.15-4.33-3.54-6.29-2.36-6.69-3.93-7.48-3.15-7.08-3.93-8.66-2-2.36-1.57-.79.79,3.15-1.18,3.93-5.9,0-6.29.39.39.79,1.57,1.18,3.54,0,3.93.79-2.36.79-4.72,0-7.08-2.36-7.08-3.15,4.72-1.57,5.51-1.57.39-1.18-1.18-2-14.16-1.18-14.56-1.57.39-.79,2-2,2.21-4.72,2.34-5.4a5.62,5.62,0,0,1-1.95,2.25c-.79.39-.79-.39-.79-.39a14.42,14.42,0,0,0,.76-2.25,5.07,5.07,0,0,1-1.94,1.86c-.31,0,.11-1.23.31-1.74-.33.57-1.54,1.69-1.88,1.35s-.39-5.11-.39-5.11-1.18,2.36-.79,3.54-.39,4.72-2,5.9-7.48,1.57-9.44.39-2.36-5.51-4.72-7.87a7.88,7.88,0,0,0-5.11-2.36l3.15,5.51s-3.54,3.54-6.29,4.33a9.48,9.48,0,0,1-5.11,0s0,.39.79,1.57,4.33,3.15,4.33,3.54-1.5.75-1.5.75c.46.36-.7,3.78-.7,3.78s2.2-.21,3.38-.21,3.54.79,2,1.57a6.55,6.55,0,0,0-2.36,2s11.41-2.75,14.56-2c2.63.66,7.16,6.51,8.83,8.43a7.08,7.08,0,0,1,.12,2.67c-1.28.78-14.14,1.87-16,1.49s-6.69-5.11-6.69-5.11c1.57,2.75.79,9.84-.79,11s-4.72-3.15-5.9-4.33-2.44-6.15-2.44-6.15a19.92,19.92,0,0,0,.34,6.47c.46,1.7,7.41,8.93,9.37,9.71s14.16-.79,14.16.39-6.69,2-6.69,2c.79.39,7.08,4.33,6.29,4.72s-14.56-4.72-15.34-4.33,5.51,7.08,5.11,8.26c-.59,1.77-7.28,1.77-8.46,2.56s-1.18,1.57.39,2.75,7.08,1.18,11.8,1.18a25.26,25.26,0,0,1,8.1,1.27l40.49.09,5.71-1.75S256.41,1016.15,255.23,1015.75ZM234,1014.57c-2,2-3.93,6.69-4.33,5.11s2-2.75,2.36-4.72-2-3.15-2-5.11,2.36-4.33,2.36-5.51-8.26-6.29-8.66-6.69.39-2,.39-2.36-3.15-2.36-4.72-2.75l-.13,0a.69.69,0,0,1,.13-.76c.52-.52,3.5.88,5.42,1.87l.08.1a9.4,9.4,0,0,1,.79,3.54c0,.79,5.9,4.33,7.48,4.72s2.75-.39,5.9,0a8.42,8.42,0,0,1,5.11,2.36c.39.39,2-.79,3.15-.39s-2,1.57-2.75,1.57-3.15-2-5.9-2-3.93.39-5.51,2.36-.79,6.29-.39,6.69,2-1.57,4.33-2.75,4.72-1.18,5.11-.79S236,1012.61,234,1014.57Z"/><path d="M217.43,963.93a.33.33,0,0,0,0-.11Z"/><path d="M215.8,964a.52.52,0,0,0,.09-.23Z"/><path d="M219.41,964.32a.41.41,0,0,0,0-.11Z"/><path d="M199.61,939.81s5.06,2.17,6.64,4.14,1,5.79,1,5.79.39,1.88,3.93,1.88,4.72-5.51,5.11-5.51,1.57,4.72,1.18,7.48,3.54-3.54,3.54-4.72,1.18,2,.79,4.72S236,953.2,236,954s-3.15,4.33-5.11,5.11-5.11,1.18-5.11,2,3.93.79,3.93.79-5.11,1.57-7.48,1.18-7.08-3.93-8.66-4.33-9.44.39-11.8,0-10.38-2.24-10.9-3.48a6,6,0,0,1-.12-4.78,7.11,7.11,0,0,1,5.51-4.33,18,18,0,0,1,5.9.39Z"/><path d="M219.63,939.63c-2.78.69,13.38.39,13.38,0s-5.11-11.41-5.51-14.16-1.57-10.23-1.18-13,1.18-6.29.79-9.44-3.93-6.29-5.51-7.08a3.8,3.8,0,0,0-3.15,0s6.69,3.54,6.69,7.08-1.57,11.41-1.18,15,5.11,16.52,3.93,17.7S221.2,939.23,219.63,939.63Z"/></g><path class="cls-22" d="M198,940a17.27,17.27,0,0,1,1.57,8.26c-.39,4.33-.79,5.11-.79,5.11s8.66-.39,9-5.51S202.71,938.84,198,940Z"/><path class="cls-22" d="M191.69,960.08s1.57,5.11,0,9-1.57,4.72-1.57,4.72,7.48-1.18,7.87-5.51S194.45,960.48,191.69,960.08Z"/></g><g id="Bracelet"><path d="M270.58,1018.51c.79-.39,3.15-4.72,2.75-8.66a8.26,8.26,0,0,0-3.93-5.9l-1.18-1.57a15.67,15.67,0,0,0-3.9-3.13s-.26-.37-1.6-2c-2-2.36-4.92-3.34-4.92-3s.59,8.85.59,8.85a12,12,0,0,0-2,3.54C256,1008.28,258,1011,258,1011a7.73,7.73,0,0,0-3.54,1.57c-1.18,1.18-2.36,6.69-2.36,6.69a17.38,17.38,0,0,0-3.15,1.18,23.49,23.49,0,0,0-4.13,3.34h25A24.28,24.28,0,0,0,270.58,1018.51Zm-8.66,4.72a15,15,0,0,0-2.36-2,18.52,18.52,0,0,0-2-.79s.39-3.15.79-3.54,1.18-.79,1.57-.39-.39,1.57,0,2.75a6.07,6.07,0,0,0,2.75,2.75l.79.39A2.75,2.75,0,0,1,261.92,1023.23Zm1.77-11.21s-.79-3.54-.79-3.93c0,0,0-.39.39,0a8.16,8.16,0,0,0,.79,2.36c.39.39,1.18,1.18,1.18,1.57C265.26,1012,264.08,1011.62,263.69,1012Z"/><path class="cls-23" d="M271.76,1018.51c.79-.39,3.15-4.72,2.75-8.66a8.26,8.26,0,0,0-3.93-5.9l-1.18-1.57a15.67,15.67,0,0,0-3.9-3.13s-.26-.37-1.6-2c-2-2.36-6.29-3.54-6.29-3.15s2,9,2,9a12,12,0,0,0-2,3.54c-.39,1.57,1.57,4.33,1.57,4.33a7.73,7.73,0,0,0-3.54,1.57c-1.18,1.18-2.36,6.69-2.36,6.69a17.38,17.38,0,0,0-3.15,1.18,23.49,23.49,0,0,0-4.13,3.34h25A24.28,24.28,0,0,0,271.76,1018.51Zm-8.66,4.72a15,15,0,0,0-2.36-2,18.52,18.52,0,0,0-2-.79s.39-3.15.79-3.54,1.18-.79,1.57-.39-.39,1.57,0,2.75a6.07,6.07,0,0,0,2.75,2.75l.79.39A2.75,2.75,0,0,1,263.1,1023.23Zm1.77-11.21s-.79-3.54-.79-3.93c0,0,0-.39.39,0a8.16,8.16,0,0,0,.79,2.36c.39.39,1.18,1.18,1.18,1.57C266.44,1012,265.26,1011.62,264.87,1012Z"/><g class="cls-24"><path class="cls-25" d="M253.46,1023.82a14.12,14.12,0,0,1,0-4.33c.39-2,1.57-5.51,2.75-6.69a2.41,2.41,0,0,1,2.36-.79,7.25,7.25,0,0,0-3.15,3.15,21,21,0,0,0-1.57,6.29v2.36Z"/><path class="cls-25" d="M258.58,1021.07v2l1.57.79h.79s-1.57-1.18-1.57-1.57S258.58,1021.07,258.58,1021.07Z"/><path class="cls-25" d="M262.12,1015.16a17.85,17.85,0,0,0-.79,3.15c0,.79,1.57,2.75,2,3.15a5.6,5.6,0,0,0,1.57.79,17.11,17.11,0,0,0,1.57-2.75,6,6,0,0,1-1.38,1C264.28,1020.87,261.92,1016.54,262.12,1015.16Z"/><path class="cls-25" d="M260.35,1009.07a25.69,25.69,0,0,0,.79,4.33,18.52,18.52,0,0,1,.79,2v-2S260.35,1010.25,260.35,1009.07Z"/><path class="cls-25" d="M265.46,999.62a8.65,8.65,0,0,1,2.36,2c.39.79,1.18,2,1.18,2s1.18,0,1.57.39c0,0-1.57-2-2.36-2.75A10.78,10.78,0,0,0,265.46,999.62Z"/><path class="cls-25" d="M259,998.64l.79,4.33s1.38-1.77,2.16-1.38,3.15,2,3.54,3.15,2,5.51,2.36,5.51.79-3.93.39-4.72a23.3,23.3,0,0,0-1.57-2.36l-2-2s2,2.75,2.36,3.54a2.6,2.6,0,0,1,.39,2.36,10.78,10.78,0,0,0-1.57-2.75c-.79-.79-3.54-4.33-4.72-4.33S259,998.64,259,998.64Z"/><path class="cls-25" d="M264.28,1000.41s-.79-2.75-2-3.54a5.64,5.64,0,0,0-2.75-.79,1.37,1.37,0,0,1-.39-.79c0-.39,2.75.79,3.54,1.57S264.28,1000.41,264.28,1000.41Z"/><path class="cls-25" d="M247.08,1023.81a17,17,0,0,1,2.44-2c.79-.39,2-1.18,2.75-.39a3.93,3.93,0,0,0-2.22-.91c-.93.13-4.07,3.27-4.07,3.27Z"/></g><path class="cls-26" d="M253.85,1023.82a1.37,1.37,0,0,0,.39-.79,19.87,19.87,0,0,1,.79-5.9c.79-2,2.75-4.72,3.54-4.72s1.57,1.18,1.18,2.75-1.18,3.54-1.57,5.51-.61,3-.61,3Z"/><path class="cls-26" d="M252.16,1023.73s.9-1.88-.28-2.27-4.33,2.36-4.33,2.36Z"/><path class="cls-26" d="M266.84,1012.8c.39-.39,3.93,1.57,4.33,4.33s-1,6.46-1,6.46l-4.27.09s1.7-3.41,1.7-5,.2-4.52-.59-5.31S266.84,1012.8,266.84,1012.8Z"/><path class="cls-26" d="M263.49,1015.75a31.85,31.85,0,0,1-2.36-5.11,33,33,0,0,1-.79-3.93s0,3.15-.39,3.15-1.18-3.15-.79-4.33.79-2,1.57-2,.79.39.79,1.18a36.33,36.33,0,0,0,.39,5.9A43.5,43.5,0,0,0,263.49,1015.75Z"/><path class="cls-26" d="M265.46,1013.39s.39,3.15,0,3.93-1.18,2-.79,2.36,1.57,0,1.57-1.18S266.64,1014.18,265.46,1013.39Z"/><path class="cls-26" d="M259.56,1012.21c-.39,0,.79,1.18.79,2a13.87,13.87,0,0,1-.49,2.51s.9-.41.89-.28.58-2,.19-2.82S260,1012.21,259.56,1012.21Z"/><path class="cls-26" d="M263.49,1001.2c.79,0,3.15,3.15,3.54,3.93a3.92,3.92,0,0,1,.39,1.57,26.68,26.68,0,0,0-2.36-3.54A15.38,15.38,0,0,1,263.49,1001.2Z"/><path class="cls-26" d="M268.21,1005.13a18.8,18.8,0,0,1,2.36,4.33,14.77,14.77,0,0,1,0,4.33s-1.57-1.57-2-1.57,0-3.15,0-3.93S268.21,1005.13,268.21,1005.13Z"/><path class="cls-26" d="M267,1003.16a8.86,8.86,0,0,1,2,2l1.18,2.36a15.47,15.47,0,0,0-.79-2.36s.39,0,1.18,2a11,11,0,0,1,.79,4.33c0,.79-.39,3.15-.39,3.54a10.1,10.1,0,0,0,.79,2,2.72,2.72,0,0,1,0-2,14.9,14.9,0,0,0,0-5.9,14.74,14.74,0,0,0-2.75-4.72C267.82,1003.16,267,1003.16,267,1003.16Z"/><path class="cls-26" d="M270.18,1004.34a8.15,8.15,0,0,1,3.15,2.75,10.53,10.53,0,0,1,.79,3.93s-.39-2.75-1.18-3.54-.39.39-.39.39a12.62,12.62,0,0,0-1.18-2A15.69,15.69,0,0,1,270.18,1004.34Z"/><path class="cls-26" d="M258.77,1020.87h0s.39,0,.79.79,1.18.39,1.57,1.18.28.87.28.87l1.3-.09a8,8,0,0,0-2-2A4,4,0,0,0,258.77,1020.87Z"/><path class="cls-26" d="M262.12,1002.18s2.36.79,2.75,2-.39,3.54-.39,3.54h-.39a12.66,12.66,0,0,0-.39-3.15A7.45,7.45,0,0,0,262.12,1002.18Z"/><path class="cls-26" d="M266.05,1000.61s.39,0,1.18,1.18L268,1003s-1-.35-1.17-.06a.15.15,0,0,0,0,.06c0,.39-.79-.79-.79-1.18Z"/><path class="cls-26" d="M261.53,995.69a12.62,12.62,0,0,1,2,1.18c.39.39,1.18,1.57.79,1.57s-.39-.79-.79-1.18S261.53,995.69,261.53,995.69Z"/><path class="cls-26" d="M259.17,996.48s1.57-.39,2,.39l.79,1.57s-.79-.79-1.18-.79S260,996.48,259.17,996.48Z"/><path class="cls-26" d="M258.38,997.26a.39.39,0,0,1,.39-.39,12,12,0,0,1,2.75,2,15.69,15.69,0,0,1,1.18,1.57,17.11,17.11,0,0,0-2.75-1.57C259.56,998.84,258.38,998,258.38,997.26Z"/></g></g></svg>