<svg id="Calque_1" data-name="Calque 1" xmlns="http://www.w3.org/2000/svg" viewBox="0 0 28.8 28.2"><defs><style>.cls-1{fill:#de3617;}.cls-2{fill:#5a4541;}.cls-3{fill:#5d312b;}.cls-4{fill:#6a2a24;}.cls-5{fill:#585252;}.cls-6{fill:#656363;}.cls-7{fill:#f7d905;}.cls-8{fill:#9c201a;}.cls-9{fill:#f28d05;}.cls-10{fill:#f6a307;}.cls-11{fill:#ef790c;}.cls-12{fill:#f8b909;}.cls-13{fill:#eb650f;}.cls-14{fill:#e64c16;}.cls-15{fill:#f8ed70;}</style></defs><title>boom</title><g id="Calque_1-2" data-name="Calque 1"><path class="cls-1" d="M23.41,22.15c.6.2,1.2.4,1.7.6-.1.2-.4.4-.4.6-.1,1.5-1,1.7-2.3,1.7a9.77,9.77,0,0,0-2.3.6l-1.7.3H18c-.2-.2-.5-.4-.7-.6h0c-.1-.1-.2-.3-.3-.4-.1.2-.3.3-.4.5-.2.6-.5,1.1-.8,1.9q-.6-.75-.9-1.2c-.6.2-1.6.8-1.7.6a11.15,11.15,0,0,1-1.3-2.4c.4,0,.9-.1,1.3-.1,0,.3-.1.7-.1,1,.1.1.3.1.4.2.3-.5.7-.9,1-1.4-.1-.1-.2-.2-.2-.3-.3.1-.5.1-.8.2-.2-.3-.4-.7-.7-.8-.8-.1-1.6-.1-2.5-.2a.6.6,0,0,0-.1-.4,5.72,5.72,0,0,0-1.6-1.1c-1.3-.4-1.6-.8-1.1-2.3-.9-.1-1.8-.3-2.8-.4.1-.5.2-.9.3-1.3,2,.2,1.3-1.4,1.5-2.2a3.85,3.85,0,0,1-1.3-1.6,10.55,10.55,0,0,1-.2-2.5H5l.6-.9c0-.1,0-.1.1-.2a1.38,1.38,0,0,0,.3-.4h.9c-.2,1.2-1.4,2.3-.6,3.7.2.4.7.9,1.1.9s.7-.6,1-.9l-.3-.3H6.31c.7-.5,1-.7,1.3-.9a6.6,6.6,0,0,1-.4-1.1h1.4c-.1-1.3-.9-1.3-1.7-1.3.1-.9.2-1.7.3-2.8,1-.2,2.4-.4,3.7-.7a4.18,4.18,0,0,0,1.2-.8c.1-.2.1-.4.2-.6h0c1.9.4,2.9-1.3,4.5-1.6a7.71,7.71,0,0,0,1.9.8c.6.2,1.2.3,1.9.5.8.9,1.7,1.8,2.5,2.7a2.46,2.46,0,0,1,1-.4c.1.5.5,1.1.4,1.5a20,20,0,0,1-1,2.1c-.2.1-.5.2-.7.3.2.3.5.6.7.9h0a20.15,20.15,0,0,1-.7,2.3H24l.3-2.4a.72.72,0,0,1,1.4,0,4.64,4.64,0,0,1-.1,2c1,.4,1,1.4.5,2.4-.5.6-1,1.5-1.6,1.7-1.7.5-1.8,1.3-.8,2.5v.1c-.2.1-.3.2-.5.3a3.75,3.75,0,0,1-.1,1A3.33,3.33,0,0,1,23.41,22.15Zm-8.5-11.8h0c0-1.4-.1-1.5-.9-1.2-.3.4-.7.9-1.1,1.4-1-1.3-1.5-.2-2.3.9a15.69,15.69,0,0,1,1.6.3,2,2,0,0,1,1.1.6c.1.1-.2.6-.3,1-.9-.9-1.5-.2-2.1.5a13.45,13.45,0,0,0-1.1,1.4c-.1-.1-.3-.1-.4-.2.1.5.2,1.1.3,1.6-.1.4-.1.8-.2,1.1-1,.2-1-.3-.9-1.1a3.08,3.08,0,0,0-.5-1.2c-.3.2-.7.3-.8.5a2.23,2.23,0,0,0,0,1.4,8.31,8.31,0,0,0,1.3,1.4,12.13,12.13,0,0,0,1.4-.5c.1.2.1.4.2.6a10.9,10.9,0,0,0,.6,1.1,5.58,5.58,0,0,1-.5.8c.4.3.6.7.9.8.5.2,1.3.5,1.5.3.8-1.1,1.7-.3,2.2-.3.3.8.5,1.3.7,1.9.2,0,.3-.1.5-.1.2-1,.4-2,.7-3.2.4-.2.9-.4,1.5-.7.7,0,1.4-.2,1.5.8a12.51,12.51,0,0,0,.3,1.9,9.14,9.14,0,0,0,.7,1.4c.2,0,.4-.1.6-.1-.1-1.3-.2-2.5-.2-3.8-.1-.8-.3-1.5-.4-2.5a2.8,2.8,0,0,1-.6-.1v-1.7c1.9.3,2.1.1,1.7-1.7l-1.8,1.2c-1.2.1-1.7-.5-1.6-1.6-.5-.3-.9-.5-1.3-.7v-1.4c-.6,0-1-.1-1.4-.1-.1-.2-.1-.4-.2-.6.2-.2.5-.4.7-.6l-.2-.2A9.67,9.67,0,0,0,14.91,10.35ZM20.21,7l-.1-.1a.1.1,0,0,0,.1.1c.3,1.4-.9,1.1-1.7,1.3a10.42,10.42,0,0,0,.1,1.1c-.6.6-1.3.9-1.3,1.4s.5,1,.7,1.5c.1,0,.3-.1.4-.1a5.48,5.48,0,0,1,.4-1.2c.5-.1,1.2,0,1.3-.2a13.56,13.56,0,0,0,.6-2.9C20.81,7.65,20.41,7.35,20.21,7Zm-5.7.7c-.7-.3-1.1-.7-1.4-.6a2.13,2.13,0,0,0-1,.9s.5.7.6.7A20.12,20.12,0,0,0,14.51,7.75Zm3.3,15.7h.6c.2-.5.4-1,.8-1.9-.7.1-1.2.1-1.7.2C17.61,22.25,17.71,22.85,17.81,23.45Zm-.2-14.5c.2-.3.5-.6.5-.8s-.3-.3-.5-.5a2.65,2.65,0,0,0-.5.6C17.11,8.45,17.41,8.65,17.61,8.95Z" transform="translate(-0.7 -1.25)"/><path class="cls-2" d="M5.71,10c0,.1,0,.1-.1.2l-.6.9H5q-.45,1.35-.9,2.4c.3.6.9,1.2.8,1.5-.2.6-.9.9-1.3,1.3.1.8.2,1.7.4,2.8.9.3,2.1.7,2.2,2.3,0,.1.2.3.4.4,1.1,1.1,2.4,1,3.7.7a.6.6,0,0,0,.1.4c-.4,1.5.9.9,1.5,1.3a11.15,11.15,0,0,0,1.3,2.4c.1.2,1.1-.4,1.7-.6q.3.45.9,1.2a18.19,18.19,0,0,1,.8-1.9h.7c.2.2.5.4.7.6h.4v.7c-.5,0-.9.1-1.6.1-.2.3-.6.9-1,1.6-.4-.4-.7-.9-1.2-1.4-.2.7-.5,1.4-.8,2.5-.5-.3-1.1-.5-1.2-.8a4.59,4.59,0,0,0-1.7-2.8c-.2-.1-.1-.5-.1-.9-.4.1-.8.2-1.3.3,0-.5-.1-.9-.1-1.5h-3c-.1,0-.4-.2-.4-.4-.8-2.7-1.1-2.8-3.3-3.7-1.7-.7.2-1.1.3-1.6-.7-.6-1.4-1.1-2.3-1.9,1.3-.4,2.4-.6,3.2-.9-.6-.7-1.2-1.5-1.9-2.3a9.12,9.12,0,0,0,1.6-.6l.3-1.8c-.4-.3-.9-.6-1.4-1,.1-.1.1-.3.2-.4.7,0,1.4.1,2,.1V7.45c-.1-.1-.6-.5-1-.8v-.4c.7-.1,1.4-.3,2.3-.4A3.09,3.09,0,0,0,6.2,5c.8-.1,1.4-.2,1.9-.3,0-.1.1-.3.1-.4l.1-.1c.4.1.9.1,1.3.2l-.3.3c-.1.1-.3.2-.4.3.1,1.5-1.1.7-1.7.9L7,5.75c0,.1-.1.1-.1.2-.5.4-.9.8-1.4,1.2.1.8.1,1.7.2,2.5h0C5.81,9.85,5.81,9.95,5.71,10Z" transform="translate(-0.7 -1.25)"/><path class="cls-2" d="M23.11,20.45c.2-.1.3-.2.5-.3a1.4,1.4,0,0,0,1.2-1.8h0c.5.1,1,.2,1.4.3.5-.9,1-1.8-.2-2.5-.1,0,0-.3,0-.4.5-1.1.5-2-.5-2.4a4.69,4.69,0,0,0,.1-2c-.2-.4-1-1-1.4,0-.3,0-.6.1-.9.1h0v-1.3a10,10,0,0,0,1-2.1,3.07,3.07,0,0,0-.4-1.5,3.38,3.38,0,0,1-1,.4c-.8-.9-1.7-1.8-2.5-2.7-.2-1-.5-2-1.8-2,.3-.4.6-.9.7-1a4.93,4.93,0,0,1,1.8.5,1.21,1.21,0,0,1,.3,1c-.3,1,.2,1.4,1.1,1.5l.9.9c1.3-.4,2.1.1,2.1,1.4,0,.9,1.2,2.2-.6,2.8a3.38,3.38,0,0,0-1.1.7,4.35,4.35,0,0,1,.4.7c.9-.3,1.8-.7,2.7-1a2.88,2.88,0,0,1,1.3.1l-.6.9c-.1.1-.3.2-.5.4.2.3.4.5.7.9-.3.3-.7.6-1.1,1,.3.7.7,1.4,1.1,2.2a9,9,0,0,0-.9,1c.9.3,1.7.6,2.6.9,0,1.7-1.6.4-2.2,1.3,0,.3.1.8.1,1.3h-1.8c-.1,1.4-.1,1.4-1.6,1a9.14,9.14,0,0,1-.7,1.4c-.1-.3-.2-.5-.3-.8A2.22,2.22,0,0,0,23.11,20.45Z" transform="translate(-0.7 -1.25)"/><path class="cls-3" d="M18.41,26.65v-.7l1.7-.3a9.77,9.77,0,0,1,2.3-.6c1.3,0,2.3-.2,2.3-1.7,0-.2.3-.4.4-.6a24.26,24.26,0,0,1,1.4,2c-1.2.7-2.2,1.3-3.3,1.9,0,.1.1.3.1.4a13.39,13.39,0,0,0-1.2-.6v2c-.7-.6-1.2-1.1-1.7-1.5C19.81,27.65,19.11,27.85,18.41,26.65Z" transform="translate(-0.7 -1.25)"/><path class="cls-4" d="M18.71,2.45c1.3,0,1.6.9,1.8,2-.6-.2-1.3-.3-1.9-.5a6.39,6.39,0,0,1-1.9-.8c-1.5.3-2.5,2-4.5,1.6a3.92,3.92,0,0,1,1-.8c.4-.3.8-.5,1.2-.8.2-.1.5-.1.6-.3,1.1-1.3,1.3-1.3,2.4-.1C18,3.35,18.41,2.85,18.71,2.45Z" transform="translate(-0.7 -1.25)"/><path class="cls-5" d="M14.41,3c-.4.3-.8.5-1.2.8a8.75,8.75,0,0,1-1,.8h0a2.65,2.65,0,0,0-.5.6,16.67,16.67,0,0,0-2-.8c-.4-.1-.9-.1-1.3-.2.8-.3,1.7-1.3,2.4.1a.85.85,0,0,0,.7,0C12.11,3.15,13.41,3.45,14.41,3Z" transform="translate(-0.7 -1.25)"/><path class="cls-6" d="M23.41,5.35l-.9-.9a10.63,10.63,0,0,1,.9-1.1l.4.2c-.1.4-.3.8-.4,1.2Z" transform="translate(-0.7 -1.25)"/><path class="cls-5" d="M8.41,4.35c0,.1-.1.3-.1.4A.6.6,0,0,1,8.41,4.35Z" transform="translate(-0.7 -1.25)"/><path class="cls-7" d="M15.41,10.65c.1.2.1.4.2.6a11.32,11.32,0,0,0-1,1.3c.4.3,1,.7,1.5,1.1a7,7,0,0,1,1-.8c.4.2.9.5,1.3.7-.1,1.2.4,1.7,1.6,1.6,0,.2.1.4.1.6v1.7a1.45,1.45,0,0,1,.6.1c.1.9.3,1.7.4,2.5-.2.8-.6,1.1-1.4.7-.1-1-.8-.8-1.5-.8-.2-.1-.3-.2-.5-.3a10.91,10.91,0,0,0,1.1-.6c.6-.4.9-.8,0-1.2-.3-.3-.8-.6-1-1a9,9,0,0,1-.5-1.9c-.8.2-1.2.4-1.6.5a.37.37,0,0,1-.3-.1l.2.2a11.73,11.73,0,0,0,.5,1.1,6.12,6.12,0,0,1,.5,1.2c.1.3.1.5.2.8-.2.3-.3.6-.5.9a.9.9,0,0,0-.5.1c-.6-.1-1.3-.3-1.9-.4,0-.3.1-.6.1-.8a13,13,0,0,0,.6-1.2,10,10,0,0,0-1.1.4c-.1-1.4-.3-2.7-.4-4,.1-.3.4-.8.3-1a2.38,2.38,0,0,0-1.1-.6,15.69,15.69,0,0,0-1.6-.3c.9-1.1,1.3-2.1,2.3-.9.4-.5.8-1,1.1-1.4a10.63,10.63,0,0,0,.9,1.1h0C15.11,10.45,15.21,10.55,15.41,10.65Zm-.2,7.6c.1,0,.2.1.3.1,0-.4.1-.8.1-1.1-.1-1.1-1.2-2.1-.5-3.4.1-.1-.2-.6-.4-.6s-.6.1-.7.3a2.05,2.05,0,0,0,0,1.1Z" transform="translate(-0.7 -1.25)"/><path class="cls-8" d="M10.31,22.65c-1.4.3-2.7.4-3.7-.7-.1-.1-.4-.3-.4-.4-.1-1.6-1.3-2-2.2-2.3-.1-1.1-.3-2.1-.4-2.8.4-.4,1-.7,1.3-1.3.1-.3-.5-.9-.8-1.5.2-.7.6-1.5.9-2.4a21.05,21.05,0,0,0,.2,2.5,3.85,3.85,0,0,0,1.3,1.6c-.1.8.5,2.3-1.5,2.2-.1.4-.2.9-.3,1.3,1,.1,1.9.3,2.8.4-.5,1.5-.2,2,1.1,2.3A3.86,3.86,0,0,1,10.31,22.65Z" transform="translate(-0.7 -1.25)"/><path class="cls-9" d="M13,13.45c.1,1.3.3,2.6.4,4a10,10,0,0,1,1.1-.4,13,13,0,0,1-.6,1.2h-1.3c-1.4-.3-2.3-.9-2.1-2.9-.4.7-.7,1.1-.9,1.4-.1-.5-.2-1.1-.3-1.6.1.1.3.1.4.2a13.45,13.45,0,0,0,1.1-1.4C11.51,13.25,12.11,12.55,13,13.45Z" transform="translate(-0.7 -1.25)"/><path class="cls-9" d="M15.81,19.45c.2,0,.3,0,.4-.1h1.5c.2.1.3.2.5.3-.6.3-1.1.5-1.5.7-.2,1.1-.5,2.1-.7,3.2-.2,0-.3.1-.5.1-.2-.5-.4-1.1-.7-1.9-.5-.1-1.3-.9-2.2.3-.1.2-1-.1-1.5-.3-.3-.1-.5-.5-.9-.8a5.58,5.58,0,0,1,.5-.8,10.9,10.9,0,0,0-.6-1.1h1.8c-.1.7-.3,1.4-.4,2.2a1.76,1.76,0,0,0,.9-1l.9-1.2c0,1,.1,2,1.3,2C15.11,21,15.51,19.95,15.81,19.45Z" transform="translate(-0.7 -1.25)"/><path class="cls-8" d="M9.71,4.45a16.67,16.67,0,0,0,2,.8H12a4.18,4.18,0,0,1-1.2.8c-1.3.3-2.7.5-3.7.7-.1,1.1-.2,1.9-.3,2.8h-.9c-.1-.9-.1-1.7-.2-2.5a17.41,17.41,0,0,1,1.4-1.2h.2c.6-.2,1.8.6,1.7-.9.1-.1.3-.2.4-.3S9.61,4.55,9.71,4.45Z" transform="translate(-0.7 -1.25)"/><path class="cls-10" d="M20.21,7c.2.3.6.6.5.8a13.56,13.56,0,0,1-.6,2.9c-.1.2-.7.1-1.3.2-.1.2-.2.7-.4,1.2-.1,0-.3.1-.4.1-.3-.5-.8-1-.7-1.5s.7-.8,1.3-1.4a5.94,5.94,0,0,0-.1-1.1c.8-.1,2,.3,1.7-1.2Z" transform="translate(-0.7 -1.25)"/><path class="cls-8" d="M26.11,15.85v.4c1.2.7.7,1.6.2,2.5-.4-.1-.9-.2-1.4-.3l-.1-.1a.1.1,0,0,1,.1.1c.2,1-.3,1.5-1.2,1.8v-.1c-1-1.2-.9-2,.8-2.5C25.11,17.35,25.61,16.45,26.11,15.85Z" transform="translate(-0.7 -1.25)"/><path class="cls-11" d="M6.81,9.75c.8,0,1.7.1,1.7,1.3H7.11a4.87,4.87,0,0,1,.4,1.1c-.3.2-.6.4-1.3.9H8l.3.3c-.3.3-.7,1-1,.9s-.9-.5-1.1-.9c-.8-1.3.4-2.4.6-3.6Z" transform="translate(-0.7 -1.25)"/><path class="cls-7" d="M12.11,19h-1.8c-.1-.2-.1-.4-.2-.6s-.3-.4-.5-.6c.1-.4.1-.8.2-1.1s.4-.7.9-1.4c-.1,2,.8,2.6,2.1,2.9A2.7,2.7,0,0,0,12.11,19Z" transform="translate(-0.7 -1.25)"/><path class="cls-9" d="M9.51,17.85c.2.2.3.4.5.6-.5.2-1,.3-1.4.5a8.31,8.31,0,0,1-1.3-1.4,1.71,1.71,0,0,1,0-1.4c0-.2.5-.3.8-.5a3.08,3.08,0,0,1,.5,1.2C8.51,17.55,8.61,18,9.51,17.85Z" transform="translate(-0.7 -1.25)"/><path class="cls-10" d="M19.71,20.45c.8.4,1.2.1,1.4-.7.1,1.3.2,2.5.2,3.8-.2,0-.4.1-.6.1a6.11,6.11,0,0,1-.7-1.4A4.84,4.84,0,0,1,19.71,20.45Z" transform="translate(-0.7 -1.25)"/><path class="cls-9" d="M16.91,12.65a8.75,8.75,0,0,1-1,.8c-.5-.4-1-.7-1.5-1.1a14.7,14.7,0,0,0,1-1.3,7.6,7.6,0,0,1,1.4.1A8.64,8.64,0,0,1,16.91,12.65Z" transform="translate(-0.7 -1.25)"/><path class="cls-8" d="M11.91,24.35c-.6-.4-1.9.2-1.5-1.3a10.55,10.55,0,0,1,2.5.2c.3,0,.4.5.7.8l-.3.3A6.48,6.48,0,0,0,11.91,24.35Z" transform="translate(-0.7 -1.25)"/><path class="cls-12" d="M20,15.65c0-.2-.1-.4-.1-.6.6-.4,1.1-.7,1.8-1.2C22,15.75,21.91,15.95,20,15.65Z" transform="translate(-0.7 -1.25)"/><path class="cls-10" d="M14.51,7.75a20.12,20.12,0,0,1-1.8,1,2,2,0,0,1-.6-.7,4.3,4.3,0,0,1,1-.9C13.41,7,13.81,7.45,14.51,7.75Z" transform="translate(-0.7 -1.25)"/><path class="cls-9" d="M17.81,23.45a10.46,10.46,0,0,0-.4-1.7c.5-.1,1-.1,1.7-.2-.4.9-.6,1.4-.8,1.9Z" transform="translate(-0.7 -1.25)"/><path class="cls-8" d="M23.41,11.55c.3,0,.6-.1.9-.1-.1.8-.2,1.7-.3,2.4h-1.2C23,13,23.21,12.25,23.41,11.55Z" transform="translate(-0.7 -1.25)"/><path class="cls-13" d="M13.21,24.25l.3-.3c.3-.1.5-.1.8-.2.1.1.2.2.2.3-.3.5-.7.9-1,1.4-.1-.1-.3-.1-.4-.2A3.4,3.4,0,0,1,13.21,24.25Z" transform="translate(-0.7 -1.25)"/><path class="cls-10" d="M17.61,8.95c-.2-.3-.5-.5-.5-.7s.3-.4.5-.6c.2.2.5.3.5.5A1.46,1.46,0,0,1,17.61,8.95Z" transform="translate(-0.7 -1.25)"/><path class="cls-9" d="M14.91,10.35a10.63,10.63,0,0,0-.9-1.1C14.91,8.85,15,8.95,14.91,10.35Z" transform="translate(-0.7 -1.25)"/><path class="cls-8" d="M23.41,10.25v1.3c-.2-.3-.5-.6-.7-.9A1.61,1.61,0,0,1,23.41,10.25Z" transform="translate(-0.7 -1.25)"/><path class="cls-9" d="M15.41,10.65c-.1-.1-.3-.2-.4-.3l.9-.6.2.2Z" transform="translate(-0.7 -1.25)"/><path class="cls-8" d="M5,11.15l.6-.9Z" transform="translate(-0.7 -1.25)"/><path class="cls-3" d="M18,26c-.2-.2-.5-.4-.7-.6A4.35,4.35,0,0,1,18,26Z" transform="translate(-0.7 -1.25)"/><path class="cls-3" d="M17.41,25.45h-.7c.1-.2.3-.3.4-.5C17.21,25.15,17.31,25.25,17.41,25.45Z" transform="translate(-0.7 -1.25)"/><path class="cls-4" d="M12,5.35h-.3a2.65,2.65,0,0,0,.5-.6A1.42,1.42,0,0,1,12,5.35Z" transform="translate(-0.7 -1.25)"/><path class="cls-8" d="M23.11,20.45a3.75,3.75,0,0,1-.1,1A3.08,3.08,0,0,0,23.11,20.45Z" transform="translate(-0.7 -1.25)"/><path class="cls-8" d="M5.71,10a1.38,1.38,0,0,0,.3-.4C5.81,9.85,5.81,9.95,5.71,10Z" transform="translate(-0.7 -1.25)"/><path class="cls-10" d="M20.21,7a.1.1,0,0,1-.1-.1.1.1,0,0,0,.1.1Z" transform="translate(-0.7 -1.25)"/><path class="cls-4" d="M9.41,4.75c-.1.1-.3.2-.4.3A1.38,1.38,0,0,0,9.41,4.75Z" transform="translate(-0.7 -1.25)"/><path class="cls-4" d="M7.41,5.95h-.2c0-.1.1-.1.1-.2C7.31,5.85,7.31,5.85,7.41,5.95Z" transform="translate(-0.7 -1.25)"/><path class="cls-14" d="M16.71,18.45c-.1-.3-.1-.6-.2-.8a6.12,6.12,0,0,1-.5-1.2,11.73,11.73,0,0,0-.5-1.1l.1-.1c.4-.1.9-.3,1.6-.5a9,9,0,0,0,.5,1.9,3.18,3.18,0,0,0,1,1,8.26,8.26,0,0,1-1.3.7A1.48,1.48,0,0,1,16.71,18.45Z" transform="translate(-0.7 -1.25)"/><path class="cls-15" d="M15.21,18.25c-.4-1.2-.9-2.3-1.2-3.5a2.05,2.05,0,0,1,0-1.1c.1-.2.5-.3.7-.3s.5.5.4.6c-.7,1.3.3,2.2.5,3.4a4.1,4.1,0,0,1-.1,1.1C15.41,18.35,15.31,18.25,15.21,18.25Z" transform="translate(-0.7 -1.25)"/><path class="cls-1" d="M15.81,19.45c-.3.6-.6,1.6-1,1.6-1.2,0-1.3-1-1.3-2h.3A14.16,14.16,0,0,1,15.81,19.45Z" transform="translate(-0.7 -1.25)"/><path class="cls-1" d="M16.71,18.45a2.2,2.2,0,0,0,.8-.1c.4-.2.9-.5,1.3-.7.9.4.6.8,0,1.2-.4.2-.7.4-1.1.6h-1.5A9.29,9.29,0,0,1,16.71,18.45Z" transform="translate(-0.7 -1.25)"/><path class="cls-14" d="M13.91,19h-.3a9.38,9.38,0,0,0-.9,1.2c-.3.4-.5.8-.9,1,.1-.7.3-1.4.4-2.2l.6-.9h1.3A1.49,1.49,0,0,0,13.91,19Z" transform="translate(-0.7 -1.25)"/><path class="cls-14" d="M15.51,15.25l-.2-.2a.37.37,0,0,1,.3.1C15.61,15.25,15.61,15.25,15.51,15.25Z" transform="translate(-0.7 -1.25)"/><path class="cls-2" d="M24.91,18.45a.1.1,0,0,1-.1-.1c0,.1,0,.1.1.1Z" transform="translate(-0.7 -1.25)"/></g></svg>