<svg id="Calque_1" data-name="Calque 1" xmlns="http://www.w3.org/2000/svg" viewBox="0 0 10.9 11.56"><defs><style>.cls-1{fill:#de3617;}.cls-2{fill:#6a2a24;}.cls-3{fill:#81221d;}.cls-4{fill:#585252;}.cls-5{fill:#5a4541;}.cls-6{fill:#5d312b;}.cls-7{fill:#f7d905;}.cls-8{fill:#e64c16;}.cls-9{fill:#f9ce00;}.cls-10{fill:#ef790c;}.cls-11{fill:#f28d05;}.cls-12{fill:#f8b909;}.cls-13{fill:#eb650f;}.cls-14{fill:#f6a307;}.cls-15{fill:#d32b17;}.cls-16{fill:#9c201a;}.cls-17{fill:#b31f1a;}.cls-18{fill:#faf090;}</style></defs><title>boom4</title><g id="Calque_1-2" data-name="Calque 1"><path class="cls-1" d="M14.51,20h-.2l-.2.2c-.2.3-.4.2-.5-.1s-.3-.6-.5-.9l.3-.3c-.6.2-.8-.1-.8-.5-1,.2-1.6-.2-1.5-1-.4-.2-.7-.4-1.1-.6.1-.1.2-.3.4-.5-.2-.2-.4-.3-.6-.5.6,0,.8-.2.9-.7a2.19,2.19,0,0,0-.5-.3c.4-.8.7-1.5,1.1-2.3a1.09,1.09,0,0,1-.5-.1c.1-.1.2-.3.3-.3.4-.2,1.1,0,1.3-.7h.4l.6.3c.1.4-.2.4-.5.4-.1,0-.2.2-.3.3l.1.1c.2-.1.3-.1.5-.2a.1.1,0,0,0,.1.1l-.6.3a1.42,1.42,0,0,1-.6.2c0,.1,0,.1.1.2s.4-.1.6-.1.6-.3.9-.1c0-.1,0-.1.1-.2h.3c-.1.1-.1.3-.2.4h-.2a2,2,0,0,0-.8.4v.2a1.42,1.42,0,0,0,.6.2h.2c-.2.2-.4.5-.6.7-.5-.1-.6.3-.7.6a.6.6,0,0,0-.4.1.76.76,0,0,0-.2.5c0,.1.2.2.3.3a2,2,0,0,0,.1.7c.2-.2.4-.3.5-.4.1.1.2.2.2.3a.1.1,0,0,1-.1.1c.1,0,.1,0,.2-.1h.2l-.3.6c.4.2.7.4,1.1.6.1-.2.1-.4.2-.4h.7c.2.7-.6.8-.7,1.4a10.54,10.54,0,0,0,1.1-.7,1.69,1.69,0,0,0,.2-.5h.2a8.11,8.11,0,0,1,.3,1.1c.1-.4.2-.7.3-1h.3c0,.1.1.1.1.2s.1.3.2.5c.1,0,.2-.1.3-.1.1-.4.1-.8.2-1.2.1-.1.4-.2.4-.4a3.71,3.71,0,0,0-.2-.9,2.25,2.25,0,0,1,.5-.5h-.4a4.35,4.35,0,0,0,.4-.7.75.75,0,0,1-.5-.1,1.27,1.27,0,0,0-.6.1c-.2-.1-.4-.3-.6-.4s-.5-.1-.7-.2V14a.37.37,0,0,1,.3.1c.4,0,.8.1.8-.5,0-.1,0-.2.1-.2l.1-.1c-.1,0-.1,0-.2-.1v-.4c.1,0,.2-.1.4-.1s.7-.1.5.5c-.1.1-.5-.2-.3.3-.1.1-.1.2-.2.3h-.1l-.1.1c.1.1.2.1.2.2a.35.35,0,0,1,.2.1c-.1.1-.1.2-.2.2.3-.1.7.1.5-.5a4.33,4.33,0,0,0-.1-.5h.1l.1-.1h.4c0,.1.1.3.1.4.5-.4.8-.2,1.1.3a1.76,1.76,0,0,0-.4.5c.4.2.5.4.3.9a.37.37,0,0,1-.1.3h.5a4.88,4.88,0,0,0-.3.7h-.7c-.1,0-.2.1-.4.1s-.4.1-.6.1v.1l.6.3c-.1.1-.2.2-.3.2h-.1c0,.1-.1.2-.1.4a.1.1,0,0,1,.1.1c.2.2.4.3.6.5,0,.5-.1.9-.7.8-.1-.1-.1-.2-.2-.3l-.1.1c.1.1.2.1.3.2v.1c-.3,0-.5.1-.8.1h0a1.42,1.42,0,0,1-.6.2v.1H16c-.1,0-.2-.1-.4-.1s-.2-.1-.2-.2h0l-.2-.2c0,.1-.1.1-.1.2l-.2.2C15.21,20.35,14.81,20.15,14.51,20Zm-2.9-6.5-.4.2c-.4.2-.2.6-.1.9s.2.5.3.5a2.12,2.12,0,0,0,.7-.3c.1,0,.1-.2.2-.3a.1.1,0,0,0-.1.1A2,2,0,0,1,11.61,13.55Zm.2-.8H12c0-.1-.1-.2-.1-.3h-.1Z" transform="translate(-9.41 -9.55)"/><path class="cls-2" d="M10.91,12.55a.75.75,0,0,1,.5.1c-.3.7-.7,1.5-1.1,2.3.2.1.3.2.5.3-.1.5-.3.7-.9.7.2.2.4.3.6.5-.1.2-.3.3-.4.5a10.91,10.91,0,0,1,1.1.6c-.1.7.5,1.1,1.5,1,0,.4.2.7.8.5l-.3.3a4.05,4.05,0,0,1,.5.9c.1.3.3.4.5.1V21c-.5.2-.6-.1-.7-.5a.52.52,0,0,0-.2-.4l-.3.3-.3.3-.1-.1a1.7,1.7,0,0,1,.1-.7l.3-.6c-.2,0-.3.1-.4.1-.2-.6-.2-.6-1.2-.6a3.51,3.51,0,0,1-.5-.8c0-.1-.1-.3-.1-.4a3.13,3.13,0,0,1-1-.5c-.1,0,.1-.4.1-.5a2.65,2.65,0,0,0-.5-.6s.1-.3.3-.3a2.2,2.2,0,0,1,.8-.1,5.5,5.5,0,0,0-.7-.9l.6-.3v-.6c-.1-.1-.3-.2-.5-.4v-.2a2.49,2.49,0,0,0,.8-.1c0-.2.1-.4.1-.6S10.81,12.45,10.91,12.55Z" transform="translate(-9.41 -9.55)"/><path class="cls-3" d="M10.91,12.55h-.2l-.5-.5c.4-.1.6-.1.9-.2a1.09,1.09,0,0,1,.1-.5l.6.3c.3-.7.7-.7,1.2-.4a7.6,7.6,0,0,1,1.1-.4,2,2,0,0,0,1-1c.1-.1.2-.1.3-.2,0,.3-.1.7-.1,1-.2.1-.3.1-.5.2s-.5.1-.6.3c-.3.3-1,0-.9.8h0l-.6-.3c-.1,0-.4-.1-.4,0-.2.6-.9.4-1.3.7C11,12.25,10.91,12.35,10.91,12.55Z" transform="translate(-9.41 -9.55)"/><path class="cls-2" d="M16,10.55c.2-.3.3-.9.8-.2a.6.6,0,0,0,.4.1v.9a5.9,5.9,0,0,1,.8-.4l.1.1c-.1.2-.1.4-.2.5.2.1.5.1.7.2-.1.6.6,1.4-.6,1.7h0v-.3a3.55,3.55,0,0,0,.2-1c0-.1-.4-.1-.6-.2a8.74,8.74,0,0,0-1-.8c-.2-.2-.2-.7-.7-.5Z" transform="translate(-9.41 -9.55)"/><path class="cls-2" d="M14.51,20c.3.1.7.3.5-.4,0-.1.1-.1.2-.2h.2c.1.1.2.1.2.2s.2.1.4.1.3.4.4,0v-.1a1.42,1.42,0,0,1,.6-.2h0c.3,0,.5-.1.8-.1v-.1h0c.6.1.7-.3.7-.8a3,3,0,0,1,.5.7c-.5.3-.9.5-1.2.7V20c-.1-.1-.3-.1-.5-.2a1.27,1.27,0,0,1-.1.6,6.13,6.13,0,0,0-.6-.4c-.6.5-1-.3-1.3-.2-.2.3-.4.5-.5.7A2.19,2.19,0,0,1,14.51,20Z" transform="translate(-9.41 -9.55)"/><path class="cls-2" d="M19.21,15.95h-.3a.37.37,0,0,1,.1-.3c.2-.5.1-.7-.3-.9a2.18,2.18,0,0,0,.4-.5c-.3-.5-.6-.7-1.1-.3,0-.2-.1-.3-.1-.4l.1-.1h.1c.2.5.5.2.7.1l.9-.3a.1.1,0,0,0,.1.1c-.2.4-.4.8-.6,1.3a5.9,5.9,0,0,0,.4.8C19.51,15.65,19.31,15.75,19.21,15.95Z" transform="translate(-9.41 -9.55)"/><path class="cls-4" d="M10.71,17.55c0,.1.1.3.1.4a1,1,0,0,0-.3.1c-.2.5-.5.3-.8.3,0-.4.3-.5.7-.5C10.51,17.85,10.71,17.85,10.71,17.55Z" transform="translate(-9.41 -9.55)"/><path class="cls-5" d="M18,17.55h0c.2-.1.3-.2.5-.2l.1-.1a1.45,1.45,0,0,1,.7-.2c-.1-.1-.1-.2-.2-.3h.5v.5c-.5.3-1,.5-1.5.8h0A1.34,1.34,0,0,1,18,17.55Z" transform="translate(-9.41 -9.55)"/><path class="cls-6" d="M19.51,16.65h-.3a4.88,4.88,0,0,0,.3-.7.9.9,0,0,1,.5.1l.3.3a.76.76,0,0,1-.4.2A.76.76,0,0,1,19.51,16.65Z" transform="translate(-9.41 -9.55)"/><path class="cls-5" d="M12.61,9.65c.6.1.8.5.4,1.2A3.37,3.37,0,0,0,12.61,9.65Z" transform="translate(-9.41 -9.55)"/><path class="cls-2" d="M15.31,10.55c0-.3.1-.7.1-1a2.2,2.2,0,0,0,.1.8c0,.1.2.1.4.2l.1.1c-.1.1-.2.3-.3.3S15.51,10.65,15.31,10.55Z" transform="translate(-9.41 -9.55)"/><path class="cls-2" d="M14.31,20Z" transform="translate(-9.41 -9.55)"/><path class="cls-5" d="M18,17.95a.1.1,0,0,1-.1-.1l.1.1Z" transform="translate(-9.41 -9.55)"/><path class="cls-7" d="M16.51,18.45c0-.1-.1-.1-.1-.2.4-.2.3-.5,0-.7a6.89,6.89,0,0,0-.8-.3v-.3a.35.35,0,0,0,.2-.1h.1l.3-.3c0-.1-.1-.1-.1-.2a5.36,5.36,0,0,0-1.1.5c.1.2.2.3.2.4v.2c-.1,0-.1.1-.2.1h-.2c.1-.7-.4-.5-.8-.6.1-.2.1-.3.2-.5v-.2h-.5c0-.1-.1-.2-.1-.3a1.38,1.38,0,0,0,.4-.3,2.09,2.09,0,0,1-.4-.6c.2-.1.3-.3.5-.4a12.44,12.44,0,0,0,.4,1.6c0,.2.1.3.1.4h.2v-.5a.76.76,0,0,1,.2-.4c.1.2.2.3.3.5a4.23,4.23,0,0,0,.5-.7,1.76,1.76,0,0,0-.5-.4c-.1.2-.2.3-.3.5a.62.62,0,0,1-.3-1h-.6c-.2-.2-.4-.3-.6-.5h0l-.1-.1v.1a1.42,1.42,0,0,0-.6-.2v-.2a2,2,0,0,0,.8-.4l.2.2v-.2c.1-.1.1-.3.2-.4h0a.37.37,0,0,1,.3.1,2.09,2.09,0,0,0,.4.6c.2.1.3.3.6.4a.49.49,0,0,1-.1.3c.1,0,.2.1.3.1s.5.1.7.2c-.1.1-.2.3-.3.4a1.38,1.38,0,0,1,.3.4c.2-.2.4-.3.5-.4a1.27,1.27,0,0,0,.6-.1c-.1.2-.2.5-.4.6-.4.1-.4.4-.4.7H17a1.69,1.69,0,0,0-.2.5,6.89,6.89,0,0,0,.3.8c-.1.4-.1.8-.2,1.2A1.38,1.38,0,0,0,16.51,18.45Zm-1.7-4.3Z" transform="translate(-9.41 -9.55)"/><path class="cls-8" d="M15.41,14.45c-.1,0-.2-.1-.3-.1a1,1,0,0,1,.1-.3,2.09,2.09,0,0,0-.6-.4c.1-.1.2-.1.4-.2a5.74,5.74,0,0,0-.7-.4.37.37,0,0,1-.3-.1,4.88,4.88,0,0,0,.3-.7c-.3-.1-.6.2-.8-.1h0v.1a1.42,1.42,0,0,1,.2.6c0,.1,0,.1-.1.2-.3-.3-.6.1-.9.1,0-.1-.1-.2-.1-.3l.6-.3a.1.1,0,0,0-.1-.1c-.2.1-.3.1-.5.2l-.1-.1c.1-.1.2-.3.3-.3.3,0,.6,0,.5-.4h0c.1-.1.2-.3.3-.3.4.1.7-.2,1.1-.3a.76.76,0,0,0-.2.4.35.35,0,0,0,.1.2h.2l.6-.6h.5c0,.4.3.3.5.4s.1.2.2.3c-.3,0-.5-.1-.8-.1,0,.1,0,.1-.1.2a.57.57,0,0,1,.5.8h-.3c-.1-.1-.2-.3-.4-.3a.6.6,0,0,0-.4.1c0,.2.1.3.2.5s.2,0,.4,0v.4c-.8-.1-.4.4-.4.7C15.51,14.35,15.51,14.45,15.41,14.45Z" transform="translate(-9.41 -9.55)"/><path class="cls-9" d="M14.11,14.65c-.2.1-.3.3-.5.4s-.1.4-.2.6c-.3.5-.1.6.4.6h.5v.2c-.3.2-.5.3-.8.5s-.3.1-.5.2h-.2l-.1-.1c-.1-.1-.2-.2-.2-.3a4.07,4.07,0,0,1,.5-1.8c.2-.2.4-.5.6-.7a2.18,2.18,0,0,0,.5.4Z" transform="translate(-9.41 -9.55)"/><path class="cls-10" d="M17.11,17.55a4.12,4.12,0,0,1-.3-.8,1.69,1.69,0,0,1,.2-.5h-.5c0-.3,0-.6.4-.7.2,0,.3-.4.4-.6a1.09,1.09,0,0,1,.5.1,5.74,5.74,0,0,0-.4.7h.4l-.5.5a5.07,5.07,0,0,1,.2.9C17.51,17.35,17.21,17.45,17.11,17.55Z" transform="translate(-9.41 -9.55)"/><path class="cls-11" d="M11.61,13.55a11.73,11.73,0,0,0,.5,1.1.1.1,0,0,0,.1-.1c-.1.1-.1.2-.2.3a1.49,1.49,0,0,1-.7.3c-.1,0-.3-.3-.3-.5s-.3-.7.1-.9A1.69,1.69,0,0,1,11.61,13.55Z" transform="translate(-9.41 -9.55)"/><path class="cls-12" d="M12.91,17.15c.2-.1.3-.1.5-.2-.1.3-.1.5-.2.8a.1.1,0,0,1,.1.1l.3-.6.4-.4q-.15.6.6.9v.1h-.7c0,.1-.1.2-.2.4-.4-.2-.7-.4-1.1-.6A2.19,2.19,0,0,0,12.91,17.15Z" transform="translate(-9.41 -9.55)"/><path class="cls-9" d="M14.61,17.95v-.1l.3-.3h.2c0,.2.1.4.1.6a1.69,1.69,0,0,0-.2.5c-.4.2-.7.5-1.1.7C13.91,18.75,14.81,18.65,14.61,17.95Z" transform="translate(-9.41 -9.55)"/><path class="cls-13" d="M18,13.45h0a.9.9,0,0,1-.5.1h-.1v-.1c.2-.5-.2-.4-.5-.5,0-.2-.1-.4-.1-.7a.35.35,0,0,0,.2-.1c.1.1.2.3.4.4s.3-.1.4-.1a1.42,1.42,0,0,1,.2.6v.1C18.11,13.25,18,13.35,18,13.45Z" transform="translate(-9.41 -9.55)"/><path class="cls-10" d="M12.91,14.95a4.07,4.07,0,0,0-.5,1.8,1.76,1.76,0,0,0-.5.4,1.48,1.48,0,0,0-.1-.7.74.74,0,0,0,.4-.8C12.31,15.25,12.31,14.85,12.91,14.95Z" transform="translate(-9.41 -9.55)"/><path class="cls-10" d="M15.21,18c0-.2-.1-.4-.1-.6.1,0,.1-.1.2-.1s.2-.1.3-.1c.3.1.5.2.8.3s.4.4,0,.7h-.3c-.1-.5-.4-.4-.7-.1C15.31,18.15,15.31,18,15.21,18Z" transform="translate(-9.41 -9.55)"/><path class="cls-9" d="M15.91,13.55v-.4c.1-.1.2-.2.2-.3h.3a.35.35,0,0,0,.1.2v.4c0,.1,0,.1.1.2s0,.2-.1.2a4.33,4.33,0,0,0-.5.1A.6.6,0,0,0,15.91,13.55Z" transform="translate(-9.41 -9.55)"/><path class="cls-11" d="M16.61,13a.35.35,0,0,0-.1-.2c0-.4,0-.8-.5-.8,0-.1,0-.1.1-.2.3,0,.5.1.8.1v.3c0,.2.1.5.1.7C16.81,12.95,16.71,13,16.61,13Z" transform="translate(-9.41 -9.55)"/><path class="cls-9" d="M12.11,15.55c.1.4.1.7-.4.8-.1-.1-.3-.2-.3-.3a.76.76,0,0,1,.2-.5C11.81,15.55,12,15.65,12.11,15.55Z" transform="translate(-9.41 -9.55)"/><path class="cls-12" d="M15.41,18.15c.3-.3.5-.4.7.1-.1.3-.2.6-.3,1C15.61,18.75,15.51,18.45,15.41,18.15Z" transform="translate(-9.41 -9.55)"/><path class="cls-10" d="M16.71,15a2.18,2.18,0,0,0-.5.4,1.38,1.38,0,0,0-.3-.4c.1-.1.2-.3.3-.4A1,1,0,0,0,16.71,15Z" transform="translate(-9.41 -9.55)"/><path class="cls-7" d="M15.91,13.55c0,.2.1.3.1.5s-.2.2-.2.3a.37.37,0,0,1-.3-.1C15.51,13.95,15.11,13.45,15.91,13.55Z" transform="translate(-9.41 -9.55)"/><path class="cls-14" d="M13.51,12.25c.2.3.5,0,.8.1a4.88,4.88,0,0,0-.3.7h-.3a1.42,1.42,0,0,1-.2-.6Z" transform="translate(-9.41 -9.55)"/><path class="cls-15" d="M18.51,17.15l-.1.1h-.1l-.6-.3v-.1c.2,0,.4-.1.6-.1A.76.76,0,0,0,18.51,17.15Z" transform="translate(-9.41 -9.55)"/><path class="cls-9" d="M17.21,14.45a.35.35,0,0,1-.2-.1.37.37,0,0,0-.1-.3c.1-.1.1-.2.2-.3h.3a4.33,4.33,0,0,0,.1.5C17.41,14.25,17.31,14.35,17.21,14.45Z" transform="translate(-9.41 -9.55)"/><path class="cls-16" d="M18.51,17.15c-.1-.2-.2-.3-.3-.5.1,0,.2-.1.4-.1h.5c.1.1.1.2.2.3A1.33,1.33,0,0,1,18.51,17.15Z" transform="translate(-9.41 -9.55)"/><path class="cls-10" d="M12.71,12.85c0,.1.1.2.1.3-.2,0-.4.1-.6.1,0-.1,0-.1-.1-.2A1.42,1.42,0,0,1,12.71,12.85Z" transform="translate(-9.41 -9.55)"/><path class="cls-11" d="M15.81,14.35c.1-.1.2-.2.2-.3a4.33,4.33,0,0,0,.5-.1C16.61,14.45,16.21,14.35,15.81,14.35Z" transform="translate(-9.41 -9.55)"/><path class="cls-10" d="M17.21,14.45c.1-.1.2-.2.3-.2.3.5-.2.4-.5.5C17.11,14.55,17.11,14.45,17.21,14.45Z" transform="translate(-9.41 -9.55)"/><path class="cls-10" d="M16.51,18.45c.1.1.3.2.4.3-.1,0-.2.1-.3.1A.6.6,0,0,0,16.51,18.45Z" transform="translate(-9.41 -9.55)"/><path class="cls-17" d="M17.91,19.35c-.3,0-.5.1-.8.1C17.31,19.45,17.61,19.35,17.91,19.35Z" transform="translate(-9.41 -9.55)"/><path class="cls-17" d="M17.91,19.25c-.1-.1-.2-.1-.3-.2l.1-.1c0,.1.1.2.2.3Z" transform="translate(-9.41 -9.55)"/><path class="cls-17" d="M17.11,19.45a1.42,1.42,0,0,1-.6.2A1.42,1.42,0,0,0,17.11,19.45Z" transform="translate(-9.41 -9.55)"/><path class="cls-10" d="M11.81,12.75v-.3h.1c0,.1.1.2.1.3Z" transform="translate(-9.41 -9.55)"/><path class="cls-11" d="M17.41,13.65h-.3c-.2-.4.2-.2.3-.3v.3Z" transform="translate(-9.41 -9.55)"/><path class="cls-17" d="M16.51,19.85c-.1.4-.3.1-.4,0Z" transform="translate(-9.41 -9.55)"/><path class="cls-16" d="M18,17.85h-.1c0-.1.1-.2.1-.4Z" transform="translate(-9.41 -9.55)"/><path class="cls-16" d="M18.31,17.25h.1c-.1.1-.3.1-.4.2C18.11,17.45,18.21,17.35,18.31,17.25Z" transform="translate(-9.41 -9.55)"/><path class="cls-10" d="M16.91,13.95a.37.37,0,0,0,.1.3c-.1-.1-.2-.1-.2-.2l.1-.1Z" transform="translate(-9.41 -9.55)"/><path class="cls-17" d="M15.71,19.65c-.1-.1-.2-.1-.2-.2A.22.22,0,0,0,15.71,19.65Z" transform="translate(-9.41 -9.55)"/><path class="cls-17" d="M15.51,19.45h-.2c0-.1.1-.1.1-.2C15.41,19.35,15.41,19.45,15.51,19.45Z" transform="translate(-9.41 -9.55)"/><path class="cls-11" d="M16.61,13.65c0-.1,0-.1-.1-.2.1,0,.1,0,.2.1Z" transform="translate(-9.41 -9.55)"/><path class="cls-12" d="M12.61,17c0,.1.1.1,0,0,0,.1,0,.1-.1.1C12.61,17.15,12.61,17.15,12.61,17Z" transform="translate(-9.41 -9.55)"/><path class="cls-8" d="M13.81,13.45v.2l-.2-.2Z" transform="translate(-9.41 -9.55)"/><path class="cls-8" d="M16.81,13.95l-.1.1C16.81,14,16.81,14,16.81,13.95Z" transform="translate(-9.41 -9.55)"/><path class="cls-9" d="M13.41,14.25h0c.1-.1.1,0,.1,0Z" transform="translate(-9.41 -9.55)"/><path class="cls-8" d="M17.41,13.65v-.1h.1A.1.1,0,0,1,17.41,13.65Z" transform="translate(-9.41 -9.55)"/><path class="cls-15" d="M16.81,12.15v-.2c-.1-.1-.1-.3-.2-.3s-.6.1-.5-.4h-.5c-.1-.1-.2-.1-.3-.2l-.3-.3h0c.2-.1.3-.1.5-.2a.32.32,0,0,0,.3.3l.3-.3c.5-.2.5.3.7.5a8.74,8.74,0,0,0,1,.8c.2.1.6.1.6.2a3.55,3.55,0,0,1-.2,1c-.1-.2-.1-.4-.2-.6-.1,0-.3.1-.4.1l-.4-.4Z" transform="translate(-9.41 -9.55)"/><path class="cls-15" d="M14.81,11.25c-.4.1-.7.4-1.1.3-.1,0-.2.2-.3.3-.1-.7.6-.5.9-.8a3.33,3.33,0,0,1,.6-.3h0V11C14.91,11.15,14.81,11.15,14.81,11.25Z" transform="translate(-9.41 -9.55)"/><path class="cls-15" d="M18,13.45c0-.1.1-.2.1-.3v.2A.1.1,0,0,1,18,13.45Z" transform="translate(-9.41 -9.55)"/><path class="cls-18" d="M15,15.75c-.1.1-.1.3-.2.4v.5h-.2a.6.6,0,0,1-.1-.4,12.44,12.44,0,0,0-.4-1.6h.6c-.3.6-.1.9.3,1.1Z" transform="translate(-9.41 -9.55)"/><path class="cls-8" d="M14.91,17.55l-.3.3a.8.8,0,0,1-.6-.9h0C14.41,17,15,16.85,14.91,17.55Z" transform="translate(-9.41 -9.55)"/><path class="cls-8" d="M15,15.75h0a2.19,2.19,0,0,1,.3-.5c.1.1.3.2.5.4a4.23,4.23,0,0,0-.5.7Z" transform="translate(-9.41 -9.55)"/><path class="cls-8" d="M15.81,16.85a.35.35,0,0,0-.2.1.52.52,0,0,1-.4.2c-.1-.1-.1-.3-.2-.4a11.73,11.73,0,0,0,1.1-.5c0,.1.1.1.1.2l-.3.3A.1.1,0,0,1,15.81,16.85Z" transform="translate(-9.41 -9.55)"/><path class="cls-13" d="M13.81,16.25c-.5,0-.7-.1-.4-.6.1-.2.1-.4.2-.6.1.2.3.4.4.6-.1.1-.3.2-.4.3C13.71,16,13.81,16.15,13.81,16.25Z" transform="translate(-9.41 -9.55)"/><path class="cls-13" d="M14.11,16.95h0c-.2.1-.4.2-.4.4l-.3.6a.1.1,0,0,1-.1-.1c.1-.3.1-.5.2-.8.3-.2.5-.3.8-.5A.76.76,0,0,0,14.11,16.95Z" transform="translate(-9.41 -9.55)"/><path class="cls-14" d="M14.31,13a5.74,5.74,0,0,1,.7.4c-.2.1-.3.2-.4.2A.86.86,0,0,0,14.31,13Z" transform="translate(-9.41 -9.55)"/><path class="cls-9" d="M15.21,17.25a.52.52,0,0,1,.4-.2v.3c-.1,0-.2.1-.3.1A.31.31,0,0,1,15.21,17.25Z" transform="translate(-9.41 -9.55)"/><path class="cls-8" d="M14.81,14.15Z" transform="translate(-9.41 -9.55)"/><path class="cls-9" d="M15.81,16.85h0Z" transform="translate(-9.41 -9.55)"/><path class="cls-9" d="M14.81,11.25l.1-.1h.4c.1.1.2.1.3.2l-.6.6h-.2c-.2-.1-.2-.2-.2-.3A.52.52,0,0,1,14.81,11.25Z" transform="translate(-9.41 -9.55)"/><path class="cls-11" d="M16.21,12.85c-.1.1-.2.2-.2.3h-.4c-.1-.1-.1-.3-.2-.5.1,0,.3-.1.4-.1S16,12.65,16.21,12.85Z" transform="translate(-9.41 -9.55)"/><path class="cls-1" d="M13.51,12.25v0Z" transform="translate(-9.41 -9.55)"/><path class="cls-8" d="M16.81,12.15H17a.35.35,0,0,0-.2.1Z" transform="translate(-9.41 -9.55)"/><path class="cls-8" d="M15.21,11h-.4v-.3A1.38,1.38,0,0,1,15.21,11Z" transform="translate(-9.41 -9.55)"/></g></svg>