<svg id="Calque_1" data-name="Calque 1" xmlns="http://www.w3.org/2000/svg" viewBox="0 0 24.4 22.4"><defs><style>.cls-1{fill:#5d312b;}.cls-2{fill:#6a2a24;}.cls-3{fill:#5a4541;}.cls-4{fill:#b31f1a;}.cls-5{fill:#de3617;}.cls-6{fill:#e64c16;}.cls-7{fill:#585252;}.cls-8{fill:#81221d;}.cls-9{fill:#f7d905;}.cls-10{fill:#f28d05;}.cls-11{fill:#f8b909;}.cls-12{fill:#ef790c;}.cls-13{fill:#f6a307;}.cls-14{fill:#f6e000;}.cls-15{fill:#eb650f;}.cls-16{fill:#f8ed70;}.cls-17{fill:#fff;}</style></defs><title>boom2</title><g id="Calque_1-2" data-name="Calque 1"><path class="cls-1" d="M6.41,15.95a1.44,1.44,0,0,1,.3-.2c-.4-.5-.9-1.1-1.4-1.7.5-.2.9-.4,1.2-.5.1-.5.1-.8.2-1.3-.3-.2-.6-.5-1-.8,0-.1.1-.2.1-.3.5,0,.9-.1,1.4-.1a10.34,10.34,0,0,1,.3-1.2c-.3,0-.6-.3-.9-.5.2-1.2,2.1.3,1.7-1.6a7.25,7.25,0,0,1,1.2.5c.7-1.2,1.2-1.3,2.5-.7,1.1-.5,2.1-.9,3-1.3l.2.2.1.1-.9.6a15.05,15.05,0,0,1-2.2,1.1c0,.1.1.2.1.3-.4,0-.8-.1-1.2-.1,0-.2-.1-.5-.1-.7l-.3-.3c-.2,1.6-1.4,1.4-2.3,1.8-.3.1-.5.4-.7.6-.2.6-.3,1.1-.5,1.7-.1.3-.1.6-.2.9a.6.6,0,0,1-.1.4c-.3.5-.5,1-.8,1.6.4.3.7.5,1.2.9A1.59,1.59,0,0,1,6.41,15.95Z" transform="translate(-4.21 -4.25)"/><path class="cls-2" d="M6.41,15.95c.3-.1.7-.2,1.3-.4-.5-.4-.8-.6-1.2-.9.3-.5.5-1,.8-1.6a3.55,3.55,0,0,1,.4.9,1.55,1.55,0,0,1-.6.3c.5,1,1,1.9,1.5,2.8-.2.1-.3.1-.5.2,0-.2,0-.5-.1-.6s-.5,0-.8-.1c0,.6-.7,1.3,0,1.9a8.26,8.26,0,0,1,1.3.7h0A1.39,1.39,0,0,0,9.61,21a5.54,5.54,0,0,0,1.8.2v.6a.6.6,0,0,1-.1.4v.5c-1.1.5-.4-.5-.6-.9H8.51c-.1,0-.3-.2-.3-.2.5-.8-.6-1-.7-1.6,0-.4-.8-.8-1.3-1.1a3.55,3.55,0,0,0-.9-.4l.6-.9c-.4-.4-.9-.8-1.7-1.5A13.79,13.79,0,0,0,6.41,15.95Z" transform="translate(-4.21 -4.25)"/><path class="cls-1" d="M22.51,21.35c.4.5.7.9,1.3,1.7a16.65,16.65,0,0,0-2.6.6c-.3.1-.6.6-.8.9a4.54,4.54,0,0,0-.2.8,7.3,7.3,0,0,0-1-.9,3.19,3.19,0,0,1-2.7-.2c-.3.4-.6.9-.9,1.3-.2-.4-.4-.7-.6-1.1v-.2c.2.1.5.3.7.4.4-.5-.2-1.9,1.2-1.3.4.3.9.6,1.4,1a10,10,0,0,1,1.1-1h.4C22.51,23.25,22.41,22.95,22.51,21.35Z" transform="translate(-4.21 -4.25)"/><path class="cls-3" d="M18.11,5.45h.7a.55.55,0,0,1,.5.3,2.65,2.65,0,0,1,.5.6,5.72,5.72,0,0,1,.1,1.4c.6-.5.9-.8,1.5-1.3v1.5a1.73,1.73,0,0,1,1.5,1.7c.1,1,0,1.7-1,2.1-.1-.1-.2-.2-.3-.2v-.1c.1-.1.1-.2.2-.3h0c.1-.4.1-.7.2-1.1v-.4c-.2-.2-.3-.6-.5-.7a2.54,2.54,0,0,0-1.2-.2h0c-.2-.1-.3-.3-.5-.4-.5-.5-1.3-.9-1.3-1.8A4.87,4.87,0,0,0,18.11,5.45Z" transform="translate(-4.21 -4.25)"/><path class="cls-3" d="M22.71,12.45a.76.76,0,0,1,.4-.2c.2.2.5.3.7.5.5.5.7,1-.2,1.3.3.6.6,1.2.9,1.9-.2.1-.5.3-.9.5.8.3,1.4.5,2,.7,0,.4,0,.4-1.6.9,0,.3.1.7.1,1h-1.4c-.2.4.1,1.3-.9.8-.1-.1-.4.2-.6.3-.1-.2-.1-.5-.2-.7a3.13,3.13,0,0,1,1-.5c.6-.3,1.6,0,1.5-1.1a5.94,5.94,0,0,0,.4-.8c-.3-.2-.5-.4-.8-.6.5-1.1.5-1.1-.2-2.2a.75.75,0,0,1-.1-.5h0l.5-.5a2.18,2.18,0,0,1-.5-.4A.6.6,0,0,0,22.71,12.45Z" transform="translate(-4.21 -4.25)"/><path class="cls-4" d="M22.91,13.85a.75.75,0,0,0,.1.5c.7,1.1.7,1.1.2,2.2a5.55,5.55,0,0,0,.8.6,3,3,0,0,0-.4.8c-.5.3-.9.4-1.3-.2.1-.4.1-.8.2-1.3.2-.8-.9-1.8-1.7-1.6h-.2a.75.75,0,0,1,.1-.5c.8-.5.5-1.1.1-1.7a.6.6,0,0,1-.1-.4,2.54,2.54,0,0,1,.7-.2l.1.1c.2.2.4.3.6.5-.1.7-.3,1.4-.4,2.3A5.36,5.36,0,0,1,22.91,13.85Z" transform="translate(-4.21 -4.25)"/><path class="cls-3" d="M14.91,24.15v.2c-.3.5-.6,1.1-.9,1.7-.6.2-.8-.2-1-.9a8.43,8.43,0,0,0-.6-1.4c-.4.5-.7.7-1,1.1v-2.5c.2.1.5.1.6.2.1.7.6.9,1.2,1.1h0c.2.5.3,1,.5,1.4a.37.37,0,0,0,.3-.1c.1-.3.1-.6.2-.9a.1.1,0,0,0,.1-.1c.1-.1.2-.1.2-.2h0l.2-.2h0c.1,0,.2,0,.2.1Z" transform="translate(-4.21 -4.25)"/><path class="cls-5" d="M21.11,19.55c.1.2.1.5.2.7s.2.3.3.4h-1.5v1.8a3.78,3.78,0,0,0-.5.8h-.4a10.09,10.09,0,0,0-.7-1.5.1.1,0,0,0,.1-.1c.8.4.9.2.9-1.1v-.9c0-.1,0-.1.1-.2,1.2.2.7-.9,1.1-1.3A12.74,12.74,0,0,0,21.11,19.55Z" transform="translate(-4.21 -4.25)"/><path class="cls-4" d="M19.61,23.35c.2-.3.4-.7.5-.8v-1.8h.4c.3.6.6,1.3.9,1.9.1,0,.3-.1.4-.1.1-.5.2-1.1.3-1.6l.4.4C22.41,22.95,22.51,23.25,19.61,23.35Z" transform="translate(-4.21 -4.25)"/><path class="cls-6" d="M22.11,20.95c-.1.5-.2,1.1-.3,1.6-.1,0-.3.1-.4.1-.3-.6-.6-1.3-.9-1.9h1.1C21.81,20.75,21.91,20.85,22.11,20.95Z" transform="translate(-4.21 -4.25)"/><path class="cls-1" d="M18.11,5.45c.2.4.3.7.5,1.1-.6-.2-.8,0-.6.8-.6-.2-1.4-.2-1.5-.5-.4-.7-.7-.3-1.1-.2l-.1-.1v-.7l.2-.2,1.8.9.4-.4c.1-.2.3-.5.4-.7Z" transform="translate(-4.21 -4.25)"/><path class="cls-5" d="M22.91,13.85a9.13,9.13,0,0,0-1.3,1c.2-.9.3-1.6.4-2.3a1.27,1.27,0,0,0,.6-.1c.1.1.2.3.3.4v1Z" transform="translate(-4.21 -4.25)"/><path class="cls-3" d="M17.31,6.55l-1.8-.9a5.58,5.58,0,0,1,.5-.8l.6-.6A12.52,12.52,0,0,0,17.31,6.55Z" transform="translate(-4.21 -4.25)"/><path class="cls-7" d="M23.81,12.75c-.2-.2-.5-.3-.7-.5a3.74,3.74,0,0,1,.7-.6c.3-.1.6.1,1,.1-.2.2-.3.5-.6.7C24.21,12.65,24,12.65,23.81,12.75Z" transform="translate(-4.21 -4.25)"/><path class="cls-3" d="M18.11,5.45a4.35,4.35,0,0,0-.4.7C17.81,5.95,18,5.65,18.11,5.45Z" transform="translate(-4.21 -4.25)"/><path class="cls-4" d="M21.61,11.55c.1.1.2.2.3.2-.2.1-.3.1-.5.2l-.1-.1C21.41,11.85,21.51,11.65,21.61,11.55Z" transform="translate(-4.21 -4.25)"/><path class="cls-3" d="M15.31,5.85v.7l-.2-.2C15.11,6.15,15.21,6,15.31,5.85Z" transform="translate(-4.21 -4.25)"/><path class="cls-5" d="M21.61,11.55c-.1.1-.2.3-.3.4s-.5.1-.7.2a.76.76,0,0,1,.1.4c.4.6.7,1.2-.1,1.7a.75.75,0,0,0-.1.5,4.25,4.25,0,0,1-.2-1.1c0-.6-.1-1.1-.1-1.7h-.4c-.2.5-.8,1.1.1,1.6-.1.4-.3.8-.4,1.1-.1.1-.1.1-.2.1-.5-.2-.9-.5-1.4-.7a13.32,13.32,0,0,0-1.9-.5c.1-.3.1-.5.2-.9a5.56,5.56,0,0,0-.8.4c-.3-.7-.6-1.3-1-2.1L13.31,12c-.7-.7-1.1-.1-1.6.7.4.2.9.5,1.1.4.8-.4.8.1,1,.6-.7-.1-1.2-.1-1.5.7a1.39,1.39,0,0,1-.7.8c-1,.4-1,.9-.7,1.6,0,.3-.1.6-.1.9-.6.1-.6-.2-.5-.7a2.35,2.35,0,0,0-.5-1c-.2.2-.5.3-.6.5a3.55,3.55,0,0,0,.2,1,3.59,3.59,0,0,0,.7,1l1.2-.3v.4a9.29,9.29,0,0,1,.5,1,5.74,5.74,0,0,0-.7.4c.6.4,1,.7,1.4,1l1.5-.6c.3.1.6.1.8.2.2.5-.4,1.7.9,1.2.1-.8.3-1.4.4-2.1l.9-.6h1c.3.6.6,1.1.9,1.7-.6-.1-1.1-.3-1.7-.4a.9.9,0,0,0-.6.6,7.42,7.42,0,0,0,.4,1.8c.4-.7.6-1.3,1-2a3.74,3.74,0,0,1,.6,1,.1.1,0,0,0-.1.1l-1.8,1.5c-1.4-.6-.8.8-1.2,1.3-.2-.1-.5-.3-.7-.4v-.4c0-.1-.1-.2-.1-.3,0,.1-.1.2-.1.3h0l-.2.2h0c-.1.1-.2.1-.2.2l-.1.1c-.3-.2-.6-.3-.9-.5h0c-.6-1.1.3-1.5,1.2-2.2-1,.2-1.9-.3-2.5.4h-.3v-.6l-1.2-1.2-.2.2c0,.2.1.3.1.5-.1,0-.2.1-.3.1-.3-.6-.5-1.2-.8-1.8.1-.1.2-.1.4-.2l-.2-.2c-.1.1-.1.2-.2.4h-.5c0-.2.1-.4.1-.7H7.41c-.8-.6,0-1.2,0-1.9a2.2,2.2,0,0,1,.8.1c.1,0,.1.4.1.6.2-.1.3-.1.5-.2-.5-.9-1-1.8-1.5-2.8a1.55,1.55,0,0,0,.6-.3c-.1-.3-.3-.6-.4-.9a.6.6,0,0,1,.1-.4c.6-.8,1.2-1.6,2-2.6H8.31a.53.53,0,0,1,.3-.8c.9-.4,2.1-.3,2.3-1.8l.3.3c0,.2.1.4.1.7a4.87,4.87,0,0,1,1.2.1c0-.1-.1-.2-.1-.3.7-.4,1.4-.7,2.2-1.1l.9-.6c.4-.1.7-.6,1.1.2.2.3.9.3,1.5.5-.3-.8-.1-1,.6-.8-.1.9.8,1.3,1.3,1.8.2.1.3.3.5.4h0a8.66,8.66,0,0,0,.2,1c.7,0,1.1-.1,1.6-.1v.4c-.1.4-.1.7-.2,1.1h0c-.1.1-.1.2-.2.3C21.61,11.45,21.61,11.55,21.61,11.55ZM9.21,12c-.2,0-.5-.1-.6,0-.2.4-.3.8-.5,1.2.1.3.1.7.2,1s.2.7.4.7a1.15,1.15,0,0,0,1-.1c.2-.1.2-.6.1-.9a7.54,7.54,0,0,0-.6-1.3h1C10.21,11.65,9.71,11.75,9.21,12Zm8.7.5c.2-.1.8-.1.8-.2a17.48,17.48,0,0,0,.3-2.4c-.2.3-.4.7-.5.7-1.1-.1-1,.6-1,1.2a2.19,2.19,0,0,0-1,.9c-.1.2.4.6.6.9C17.41,13.15,17.71,12.85,17.91,12.55Zm-5.4-3.3c.2.7.3,1.5.6,1.6a.89.89,0,0,0,1.1-1A16.19,16.19,0,0,0,12.51,9.25Zm2.7-.4c.1,0,.2.1.3.1.3-.4.6-.7.9-1.1v-.3c-.3,0-.8-.1-1,.1A5,5,0,0,0,15.21,8.85Z" transform="translate(-4.21 -4.25)"/><path class="cls-2" d="M7.91,10h1.3c-.8,1-1.4,1.8-2,2.6.1-.3.1-.6.2-.9C7.61,11.15,7.71,10.65,7.91,10Z" transform="translate(-4.21 -4.25)"/><path class="cls-4" d="M11.51,21.95c.1,0,.3.1.3,0,.7-.8,1.5-.2,2.5-.4-.9.7-1.8,1.1-1.2,2.2-.5-.2-1.1-.4-1.2-1.1,0-.1-.4-.1-.6-.2C11.41,22.25,11.41,22.15,11.51,21.95Z" transform="translate(-4.21 -4.25)"/><path class="cls-4" d="M9,19.15c.3.6.5,1.2.8,1.8.1,0,.2-.1.3-.1,0-.2-.1-.3-.1-.5l.2-.2,1.2,1.2c-.6-.1-1.2-.1-1.8-.2a1.42,1.42,0,0,1-1.1-1.9.9.9,0,0,0,.5-.1Z" transform="translate(-4.21 -4.25)"/><path class="cls-4" d="M7.21,18.55h1.4c0,.3-.1.5-.1.7A5.39,5.39,0,0,0,7.21,18.55Z" transform="translate(-4.21 -4.25)"/><path class="cls-4" d="M16.81,23.35l1.8-1.5a10.09,10.09,0,0,0,.7,1.5,11,11,0,0,1-1.1,1C17.71,23.95,17.21,23.65,16.81,23.35Z" transform="translate(-4.21 -4.25)"/><path class="cls-4" d="M19.41,23.35h0Z" transform="translate(-4.21 -4.25)"/><path class="cls-4" d="M22,9.65c-.4,0-.9.1-1.6.1a5.76,5.76,0,0,0-.2-1c.4.1.8.1,1.2.2S21.81,9.45,22,9.65Z" transform="translate(-4.21 -4.25)"/><path class="cls-4" d="M21.81,11.15c.1-.4.1-.7.2-1.1C21.91,10.45,21.91,10.75,21.81,11.15Z" transform="translate(-4.21 -4.25)"/><path class="cls-4" d="M20.31,8.75c-.2-.1-.3-.3-.5-.4C20,8.45,20.11,8.65,20.31,8.75Z" transform="translate(-4.21 -4.25)"/><path class="cls-4" d="M21.61,11.45c.1-.1.1-.2.2-.3C21.71,11.25,21.71,11.35,21.61,11.45Z" transform="translate(-4.21 -4.25)"/><path class="cls-4" d="M21.11,19.55c-.1-.4-.3-.8-.4-1.2.1-.2.1-.4.2-.6H22V19A4.05,4.05,0,0,0,21.11,19.55Z" transform="translate(-4.21 -4.25)"/><path class="cls-8" d="M22.11,19v-1.3h.2c.3.6.8.5,1.3.2C23.61,19,22.71,18.75,22.11,19Z" transform="translate(-4.21 -4.25)"/><path class="cls-4" d="M22.91,13.75v-1a2.18,2.18,0,0,1,.5.4A1,1,0,0,1,22.91,13.75Z" transform="translate(-4.21 -4.25)"/><path class="cls-5" d="M22.21,17.65h-1.3c-.3,0-.6-.1-1-.1,0-.1-.1-.2-.1-.3.4-.3.8-.6,1.1-.8-.4-.3-.7-.5-1-.7h0c.8-.1,1-.5.7-1a1.46,1.46,0,0,1,1.7,1.6A2.77,2.77,0,0,1,22.21,17.65Z" transform="translate(-4.21 -4.25)"/><path class="cls-6" d="M20.71,14.85c.3.5.1.9-.7,1-.1-.4.3-1.1-.6-1,.1-.4.3-.8.4-1.1a.6.6,0,0,1,.4.1,4.25,4.25,0,0,1,.2,1.1A.77.77,0,0,1,20.71,14.85Z" transform="translate(-4.21 -4.25)"/><path class="cls-4" d="M13.11,23.75c.3.2.6.3.9.5-.1.3-.1.6-.2.9a.37.37,0,0,0-.3.1A4.19,4.19,0,0,0,13.11,23.75Z" transform="translate(-4.21 -4.25)"/><path class="cls-4" d="M14.61,23.75c0-.1.1-.2.1-.3,0,.1.1.2.1.3Z" transform="translate(-4.21 -4.25)"/><path class="cls-4" d="M14.21,24.15c.1-.1.2-.1.2-.2C14.31,24,14.31,24.15,14.21,24.15Z" transform="translate(-4.21 -4.25)"/><path class="cls-4" d="M14.41,23.95l.2-.2C14.61,23.85,14.51,23.85,14.41,23.95Z" transform="translate(-4.21 -4.25)"/><path class="cls-9" d="M19.41,14.85c.9-.1.5.6.6,1h0c-.2,0-.4.1-.6.1-.6.1-1.1.8-.7,1.2h.6a4,4,0,0,0,0,1.1c.1.5.3.9.4,1.3a.35.35,0,0,0-.1.2v.9a1.27,1.27,0,0,0-.6.1c-.3-.6-.6-1.1-.9-1.7h-1c0-.1-.1-.2-.1-.3s.3-.2.4-.3.5-.3.7-.5a5.55,5.55,0,0,0-.8-.6.75.75,0,0,0-.5-.1c.1-.5.2-.9.3-1.3-.3-.2-.5-.5-.7-.6-.4.1-.8.3-1.1.4l-.1-.1.1.1c.2.5.4,1.1.6,1.6h.9c-.3.4-.6.8-1,1.3a1,1,0,0,0,.1.4h-.4a2.47,2.47,0,0,1-.9-.4,4.23,4.23,0,0,1-.5-.7c.1-.2.3-.5.5-.9a4.61,4.61,0,0,0-1,.5c.1-1.3-.3-2.4.1-3.5-.1-.5-.2-1-1-.6-.2.1-.6-.3-1.1-.4.5-.8.9-1.4,1.6-.7l1.1-1.1c.4.9.7,1.5,1,2.1a5.56,5.56,0,0,1,.8-.4c-.1.4-.1.6-.2.9a13.32,13.32,0,0,0,1.9.5c-.1.4-.2.9-.3,1.3.1.1.3.1.4.2l1.2-.9C19.31,14.95,19.41,14.95,19.41,14.85Zm-4.7.1c.1,0,.2-.1.3-.1-.1-.2-.2-.5-.3-.5s-.6.1-.7.3a1.41,1.41,0,0,0,.1.9,12.09,12.09,0,0,0,.5,1.8,2.51,2.51,0,0,0,.4.7s.3-.1.3-.2a1.7,1.7,0,0,0-.1-.7A17.42,17.42,0,0,0,14.71,14.95Zm.6-1.3-.3.3c.2.2.4.3.6.5l.2-.2C15.61,14,15.51,13.85,15.31,13.65Z" transform="translate(-4.21 -4.25)"/><path class="cls-6" d="M19.61,19.65c-.1-.4-.3-.9-.4-1.3a4,4,0,0,1,0-1.1h-.6a.84.84,0,0,1,.7-1.2c.2,0,.4-.1.6-.1.3.2.5.4,1,.7a7.63,7.63,0,0,0-1.1.8c0,.1.1.2.1.3.3,0,.6.1,1,.1-.1.2-.1.4-.2.6C20.31,18.75,20.81,19.85,19.61,19.65Z" transform="translate(-4.21 -4.25)"/><path class="cls-10" d="M19,20.75a1.27,1.27,0,0,0,.6-.1c0,1.3-.1,1.5-.9,1.1a8.79,8.79,0,0,1-.6-1c-.4.8-.6,1.3-1,2a8.57,8.57,0,0,1-.4-1.8.9.9,0,0,1,.6-.6A5.93,5.93,0,0,1,19,20.75Z" transform="translate(-4.21 -4.25)"/><path class="cls-10" d="M19.61,20.35v0Z" transform="translate(-4.21 -4.25)"/><path class="cls-10" d="M13.71,13.95c-.4,1.1,0,2.3-.1,3.5l1-.5a5.76,5.76,0,0,1-.5.9h-.8c-.5-.3-1.2-.5-1.5-.9s-.5-.2-.8-.2c-.3-.6-.4-1.1.5-1.4a1.39,1.39,0,0,0,.7-.8C12.41,13.85,13,13.75,13.71,13.95Z" transform="translate(-4.21 -4.25)"/><path class="cls-11" d="M17.91,12.55a8.74,8.74,0,0,0-.8,1c-.2-.3-.7-.7-.6-.9.2-.4.6-.6,1-.9,0-.6-.2-1.3,1-1.2.1,0,.3-.4.5-.7a15.69,15.69,0,0,1-.3,2.4C18.71,12.45,18.11,12.45,17.91,12.55Z" transform="translate(-4.21 -4.25)"/><path class="cls-12" d="M9.21,12.65a5.17,5.17,0,0,1,.6,1.3c.1.3.1.8-.1.9a1.15,1.15,0,0,1-1,.1c-.2-.1-.3-.5-.4-.7a4.4,4.4,0,0,1-.2-1c.2-.4.3-.8.5-1.2.1-.1.4,0,.6,0Z" transform="translate(-4.21 -4.25)"/><path class="cls-13" d="M15.51,18.95h.4l1-.3c0,.1.1.2.1.3l-.9.6a15.52,15.52,0,0,1-.4,2.1c-1.3.4-.6-.8-.9-1.2a8.26,8.26,0,0,1,.7-1.3Z" transform="translate(-4.21 -4.25)"/><path class="cls-10" d="M12.51,20.95c-.4-.3-.8-.6-1.4-1a2.15,2.15,0,0,0,.7-.4,9.25,9.25,0,0,1-.5-1,6.6,6.6,0,0,1,1.4.1c.1.3.3.5.4.8Z" transform="translate(-4.21 -4.25)"/><path class="cls-10" d="M11.31,18.15l-1.2.3a8.65,8.65,0,0,1-.7-1c-.1-.3-.3-.7-.2-1s.4-.3.6-.5c.2.3.6.7.5,1-.1.5,0,.8.5.7Z" transform="translate(-4.21 -4.25)"/><path class="cls-14" d="M11.31,18.15c-.2-.2-.4-.3-.5-.5s.1-.6.1-.9c.3-.1.5-.3.8.2s1,.6,1.5.9c-.2.2-.3.5-.5.7a6.6,6.6,0,0,1-1.4-.1Z" transform="translate(-4.21 -4.25)"/><path class="cls-13" d="M12.51,9.25c.7.2,1.2.4,1.7.5.1.9-.5,1.2-1.1,1C12.81,10.75,12.71,9.95,12.51,9.25Z" transform="translate(-4.21 -4.25)"/><path class="cls-13" d="M12.51,20.95l.6-1.5c0-.2.1-.5.1-.7h.3c.1.4.3.8.4,1.2v.5A12.13,12.13,0,0,0,12.51,20.95Z" transform="translate(-4.21 -4.25)"/><path class="cls-6" d="M19.21,14.95l-1.2.9c-.1-.1-.3-.1-.4-.2.1-.4.2-.9.3-1.3A3.79,3.79,0,0,1,19.21,14.95Z" transform="translate(-4.21 -4.25)"/><path class="cls-11" d="M20.31,13.75a.6.6,0,0,1-.4-.1c-.9-.5-.3-1.1-.1-1.6h.4C20.21,12.65,20.31,13.25,20.31,13.75Z" transform="translate(-4.21 -4.25)"/><path class="cls-11" d="M15.21,8.85c.1-.4.1-.9.3-1.1s.6-.1,1-.1v.3c-.3.4-.6.7-.9,1.1C15.41,8.95,15.31,8.95,15.21,8.85Z" transform="translate(-4.21 -4.25)"/><path class="cls-6" d="M14,20.35v-.5l1.5-.6a8.26,8.26,0,0,1-.7,1.3A1.88,1.88,0,0,0,14,20.35Z" transform="translate(-4.21 -4.25)"/><path class="cls-15" d="M9.21,12.65v-.7c.6-.3,1-.4,1.1.6A4.48,4.48,0,0,1,9.21,12.65Z" transform="translate(-4.21 -4.25)"/><path class="cls-4" d="M9,19.15c.1-.1.1-.2.2-.4l.2.2c-.2.1-.3.2-.4.2Z" transform="translate(-4.21 -4.25)"/><path class="cls-16" d="M14.71,14.95c.2.8.4,1.5.6,2.3a1.7,1.7,0,0,1,.1.7c0,.1-.3.2-.3.2a4.35,4.35,0,0,1-.4-.7,12.09,12.09,0,0,1-.5-1.8,1.41,1.41,0,0,1-.1-.9.78.78,0,0,1,.7-.3c.1,0,.2.3.3.5C14.91,14.85,14.81,14.85,14.71,14.95Z" transform="translate(-4.21 -4.25)"/><path class="cls-5" d="M15.51,19.15l-1.5.6c-.1-.4-.3-.8-.4-1.2h-.3c0,.2-.1.5-.1.7-.1-.3-.3-.5-.4-.8.2-.2.3-.5.5-.7h.8c.2.2.3.5.5.7a3.55,3.55,0,0,0,.9.4Z" transform="translate(-4.21 -4.25)"/><path class="cls-6" d="M16.81,17.25h-.9c-.2-.5-.4-1-.6-1.6h0a7.6,7.6,0,0,0,1.1-.4c.1.1.4.3.7.6-.1.5-.2.9-.3,1.4Z" transform="translate(-4.21 -4.25)"/><path class="cls-5" d="M16.91,18.65l-1,.3c0-.2-.1-.5-.1-.4.4-.5.7-.9,1-1.3h0a.75.75,0,0,1,.5.1c.3.2.5.4.8.6-.2.2-.5.3-.7.5S17.11,18.55,16.91,18.65Z" transform="translate(-4.21 -4.25)"/><path class="cls-5" d="M15.31,13.65c.2.2.3.4.5.6l-.2.2c-.2-.2-.4-.3-.6-.5Z" transform="translate(-4.21 -4.25)"/><path class="cls-6" d="M15.31,15.75l-.1-.1.1.1Z" transform="translate(-4.21 -4.25)"/><polygon class="cls-17" points="24.4 22.4 1.1 22.4 1.1 22.4 24.4 22.4"/></g></svg>