<svg id="Calque_1" data-name="Calque 1" xmlns="http://www.w3.org/2000/svg" viewBox="0 0 15.2 15.42"><defs><style>.cls-1{fill:#d32b17;}.cls-2{fill:#5d312b;}.cls-3{fill:#6a2a24;}.cls-4{fill:#b31f1a;}.cls-5{fill:#81221d;}.cls-6{fill:#5a4541;}.cls-7{fill:#585252;}.cls-8{fill:#de3617;}.cls-9{fill:#f9ce00;}.cls-10{fill:#eb650f;}.cls-11{fill:#f6a307;}.cls-12{fill:#e64c16;}.cls-13{fill:#f6e000;}.cls-14{fill:#f28d05;}.cls-15{fill:#f7d905;}.cls-16{fill:#f8b909;}.cls-17{fill:#f8ed70;}</style></defs><title>boom3</title><g id="Calque_1-2" data-name="Calque 1"><path class="cls-1" d="M19,18.85l.9.9a1.3,1.3,0,0,1-1.6,1c-.2,0-.4.1-.6.1-.6,0-1.1.8-1.8.2a2.09,2.09,0,0,0-.6-.4c-.1.2-.3.4-.3.6.1.8-.3.5-.7.4h0a1.34,1.34,0,0,0-.1-.5c-.3.3-.6.5-.9.8a6.37,6.37,0,0,0-.2-.7c.5,0,.9-.2.8-.8H14c.1-.1.2-.3.3-.4h.5c.2.1.5.2.7.3s.1.1.2.1c.4-.1.7-.3.5-.8v-.4h.4c.2.3.4.5.6.8a.35.35,0,0,1,.2.1c0-.1,0-.2-.1-.2v-.3c0-.2.1-.3.1-.5,0-.5-.1-.9-.1-1.4.2,0,.5.1.7.1h0v-.5h.1c.2.3.3.5.5.8A.87.87,0,0,0,19,18.85Z" transform="translate(-6.81 -7.45)"/><path class="cls-2" d="M12.41,9.95a3.61,3.61,0,0,1,1.5-.8c.5-.2.9-.8,1.3-1.2l.5-.5c.3.6-.2,1.3.6,1.6a2.09,2.09,0,0,1,.4-.6c.2-.2.4-.5.7,0,0,.1.2.2.3.2.6-.1.4.2.4.5s0,.5.1.9a5.74,5.74,0,0,1,.9-.8h.2a1.72,1.72,0,0,1-.1.8c.3.3.8.5.9.7.3,1.5.2,1.5-.7,1.9h0c0-.1.1-.2.1-.3a3.33,3.33,0,0,0,.1-1.4c0-.1-.5-.2-.8-.3-.6-.4-1.5-.6-1.7-1.5,0-.1-.2-.2-.4-.3a6.37,6.37,0,0,0-.2.7,6.66,6.66,0,0,1-1.2-.6c-.6.3-1.1.5-1.7.8L13,10C12.71,10,12.51,10,12.41,9.95Z" transform="translate(-6.81 -7.45)"/><path class="cls-3" d="M13.31,21.25c.1.2.1.5.2.7.3-.3.6-.5.9-.8a.9.9,0,0,0,.1.5c-.2.4-.4.7-.7,1.2-.4.1-.6-.2-.7-.7a6.31,6.31,0,0,0-.4-.9c-.3.5-.5.9-.7,1.2-.1-.1-.2-.1-.3-.2a14.24,14.24,0,0,0,.5-1.6,1.76,1.76,0,0,0-.6-.1c-.1-1.1-.8-.7-1.4-.6h0c-.6-.8-1.1-1.4-1.6-2.1-.1-.1-.4,0-.6-.1a1.38,1.38,0,0,1-.3-.4s.2-.2.3-.2h.5c.2.1.3.2.5.3.5.4,1.4.7,1.5,1.1.2.6.3.7.8.7.3,0,.5.1.8.1v.3c.4.1.7.3,1.1.4-.1.1-.3.2-.5.4a2.76,2.76,0,0,0,.6.8Z" transform="translate(-6.81 -7.45)"/><path class="cls-2" d="M8.41,17.15h-.5a1,1,0,0,1,.1-.3,7.35,7.35,0,0,0-1.2-.9c.7-.2,1.3-.4,1.7-.5-.3-.3-.6-.7-1-1.2a3.92,3.92,0,0,0,.9-.4c0-.3.1-.6.1-.9a4.35,4.35,0,0,0-.7-.6c0-.1,0-.1.1-.2a3.75,3.75,0,0,0,1-.1v-.9c.2.1.3.1.5.2s.5.1.8.1c-.4.6-.8,1.2-1.1,1.7-.1.1,0,.3-.1.4s-.1.4-.2.6h0c-.1.1-.2.1-.3.2l.2.2.1.1v1.2a4.08,4.08,0,0,0-.7-.2c0,.1-.1.1-.1.2.2.2.4.5.6.7a.85.85,0,0,1-.2.6Z" transform="translate(-6.81 -7.45)"/><path class="cls-3" d="M14.41,21.65c.4.1.8.4.7-.4,0-.2.2-.4.3-.6a2.09,2.09,0,0,0,.6.4c.7.6,1.2-.2,1.8-.2.2,0,.4-.1.6-.1a1.54,1.54,0,0,0,1.6-1c.2.2.4.5.8.9-1.4.5-2.7.9-3.9,1.3-.5-.2-.9-.3-1.2-.4-.2.3-.5.7-.7,1A3.47,3.47,0,0,1,14.41,21.65Z" transform="translate(-6.81 -7.45)"/><path class="cls-4" d="M19,18.15c-.2-.3-.3-.5-.5-.8.1-.2.1-.6.5-.4.1,0,.4-.2.3-.3,0-.6.5-.6.8-.9.1.4.2.6.6.3h.2c-.2.7-.5,1.2-1.3,1.2Q20.06,18.3,19,18.15Z" transform="translate(-6.81 -7.45)"/><path class="cls-5" d="M9.51,11.55c-.2-.1-.3-.1-.5-.2H9l.6-.6a2.19,2.19,0,0,0,.5-.3c.2-.1.7.3.7-.5h0c.1-.1.1-.2.2-.3a.85.85,0,0,1,1.4.2c.1.1.3.1.4.2a1.42,1.42,0,0,0-.2.4l-1.2-.3a6.07,6.07,0,0,1-1,.7C10.11,11,9.81,11.35,9.51,11.55Z" transform="translate(-6.81 -7.45)"/><path class="cls-2" d="M19,18.15c.6,0,.9-.2.7-.8a1.24,1.24,0,0,0,1.3-1.2,4.18,4.18,0,0,1,1,.4c0,.9-.9.2-1.2.7,0,.2.1.4.1.7-.5.1-1.1-.1-1.3.6,0,.1-.7-.2-.7.4C18.71,18.65,18.61,18.35,19,18.15Z" transform="translate(-6.81 -7.45)"/><path class="cls-3" d="M20.81,16.15c-.4.3-.5,0-.6-.3h0c.1-.2.1-.3.2-.5a6.31,6.31,0,0,1-.4-.9,4.25,4.25,0,0,0,.2-1.1c.2.1.4.1.6.2l.2.2V14l-.4.4a9.74,9.74,0,0,1,.5,1.1A3.33,3.33,0,0,0,20.81,16.15Z" transform="translate(-6.81 -7.45)"/><path class="cls-6" d="M20.81,13.55c-.2-.1-.4-.1-.6-.2h-.7c-.2-.1-.4-.3-.6-.4.1-.1.2-.1.3-.2h0c.3.7.8.2,1.2.1l1-.3c.1.1.1.2.2.3A5,5,0,0,0,20.81,13.55Z" transform="translate(-6.81 -7.45)"/><path class="cls-6" d="M10.91,9.95c0,.8-.5.4-.7.5a2.19,2.19,0,0,0-.5.3l-.6.6c-.2-.1-.3-.3-.5-.4.1-.8,1.5.2,1.3-.9C10.21,9.75,10.61,10.55,10.91,9.95Z" transform="translate(-6.81 -7.45)"/><path class="cls-7" d="M12.21,7.45c.2.4.3.7.5,1.1a4.33,4.33,0,0,0-.5.1,4.18,4.18,0,0,0-.4-1C12,7.55,12.11,7.45,12.21,7.45Z" transform="translate(-6.81 -7.45)"/><path class="cls-7" d="M7.71,19.25c.3-.2.6-.3.9-.5a1.42,1.42,0,0,1,.2.4,3.55,3.55,0,0,1-.9.4C7.81,19.45,7.81,19.35,7.71,19.25Z" transform="translate(-6.81 -7.45)"/><path class="cls-6" d="M21,13.95v-.3l.2.2C21.11,13.85,21.11,13.95,21,13.95Z" transform="translate(-6.81 -7.45)"/><path class="cls-6" d="M11,9.65c-.1.1-.1.2-.2.3C10.91,9.85,11,9.75,11,9.65Z" transform="translate(-6.81 -7.45)"/><path class="cls-8" d="M19.51,13.35h.7a4.25,4.25,0,0,0-.2,1.1,7.93,7.93,0,0,1,.4.9c-.1.2-.1.3-.2.5h0c-.3.2-.8.3-.8.9,0,.1-.3.3-.3.3-.4-.2-.4.2-.5.4h-.1c-.1-.2-.3-.5-.4-.7.2-.1.3-.3.6-.5-.1-.1-.3-.2-.4-.3a5,5,0,0,1,.7-.8c-.3,0-.5-.1-.8-.1s-.5,0-.7.2a.82.82,0,0,1-1.2,0,4.33,4.33,0,0,0-.1-.5c-.2-.1-.4-.3-.6-.4l1.2-.3c-.1-.2-.3-.3-.4-.5a4.54,4.54,0,0,1,.8-.2c0-.2-.1-.7.1-.9.4-.6.3-1-.3-1.6a4.5,4.5,0,0,1,.2.8,1.23,1.23,0,0,1-.2.5c-.9-.2-.5.5-.5.8-.3.2-.7.3-1,.5a2.18,2.18,0,0,0-.5.4c-.3-.5-.6-.9-.9-1.5l-.6.9c-.6-.7-.8-.1-1.3.5l1.4.3a1,1,0,0,0,.1.4c-.3-.5-.5-.2-.7.1a.6.6,0,0,0-.1.4c-.2.2-.3.4-.5.6-.5,0-.7.3-.6.8V17c-.5.2-.5,0-.4-.4a2.12,2.12,0,0,0-.3-.7c-.2.2-.4.3-.5.5s-.1.2,0,.2a7.27,7.27,0,0,0,.8.9,2.19,2.19,0,0,1,.5-.3.76.76,0,0,1,.2.4l.3.6a1.38,1.38,0,0,0-.3.4c.1.1.3.2.3.3.4.6.8.7,1.2.1,0-.1.2,0,.3-.1l.6.6c-.2.2-.4.3-.6.5a1.91,1.91,0,0,0-1.8,0v-.3c-.3-.3-.6-.5-.9-.8,0,.1-.1.1-.1.2s.1.4.2.5c-.5,0-.6-.1-.8-.7s-1-.8-1.5-1.1c-.2-.1-.3-.2-.5-.3h0c.2-.1.3-.3.5-.4.9,0,1.3-.4,1.1-1.2a2.65,2.65,0,0,0-.6-.5c-.2-.6-.4-.6-.6-.6a.1.1,0,0,1-.1-.1v-.4h0c.8,0,.3-.3.2-.6a.6.6,0,0,1,.1-.4c.4-.6.7-1.1,1.1-1.7-.3,0-.5-.1-.8-.1a8.79,8.79,0,0,1,1-.6,3.59,3.59,0,0,0,1-.7l1.2.3a1.42,1.42,0,0,1,.2-.4l.6-.3c.5-.3,1.1-.5,1.7-.8l1.2.6c.2-.4.2-.6.3-.8a1.38,1.38,0,0,1,.4.3c.2.9,1,1.1,1.7,1.5.2.2.7.2.8.3,0,.5-.1.9-.1,1.4,0,.1-.1.2-.1.3s-.2.1-.3.2-.3.1-.4.1c.2.4.3.8.5,1.2-.1.1-.3.2-.4.3l.2.2c.1-.2.2-.3.3-.5A1.6,1.6,0,0,1,19.51,13.35Zm-9.4-.4c-.7.5-.3,1.2-.2,1.8,0,.1.5.3.7.2s.4-.4.4-.5Zm2.7-1.9a3,3,0,0,0,.2,1s.4,0,.5-.1.3-.4.5-.6C13.61,11.25,13.31,11.15,12.81,11Zm5.4,3.1.2-.2c-.1-.3-.2-.7-.3-1h-.2c-.1.3-.3.5-.3.8S18,14,18.21,14.15Z" transform="translate(-6.81 -7.45)"/><path class="cls-9" d="M16.21,15a.82.82,0,0,0,1.2,0c.2-.1.5-.1.7-.2a2.93,2.93,0,0,1-.4.8c-.6.1-.6.5-.6.9a3.08,3.08,0,0,0,.9-.1c-.8.4-.5.8-.2,1.2,0,.5.1.9.1,1.4,0,.2-.1.3-.1.5v.3l-.2.2c-.2-.3-.4-.5-.6-.8l.3-.6c-.4,0-.1-1-.9-.7h-.3c.1-.2.1-.4.3-.6s.3-.2.5-.4c0-.1-.1-.2-.1-.3l-.9.3v-.4c.1-.3.2-.7.3-1C16,15.35,16.11,15.25,16.21,15Z" transform="translate(-6.81 -7.45)"/><path class="cls-10" d="M17.71,17.65c-.3-.4-.5-.8.2-1.2a2.48,2.48,0,0,0-.9.1c.1-.4,0-.8.6-.9.2,0,.3-.5.4-.8.2,0,.4.1.8.1-.3.3-.5.6-.7.8.1.1.3.2.4.3-.2.2-.4.3-.6.5a4.35,4.35,0,0,0,.4.7v.5h0A1.49,1.49,0,0,1,17.71,17.65Z" transform="translate(-6.81 -7.45)"/><path class="cls-11" d="M13.81,19.85c.2-.2.4-.3.6-.5.1-.5.3-1,.4-1.5h.6v.1c-.5.3-.1.7-.2,1.1l-.3.9h-.5c-.1.1-.2.3-.3.4H14c-.3.1-.5.1-.8.2a.6.6,0,0,1,.1-.4c.1-.1.2-.1.3-.2A.35.35,0,0,0,13.81,19.85Z" transform="translate(-6.81 -7.45)"/><path class="cls-10" d="M15.31,19c.1-.3-.4-.8.2-1.1h.8V18l.1-.1c.8-.4.4.6.9.7l-.3.6h-.4c-.2-.8-.6-.4-1-.2Z" transform="translate(-6.81 -7.45)"/><path class="cls-12" d="M15.31,19h.1a5.5,5.5,0,0,0,.7.9l.3-.3c.2.5,0,.7-.5.8-.1,0-.1-.1-.2-.1s-.5-.2-.7-.3C15.11,19.65,15.21,19.35,15.31,19Z" transform="translate(-6.81 -7.45)"/><path class="cls-11" d="M16.41,19.65l-.3.3a5.5,5.5,0,0,0-.7-.9c.4-.2.8-.6,1,.2Z" transform="translate(-6.81 -7.45)"/><path class="cls-12" d="M13.31,20.55c.3-.1.5-.1.8-.2.1.6-.3.8-.8.8h0Z" transform="translate(-6.81 -7.45)"/><path class="cls-12" d="M14.21,20.45c.1-.1.2-.3.3-.4A1.38,1.38,0,0,0,14.21,20.45Z" transform="translate(-6.81 -7.45)"/><path class="cls-10" d="M17.61,19.55c0-.2.1-.3.1-.5A1.09,1.09,0,0,1,17.61,19.55Z" transform="translate(-6.81 -7.45)"/><path class="cls-10" d="M17.41,19.95a.35.35,0,0,0,.2-.1c0,.1,0,.2.1.2C17.61,20,17.51,19.95,17.41,19.95Z" transform="translate(-6.81 -7.45)"/><path class="cls-11" d="M15.71,20.25c.1,0,.1.1.2.1A.31.31,0,0,1,15.71,20.25Z" transform="translate(-6.81 -7.45)"/><path class="cls-10" d="M18.41,17.85Z" transform="translate(-6.81 -7.45)"/><path class="cls-1" d="M13.31,20.55v.6a4.23,4.23,0,0,0-.7-.5c.2-.2.4-.3.5-.4a7.6,7.6,0,0,0-1.1-.4c.6-.1,1.2-.4,1.8,0,0,.1-.1.1-.1.2s-.2.1-.3.2S13.31,20.45,13.31,20.55Z" transform="translate(-6.81 -7.45)"/><path class="cls-1" d="M11.21,19.35c-.1-.2-.1-.4-.2-.5s.1-.1.1-.2c.3.3.6.5.9.8A2,2,0,0,1,11.21,19.35Z" transform="translate(-6.81 -7.45)"/><path class="cls-4" d="M8.91,14.85c.2,0,.3,0,.4.1s.3.4.6.5c.2.9-.2,1.2-1.1,1.2h-.2c-.2-.2-.4-.5-.6-.7,0-.1.1-.1.1-.2a4.08,4.08,0,0,1,.7.2A3.75,3.75,0,0,0,8.91,14.85Z" transform="translate(-6.81 -7.45)"/><path class="cls-4" d="M9,13.85c.2.3.6.6-.2.6A1.42,1.42,0,0,0,9,13.85Z" transform="translate(-6.81 -7.45)"/><path class="cls-3" d="M8.71,16.75h.2c-.2.1-.3.3-.5.4C8.51,17,8.61,16.85,8.71,16.75Z" transform="translate(-6.81 -7.45)"/><path class="cls-4" d="M8.91,14.45v.4l-.2-.2A.22.22,0,0,1,8.91,14.45Z" transform="translate(-6.81 -7.45)"/><path class="cls-4" d="M20.21,15.85c.1-.2.1-.3.2-.5A1.69,1.69,0,0,1,20.21,15.85Z" transform="translate(-6.81 -7.45)"/><path class="cls-4" d="M19.51,13.35a9.29,9.29,0,0,0-.5,1h0c-.2-.4-.3-.8-.5-1.2.1,0,.3-.1.4-.1A.86.86,0,0,1,19.51,13.35Z" transform="translate(-6.81 -7.45)"/><path class="cls-13" d="M15.21,17.85h-.3l-.2-.2H14a1.27,1.27,0,0,1,.1-.6c0-.1.1-.2.1-.4h-.1c-.1.1-.1.3-.2.4h-.3a22.55,22.55,0,0,1,0-2.6,1,1,0,0,0-.1-.4l-1.4-.3c.5-.6.7-1.2,1.3-.5l.6-.9c.4.6.6,1,.9,1.5v.6a6.37,6.37,0,0,0,.7-.2c.2.1.4.3.6.4a4.33,4.33,0,0,1,.1.5c-.1.1-.2.3-.3.4l-.6-.3c-.1.1-.1.2-.2.3h-.6c0-.1-.1-.3-.1-.4v-.6h-.4a.88.88,0,0,0-.1.7c.1.5.3,1.1.4,1.6,0,.1.2.2.3.3a.76.76,0,0,0,.2-.4c0-.1-.1-.3-.1-.4.1.1.2.2.3.2h.6v.4c-.2.1-.4.3-.6.4A1.09,1.09,0,0,0,15.21,17.85Z" transform="translate(-6.81 -7.45)"/><path class="cls-14" d="M13.51,14.25a22.55,22.55,0,0,0,0,2.6c-.1.1-.2.1-.2.2-.2-.1-.4-.3-.7-.5a13,13,0,0,1-.3-1.3,2.65,2.65,0,0,1,.5-.6.6.6,0,0,1,.1-.4C13,14.15,13.21,13.85,13.51,14.25Z" transform="translate(-6.81 -7.45)"/><path class="cls-15" d="M12.21,15.35a13,13,0,0,0,.3,1.3,4.23,4.23,0,0,1,.7.5,1.76,1.76,0,0,1-.4.5h-1a.76.76,0,0,1-.2-.4c0-.1-.1-.2-.1-.3s.1-.5,0-.7C11.51,15.55,11.81,15.35,12.21,15.35Z" transform="translate(-6.81 -7.45)"/><path class="cls-16" d="M11.91,17.45h1c-.1.4-.2.7-.3,1.1l.1.1c.1-.2.3-.4.4-.6s.3-.4.5-.6c.1.4.1.8.2,1.2a.37.37,0,0,0-.3.1c-.4.6-.8.6-1.2-.1l-.3-.3c.1-.1.2-.3.3-.4A1,1,0,0,1,11.91,17.45Z" transform="translate(-6.81 -7.45)"/><path class="cls-14" d="M10.11,12.95a10.93,10.93,0,0,1,.8,1.5c0,.1-.2.5-.4.5s-.7-.1-.7-.2C9.81,14.15,9.31,13.45,10.11,12.95Z" transform="translate(-6.81 -7.45)"/><path class="cls-9" d="M16.41,12.75c0-.4-.4-1,.5-.8.1,0,.2-.3.2-.5a4.5,4.5,0,0,0-.2-.8c.5.6.7,1,.3,1.6a1.48,1.48,0,0,0-.1.9,4.54,4.54,0,0,0-.8.2C15.61,12.95,16.61,13,16.41,12.75Z" transform="translate(-6.81 -7.45)"/><path class="cls-12" d="M13.81,18.75c-.1-.4-.1-.8-.2-1.2h1l.2.2c-.1.5-.3,1-.4,1.5A2.65,2.65,0,0,1,13.81,18.75Z" transform="translate(-6.81 -7.45)"/><path class="cls-14" d="M16.41,12.75c.2.3-.8.2-.1.6.1.2.3.3.4.5l-1.2.3a2.54,2.54,0,0,0-.7.2v-.6c.2-.1.3-.3.5-.4A4.07,4.07,0,0,1,16.41,12.75Z" transform="translate(-6.81 -7.45)"/><path class="cls-16" d="M11.61,16.85c0,.1.1.2.1.3a2.19,2.19,0,0,0-.5.3c-.3-.3-.5-.6-.8-.9v-.2l.5-.5a2.12,2.12,0,0,1,.3.7C11.11,16.85,11.11,17,11.61,16.85Z" transform="translate(-6.81 -7.45)"/><path class="cls-16" d="M12.81,11c.4.1.7.2,1.2.3-.2.2-.3.5-.5.6s-.5.1-.5.1C12.91,11.75,12.91,11.45,12.81,11Z" transform="translate(-6.81 -7.45)"/><path class="cls-16" d="M18.21,14.15a3.11,3.11,0,0,1-.6-.4,4.12,4.12,0,0,1,.3-.8h.2c.1.3.2.7.3,1C18.31,14,18.31,14.15,18.21,14.15Z" transform="translate(-6.81 -7.45)"/><path class="cls-4" d="M19,14.25c-.1.2-.2.3-.3.5l-.2-.2c.2-.1.3-.2.5-.3Z" transform="translate(-6.81 -7.45)"/><path class="cls-8" d="M15.21,17.85c0-.2-.1-.3-.1-.5.2-.1.4-.3.6-.4l.9-.3c0,.1.1.2.1.3a1,1,0,0,0-.5.4l-.3.6h-.2c-.1,0-.2-.1-.4-.1Z" transform="translate(-6.81 -7.45)"/><path class="cls-12" d="M15.61,16.55h-.3c-.1-.4-.1-.7-.2-1.1.1-.1.1-.2.2-.3l.6.3C15.81,15.85,15.71,16.15,15.61,16.55Z" transform="translate(-6.81 -7.45)"/><path class="cls-11" d="M16.21,17.95Z" transform="translate(-6.81 -7.45)"/><path class="cls-9" d="M15.51,17.85c.1,0,.2.1.4.1h-.4Z" transform="translate(-6.81 -7.45)"/><path class="cls-12" d="M13.41,20.15c.1-.1.2-.1.3-.2C13.61,20,13.51,20.15,13.41,20.15Z" transform="translate(-6.81 -7.45)"/><path class="cls-17" d="M14.71,16.25c0,.1.1.3.1.4a.76.76,0,0,1-.2.4c-.1-.1-.3-.2-.3-.3a7.49,7.49,0,0,1-.4-1.6,1.7,1.7,0,0,1,.1-.7c0-.1.3,0,.4,0V15c0,.1.1.3.1.4s.1.4.2.6v.2Z" transform="translate(-6.81 -7.45)"/><path class="cls-10" d="M13.91,17.55h-.3c-.2.2-.3.4-.5.6s-.3.4-.4.6l-.1-.1c.1-.4.2-.7.3-1.1a1.76,1.76,0,0,1,.4-.5c.1-.1.2-.1.2-.2H14A2,2,0,0,0,13.91,17.55Z" transform="translate(-6.81 -7.45)"/><path class="cls-9" d="M14.71,16.15c-.1-.2-.1-.4-.2-.6h.6c.1.4.1.7.2,1.1H15c-.1,0-.2-.1-.3-.2h0Z" transform="translate(-6.81 -7.45)"/><path class="cls-14" d="M14,16.85h-.2c.1-.1.1-.3.2-.4h.1A.76.76,0,0,0,14,16.85Z" transform="translate(-6.81 -7.45)"/><path class="cls-14" d="M14.61,17.55h0Z" transform="translate(-6.81 -7.45)"/><path class="cls-13" d="M14.71,16.15v0Z" transform="translate(-6.81 -7.45)"/></g></svg>