<svg id="Calque_1" data-name="Calque 1" xmlns="http://www.w3.org/2000/svg" viewBox="0 0 680 130"><defs><style>.cls-1{fill:#fff;}.cls-2{fill:gray;}.cls-3{fill:#ccc;}.cls-4{fill:#4d4d4d;}.cls-5{fill:#f6f24e;}.cls-6{fill:#f7ae0d;}.cls-7{fill:#f42a0f;}</style></defs><title>Logo</title><path class="cls-1" d="M103.3,91a8.24,8.24,0,0,1-.91,3.31,11,11,0,0,1-2.93,3.2A27.2,27.2,0,0,1,95.78,100l-5.44,2.93a38.44,38.44,0,0,1-5.77,2.34,115.19,115.19,0,0,1-11.4,3.13q-6,1.35-11.71,2.55a19.48,19.48,0,0,1-3.59.58q-.64,0-.64-3.18a4.8,4.8,0,0,0-.06-.86,5.09,5.09,0,0,1-.06-.9q0-1.29-.39-1.54t-4,1.54L45.43,110a5.3,5.3,0,0,1-.51.23l-.48.21-.44.22-.44.22q-2.26,1.13-2.7.61a6.9,6.9,0,0,1-.92-2.47l-1.56-6.24q-.3-1.07-.48-1.58a4,4,0,0,1-.1-1.52,5.07,5.07,0,0,1,2.14,0,1.79,1.79,0,0,0,1.66-.32,1.63,1.63,0,0,0,.36-.83,10.58,10.58,0,0,0-.11-3.18q-.31-2.27-.37-3.24-.06-.55-.13-1.09t-.11-1q-.44-5.6-.49-11.27a19.9,19.9,0,0,1,.13-2.22A20.28,20.28,0,0,0,41,74.21q0-1.19.23-4.46a35.28,35.28,0,0,1,.47-4.19l-.61.22A30.42,30.42,0,0,0,38.2,67q-1.76.84-3,1.32-.83.36-1.23.56a3,3,0,0,1-1.31.21v-.83a6.2,6.2,0,0,1,.34-1.75q.34-1.08.53-1.75,1.84-6.42,2-7.71t4.51-3l1.58-.62A3.07,3.07,0,0,0,43,52.65a3.34,3.34,0,0,0,.4-2.28q-.2-1.27,2.53-3.33T51.54,43q2.87-2,5.66-4.1a31.45,31.45,0,0,1,3.46-2.37q.73-.35.5,1.83-.14,1.19-.2,3a15.38,15.38,0,0,1-.3,2.86,4.61,4.61,0,0,1,.52-.09l.58-.09,3-.69q1-.2,3.34-.47a14.8,14.8,0,0,1,3.3-.13,8.35,8.35,0,0,0,1.18.09q.68,0,1.16,0a22.35,22.35,0,0,1,5.53,1.4,9.18,9.18,0,0,1,4.33,3.44,13.63,13.63,0,0,1,1.51,3.42,14,14,0,0,1,.68,4.21,18.35,18.35,0,0,1-.52,5A15,15,0,0,1,83,64.49a18,18,0,0,1-3.84,4q-.71.53-.69.7a2.59,2.59,0,0,1-.32.88,2.6,2.6,0,0,1,.61.1,3.37,3.37,0,0,0,.59.12l1.19.22q4.49.81,7.48,1.57a24.24,24.24,0,0,1,7,3.46l1.62,1.21L98.17,78a29.76,29.76,0,0,1,2.46,3.13,17.46,17.46,0,0,1,1.72,3.64,16.8,16.8,0,0,1,1,4.51ZM44.65,96.62a2.26,2.26,0,0,0-.12-1.33l-.14,0A4.17,4.17,0,0,0,44.65,96.62Zm19.39,11q-2.8.47-3.71-.29a3,3,0,0,1-.9-2.94q.25-2-.78-2.15-.87-.06-.67,1.51a19.68,19.68,0,0,0,.78,3.7,2.69,2.69,0,0,0,2.72,1.74q3.09.24,11.06-2T83.19,104a63.59,63.59,0,0,0,8.91-4.23,23.09,23.09,0,0,0,7.27-6.23,13.17,13.17,0,0,0,1.52-3.15,5.05,5.05,0,0,0,.08-3.82q-.12,2.32-.21,3.39A8.18,8.18,0,0,1,99,93.36a11.2,11.2,0,0,1-2.15,2.19q-1.28,1-2.64,1.89a52.39,52.39,0,0,1-12.57,5.74A139.91,139.91,0,0,1,68,106.9Q66.85,107.16,64,107.62ZM84.16,54.87a10.39,10.39,0,0,0-.77-4.2,9.67,9.67,0,0,0-4.77-5.19,11.77,11.77,0,0,0-4-1.14A32.39,32.39,0,0,0,70,44.13q-1.07,0-4.72.37a21.46,21.46,0,0,0-4.33.62.74.74,0,0,0-.53.73q0,.5.61.59a35.29,35.29,0,0,0,6-.7,22,22,0,0,1,9.74.47,9.08,9.08,0,0,1,5.46,4,10.55,10.55,0,0,1,1.14,7.64,3.73,3.73,0,0,0-.1,1.12A19.22,19.22,0,0,0,84.16,54.87Zm-22.06,14A6.11,6.11,0,0,0,64,67.16a4.62,4.62,0,0,0,.8-3.62q-.33-2.12-3.22-2.36Zm3.9,22a6.42,6.42,0,0,0,2-1.52,4,4,0,0,0,1.46-2.75,1.92,1.92,0,0,0-1.58-2.13,17.71,17.71,0,0,0-3.74-.35Z"/><path class="cls-1" d="M196.11,67q.18-2.45.32-4.13l.4-4.75q.34-3.15.59-6.42t.61-6.42q.36-3.54.5-5.25t2.76-2.1l12.4-1.78q.55-.08,1.19-.23a7.61,7.61,0,0,1,1.23-.19h.44a2.11,2.11,0,0,1,1.72,1A21.93,21.93,0,0,1,220,40.81l1.47,4.3q3.21,9.41,5,16.55t3.22,16.81l1,8.22q.08.65.42,4.19t1,3.53l6.22-.28q1.8-.28,1.9,1v.2l-.36,8.87a12.76,12.76,0,0,0,0,2.89,1.58,1.58,0,0,1-1.46,1.86,12.81,12.81,0,0,1-3.14.26q-1.65-.06-3.14,0a3.63,3.63,0,0,0-.7.08,3.41,3.41,0,0,1-.76.06l-4.67.1a15.22,15.22,0,0,1-1.59,0l-1.59,0q-.87,0-1.52.06t-1.54.06q-1.66,0-3.14,0t-3.14,0q-1,0-2.87.16a2.34,2.34,0,0,1-2.48-1,6.31,6.31,0,0,1-.51-2.63,15.4,15.4,0,0,1,.06-3,56.76,56.76,0,0,0,.1-5.91q-.06-4.78-.06-6.48,0-1.52.06-3t.06-3.11V66.09a4.15,4.15,0,0,0-.4,1.17l-1.84,8.49-.92,4.48q-.72,3.53-1.57,7.48t-1.62,7.21a16.5,16.5,0,0,1-1.07,3.61,1.37,1.37,0,0,1-1,.42q-1.41.14-2.82.25t-2.84.11q-.77,0-2.47-4T189,90.51q-.34-.67-1.39-3t-2.24-5q-1.19-2.61-2.21-4.77a19.33,19.33,0,0,0-1.26-2.44,30.17,30.17,0,0,0,.34,4.57q.34,2.2.55,4.51l1,8.83a60.14,60.14,0,0,1,.54,6.92q-.07,1.46-3.59,2.58-1,.34-4.43,1.52t-7.11,2.47Q165.5,108,162.41,109a16.49,16.49,0,0,1-3.54.94q-.77-.06-1.39-1.74a64.87,64.87,0,0,1-2.38-7.27q-.34-1.23-.63-2.37t.36-1.32q.89-.22,3.37-.55l2.49-.34q.36-.22.39-1.08a10.82,10.82,0,0,1,.09-1.22,7.55,7.55,0,0,0,0-1.29,6.55,6.55,0,0,1,0-1.31,22.76,22.76,0,0,0,.11-2.47,25,25,0,0,1,.11-2.55L162,79a126.39,126.39,0,0,1,1.65-12.57q1.14-6.22,2.72-12.34.28-1.07.52-2.12t.52-2.12q.36-1.37,1.36-5.36t1.93-4.82a4.07,4.07,0,0,1,2-.69l9.46-1.31,2.38-.32,1.76-.29a1.68,1.68,0,0,1,1.62.49,2.72,2.72,0,0,1,.5.83q.26.65,1.18,4.84t2,9.32q1.07,5.13,2,9.86T195,68.82l.55,2a.11.11,0,0,0,0,.08A23.81,23.81,0,0,0,196.11,67ZM156.68,98.35a.58.58,0,0,0-.46.83q.42,1.41,1.42,4.59t2.39,3.56a7.67,7.67,0,0,0,3.37-.52Q166,106,169.06,105t5.82-2.15l3.88-1.49,1.22-.46,1.24-.48q-5.74,1.6-12,3.27Q168,104,164.75,105a22.82,22.82,0,0,1-4.09,1q-.85,0-1.84-3.17l-1.27-4.12A.62.62,0,0,0,156.68,98.35Zm15.4-56.93a.63.63,0,0,0-.85.5q-1.6,6.24-3,12.17A121,121,0,0,0,166,66.43q-.44,3.41-.79,6.82l-.71,6.82q1.7-9.68,3.65-19t4.39-18.86A.58.58,0,0,0,172.09,41.42Zm12.47,32.12a.59.59,0,0,0-.4.87l3,7.08q1.49,3.53,3.19,7,2.06,4.16,4.08,8.28l-1.55-4.33q-.78-2.17-1.55-4.35Q190,84.49,188.47,81t-3-7.07A.65.65,0,0,0,184.56,73.54ZM210,87.2a.6.6,0,0,0-.67.67q0,2.83.14,10.07t1.92,9.14q1.23,1.35,4,1.16l4.55-.31,7.58-.44L235,107l-5.53,0L224,107l-6,0q-4.5,0-5.4-.68t-1.21-3.16a55.06,55.06,0,0,1-.55-5.56q-.16-3-.15-5.82t0-4Q210.68,87.18,210,87.2Zm6.63-48a.6.6,0,0,0-.46.85q2,6.06,3.56,11.55t3,11.71q2.87,12.47,5.31,24.22l-1.35-9q-.67-4.48-1.43-9A149.92,149.92,0,0,0,222,54.45q-1.94-7-4.49-14.83A.64.64,0,0,0,216.6,39.18Z"/><path class="cls-1" d="M303.8,91a8.23,8.23,0,0,1-.91,3.31,11,11,0,0,1-2.93,3.2,27.2,27.2,0,0,1-3.68,2.49l-5.44,2.93a38.44,38.44,0,0,1-5.77,2.34,115.2,115.2,0,0,1-11.4,3.13q-6,1.35-11.71,2.55a19.48,19.48,0,0,1-3.59.58q-.64,0-.64-3.18a4.81,4.81,0,0,0-.06-.86,5.11,5.11,0,0,1-.06-.9q0-1.29-.39-1.54t-4,1.54L245.92,110a5.3,5.3,0,0,1-.51.23l-.48.21-.44.22-.44.22q-2.26,1.13-2.7.61a6.9,6.9,0,0,1-.92-2.47l-1.56-6.24q-.3-1.07-.48-1.58a4,4,0,0,1-.1-1.52,5.07,5.07,0,0,1,2.14,0,1.79,1.79,0,0,0,1.66-.32,1.63,1.63,0,0,0,.36-.83,10.58,10.58,0,0,0-.11-3.18q-.31-2.27-.37-3.24-.06-.55-.13-1.09t-.11-1q-.44-5.6-.49-11.27a19.9,19.9,0,0,1,.13-2.22,20.28,20.28,0,0,0,.13-2.26q0-1.19.23-4.46a35.32,35.32,0,0,1,.47-4.19l-.61.22A30.42,30.42,0,0,0,238.7,67q-1.76.84-3,1.32-.83.36-1.23.56a3,3,0,0,1-1.31.21v-.83a6.2,6.2,0,0,1,.34-1.75q.34-1.08.53-1.75,1.84-6.42,2-7.71t4.51-3l1.58-.62a3.07,3.07,0,0,0,1.31-.74,3.34,3.34,0,0,0,.4-2.28q-.2-1.27,2.53-3.33T252,43q2.87-2,5.66-4.1a31.48,31.48,0,0,1,3.47-2.37q.73-.35.49,1.83-.14,1.19-.2,3a15.36,15.36,0,0,1-.3,2.86,4.6,4.6,0,0,1,.52-.09l.58-.09,3-.69q1-.2,3.34-.47a14.8,14.8,0,0,1,3.3-.13,8.35,8.35,0,0,0,1.18.09q.68,0,1.16,0a22.35,22.35,0,0,1,5.53,1.4,9.18,9.18,0,0,1,4.33,3.44,13.64,13.64,0,0,1,1.51,3.42,14,14,0,0,1,.68,4.21,18.35,18.35,0,0,1-.52,5,15,15,0,0,1-2.21,4.13,18,18,0,0,1-3.84,4q-.71.53-.69.7a2.6,2.6,0,0,1-.32.88,2.6,2.6,0,0,1,.61.1,3.37,3.37,0,0,0,.59.12l1.19.22q4.49.81,7.48,1.57a24.24,24.24,0,0,1,7,3.46l1.62,1.21L298.67,78a29.76,29.76,0,0,1,2.46,3.13,17.46,17.46,0,0,1,1.72,3.64,16.8,16.8,0,0,1,1,4.51Zm-58.65,5.66A2.26,2.26,0,0,0,245,95.3l-.14,0A4.16,4.16,0,0,0,245.15,96.62Zm19.39,11q-2.8.47-3.71-.29a3,3,0,0,1-.9-2.94q.25-2-.78-2.15-.87-.06-.67,1.51a19.67,19.67,0,0,0,.78,3.7A2.69,2.69,0,0,0,262,109.2q3.09.24,11.06-2t10.64-3.2a63.59,63.59,0,0,0,8.91-4.23,23.09,23.09,0,0,0,7.27-6.23,13.17,13.17,0,0,0,1.52-3.15,5.05,5.05,0,0,0,.08-3.82q-.12,2.32-.21,3.39a8.18,8.18,0,0,1-1.75,3.35,11.2,11.2,0,0,1-2.15,2.19q-1.28,1-2.64,1.89a52.39,52.39,0,0,1-12.57,5.74,139.91,139.91,0,0,1-13.6,3.72Q267.35,107.16,264.55,107.62Zm20.11-52.76a10.39,10.39,0,0,0-.77-4.2,9.67,9.67,0,0,0-4.77-5.19,11.77,11.77,0,0,0-4-1.14,32.39,32.39,0,0,0-4.54-.21q-1.07,0-4.72.37a21.46,21.46,0,0,0-4.33.62.74.74,0,0,0-.53.73q0,.5.61.59a35.29,35.29,0,0,0,6-.7,22,22,0,0,1,9.74.47,9.08,9.08,0,0,1,5.46,4,10.56,10.56,0,0,1,1.14,7.64,3.72,3.72,0,0,0-.1,1.12A19.22,19.22,0,0,0,284.65,54.87Zm-22.06,14a6.11,6.11,0,0,0,1.94-1.7,4.62,4.62,0,0,0,.8-3.62q-.33-2.12-3.22-2.36Zm3.9,22a6.43,6.43,0,0,0,2-1.52,4,4,0,0,0,1.46-2.75,1.92,1.92,0,0,0-1.58-2.13,17.71,17.71,0,0,0-3.74-.35Z"/><path class="cls-1" d="M304.4,109.16l-.36-1.66-2.71-14a17.38,17.38,0,0,0-.45-3.94,17.64,17.64,0,0,1-.45-4l-1.37-12.73-.44-5.56-1.09-22a5.07,5.07,0,0,1,1.8-.53,10,10,0,0,0,1.84-.42l10.2-4.18q.61-.26,1.25-.57a3,3,0,0,1,1.35-.32q.89,0,1,1.57t.16,2.17l.1,2.42q.06.75.06,2.38a3.68,3.68,0,0,1,.94-.21l1.08-.15,6-.93q2.08-.3,4-.62l4-.64,12.14-1.88q1.17-.18,2.33-.39a13.25,13.25,0,0,1,2.35-.21q1.54,0,.91,1.4t-1,2l-2,3.54-.49.88-.49.86q-.51.85-1,1.78L341.9,57.8q-.14.26-.26.44a2.87,2.87,0,0,0-.24.46l-1.87,3.76a18.37,18.37,0,0,0-1.44,3.94,27,27,0,0,0-.77,4.73q-.16,2-.73,2a18.76,18.76,0,0,1-3.72-.49q-2.32-.49-3.62-.83L327,71.31a5.15,5.15,0,0,1-2-.72,4.67,4.67,0,0,1-.41-2.45,24.61,24.61,0,0,1,0-2.76,6.73,6.73,0,0,0,0-2.2q-.1-.28-.53-.24-1.82.24-3.61.6a18.49,18.49,0,0,1-3.71.37,3.32,3.32,0,0,0,0,.51q0,.18,0,.53a16.21,16.21,0,0,0,.55,3.48A22,22,0,0,1,318,71.3a5.58,5.58,0,0,1,1.9-.4q1.29-.1,2.14-.1,1.11,0,1.51,1.92t.64,2.73l1.43,5.21q.28,1.11.44,1.86a4.72,4.72,0,0,1,.08,2.43q-.28.6-3.37.6.24.49.68,1.27a3,3,0,0,1,.47,1.33,20.07,20.07,0,0,1,2.24-.25q1.7-.13,2.47-.23l6.36-.46a10.28,10.28,0,0,1,1.56-.12,2.3,2.3,0,0,0,.44,0l.4,0,2.42-.08a1.49,1.49,0,0,0,.42,0,1.39,1.39,0,0,1,.4,0l2-.12q.84-.06,2.09-.06a6.76,6.76,0,0,0,.77,0,7.43,7.43,0,0,1,.85,0,3.48,3.48,0,0,1,2.54.69,8.13,8.13,0,0,1,1.32,2.26q.24.63.5,1.21l.53,1.17q.77,1.82,1.46,3.65t1.44,3.67q.42,1.11,1.62,3.78a11.42,11.42,0,0,1,1.21,3.6q0,.71-.63.71a4.48,4.48,0,0,1-1.89-.29,6.27,6.27,0,0,0-2.66-.11,2.83,2.83,0,0,1-.42,0h-.4l-3.8.16a14.18,14.18,0,0,0-1.52.08,14.58,14.58,0,0,1-1.56.08,27,27,0,0,0-3,.17,26.86,26.86,0,0,1-3,.17l-1.56,0q-1,0-1.5.08a19.44,19.44,0,0,1-3,.2q-1.53,0-3.06.1-1,.08-1.52.08l-15.35.73a5.27,5.27,0,0,0-.7,0,5.63,5.63,0,0,1-.74,0l-3,.16a5.35,5.35,0,0,1-.79,0,3.84,3.84,0,0,0-.77,0l-.19,0H304.4Zm-.16-11-.06-.59h-.1A1.07,1.07,0,0,0,304.24,98.13Zm46-4.36q-.22-.42-.61-1.24t-.87-.84q-1,0-.58.92t.56,1.3q.28.59.58,1.2l.6,1.2q.32.63,1.78,3.78t1.35,3.78q-.1.38-1.25.55l-1.54.24q-3.5.44-6.53.59-3.33.2-6.66.49t-6.64.49l-3.33.25-3.33.25-1.64.15-1.62.13-1.7.13a6.27,6.27,0,0,0-1.54.23q2.08,0,4.11,0l4.11-.14q5.11-.1,10.31-.31t10.29-.49q1.5-.06,3.27-.22a19.9,19.9,0,0,0,3.15-.51q2-.53,1.89-1.7a11.67,11.67,0,0,0-.8-2.79Zm-12-33q1.06-2,1.77-3.24,1-1.82,2.27-3.84l2.39-3.84q.53-.87,1.47-2.64t-.36-2.45a7.56,7.56,0,0,0-3.16-.21q-2.47.15-5.36.5t-5.52.77l-3.64.57-2.24.34a4,4,0,0,0-1.88.51,1.17,1.17,0,0,0-.12.64q0,.49,1.27.33a21.73,21.73,0,0,0,2.16-.36l3.59-.55q2.64-.42,5.56-.8t5.42-.6a11.45,11.45,0,0,1,3.17,0,.08.08,0,0,1,0,.06l-.28,1.17a80.36,80.36,0,0,1-4.45,8.76,29.82,29.82,0,0,0-3.59,8.37h.16A12.82,12.82,0,0,1,338.24,60.78Z"/><path class="cls-1" d="M369.58,37.14a.89.89,0,0,1,.77.5,6.58,6.58,0,0,1,.15,2.1q0,1.56,0,2.34a15.34,15.34,0,0,0,2.22-.36q10.14-2,17.84,2.26a38.47,38.47,0,0,1,4.24,3,4.08,4.08,0,0,1,.44.47,6,6,0,0,0,.44.49,15.84,15.84,0,0,1,2.38,3q4.06,6.75.65,14.43-1.6,3.54-2.82,4.39A6.6,6.6,0,0,0,394,71.38a7,7,0,0,0,1.35-.18l1.25-.32,5.09-1q2.26-.46,8.1-1.51t7.7-.07a1.84,1.84,0,0,1,.89,1.64,1.09,1.09,0,0,1,0,.3,1.33,1.33,0,0,0,0,.34,30.59,30.59,0,0,1-1,6.21q-1,4.13-1.43,5.91-.53,2.08-1,4.13t-1,4.11q-.44,1.76-.92,3.56t-.82,3.58q-.3,1.58.12,1.71a5.66,5.66,0,0,0,1.84,0,13.7,13.7,0,0,1,2-.1l2,0q1.39,0,1.39.63l-.28,4a5.1,5.1,0,0,0-.06.83l-.53,5.92a8.64,8.64,0,0,1-.25,1.5,1,1,0,0,1-1.06.85l-2.81-.14-2.41-.18q-1.24-.1-2.37-.26-.48-.06-.92-.08t-.86-.08q-1.33-.18-2.6-.29t-2.58-.27q-.83-.08-1.7-.21t-1.76-.19l-2.67-.24-.43,0-.41,0q-.89-.12-1.72-.15a13.88,13.88,0,0,1-1.78-.19q-2.1-.36-2.1-2.1a38.72,38.72,0,0,1,.73-5.16q.73-4,1-5.26l2.67-13.5a12.36,12.36,0,0,0,.45-4q-.21-.75-2.47-.26l-7.74,1.84-1.58.41a8.89,8.89,0,0,1-1.48.31,4,4,0,0,0,.66,1.63q.66,1.14.92,1.65l.83,1.56q.59,1.21,1.27,2.36t1.33,2.3l.83,1.63a4.36,4.36,0,0,1,.57,1.77,2,2,0,0,1-1,1.52,18.35,18.35,0,0,1-1.58,1,20.76,20.76,0,0,1-1.92,1q-1,.48-1.9,1l-1.27.69-.83.47-.83.47q-1.27.67-2.5,1.41t-2.5,1.39l-.43.24-.43.24-4.12,2.3q-.65.34-1.28.71t-1.28.69l-2.06,1.15q.28-.16-.44.2a7.11,7.11,0,0,1-1.79.67q-.39,0-1.28-1.15l-.48-.67-1.39-2.06q-.69-1-1.33-2.12t-1.29-2.16a18.75,18.75,0,0,1-1.62-3q-.06-.39,2.93-1.89l1.67-.85a5.32,5.32,0,0,0,1.44-.91,5.71,5.71,0,0,0-.36-.86l-.42-.88a42.71,42.71,0,0,1-2.14-6.76q-1.25-4.88-1.66-7-1-4.69-1.49-8.55-.36-2.32-.57-4.49a5.39,5.39,0,0,1,0-.56q0-.29,0-.58-.06-.46-.13-1.74t-.07-1.78A26.55,26.55,0,0,0,351.21,65l-2.76,1.67a5.53,5.53,0,0,1-.75.36l-.22-1.15q0-.36-.08-1.07V62.45l.06-2.2a1.32,1.32,0,0,1,0-.34,1.32,1.32,0,0,0,0-.34,23.74,23.74,0,0,1,.22-2.71,8.29,8.29,0,0,1,1-3.43l.63-.79A12.49,12.49,0,0,1,351,51.3l.22-.15.22-.17,1.29-.89q1.45-.89,1.5-1.43.16-1.58.51-3.8A7.59,7.59,0,0,1,356,41.54a3.56,3.56,0,0,1,1.7-1.23q1.09-.4,2.26-.73l.58-.15.58-.17,3.47-1,1.15-.33,1.13-.33q.28-.06.91-.26a6.18,6.18,0,0,1,1.27-.26Zm16.14,59.48q-.14,0-1.9,1l-3.9,2-4,2.13q-1.9,1-2.28,1.18-.89.42-2,1.07t-2,1.13l-2,1.08q-1,.54-2,1a3.28,3.28,0,0,1-2.45.44,7,7,0,0,1-3.17-3.09q-1.49-2.44-2.34-3.76-.42-.63-1-.28t-.12,1.07q1.17,2,2.43,3.91a9.86,9.86,0,0,0,2.92,3,2.93,2.93,0,0,0,2.35.6,12.78,12.78,0,0,0,2.29-.86q1-.49,2-1.06l2-1.12q2-1.13,3.88-2.32t3.8-2.34q.48-.28.93-.57l.93-.59ZM363.4,93.54v0l0,0,0,0,0,0Zm0,.06,0,0Zm0,.08,0,0Zm0,.06,0,0Zm.08.16,0,0,0,0,0,0,0,0v0l0,0Zm.1.2h0v0l0,0,0,0v0l0,0,0,0v0l0,0Zm.14.38v0l0,0v0h0v0l0,0v0l0,0v0l0,0v0l0,0v0h0v0l0,0v0l0,0v0l0,0,0,0Zm0,.06v0Zm.16.42,0,0v0l0,0v0l0,0v0l0,0v0l0,0,0,0v0l0,0,0,0v0l0,0v0l0,0v0l0,0v0l0,0,0,0Zm.06.12h0v0h0v0l0,0v0l0,0Zm0,.08h0v0l0,0Zm32.11-39.27q-.31-1.44-.49-2.09a13.44,13.44,0,0,0-6.83-8.22,20.45,20.45,0,0,0-7.76-2.26,43.7,43.7,0,0,0-4.81-.1l-2.46.13a5.55,5.55,0,0,0-2.16.33q-.16.12-.23.7t1.12.47a52.41,52.41,0,0,1,9.61,0A18.27,18.27,0,0,1,391,48.37q.4.28,1.39,1.13l1.21,1.35a14.73,14.73,0,0,1,1.76,3.21q.18.46.64,2a9.53,9.53,0,0,1,.47,1.92A9.9,9.9,0,0,0,396.18,55.87Zm-22.93,6.39a45.38,45.38,0,0,0,1.4,4.36q.1.28.46,1.38a11.18,11.18,0,0,1,.4,1.4,6.35,6.35,0,0,0,1.21-.85,10.7,10.7,0,0,0,1.74-1.7,12.07,12.07,0,0,0,1.13-1.62,5,5,0,0,0-.14-5.15,5.46,5.46,0,0,0-4.24-1.9L372.29,58A32.4,32.4,0,0,0,373.25,62.25Zm38.16,49.27-2.84-.35-2.75-.33-2.73-.33q-1.48-.14-4-.47a21,21,0,0,1-3.9-.8,1.86,1.86,0,0,1-1.5-1.6,14.67,14.67,0,0,1,0-2.83q.16-1.58.34-2.83.36-2.73.83-5.31l1.43-7.74a2.42,2.42,0,0,0,.08-1.27q-.44-.79-1-.16a2.09,2.09,0,0,0-.4,1.13q-.14.89-.22,1.31l-1.41,7.76q-.3,1.76-.81,5.63a14.1,14.1,0,0,0,0,5.42,2.3,2.3,0,0,0,1.56,1.49,10.64,10.64,0,0,0,2.53.54q2.57.24,5.75.43t5.79.31l3,.19q2.11.13,2.8.09Q413.69,111.81,411.41,111.52Zm2.27-25.15q1-3.38,1.25-4.37.44-1.68,1.48-5.87t0-5.87q-.46-.73-2.14-.73a21.5,21.5,0,0,0-2.64.13q-1.38.15-2.6.33-2.48.36-4.88.81l-4.82.89a2.79,2.79,0,0,0-1,.34.62.62,0,0,0,.16,1,1.65,1.65,0,0,0,1.15,0l1.25-.27,2.39-.44,2.43-.44q1.45-.24,4.38-.67a26,26,0,0,1,4.46-.38q.89,0,1,.44.5,1.84-.74,8.11t-1.85,9q-.1.46-.3,1.2a4.81,4.81,0,0,0-.2,1.14Q412.7,89.75,413.67,86.38Z"/><path class="cls-1" d="M461.14,69.23q.18-2.47.32-4.17l.4-4.79q.34-3.18.6-6.47t.62-6.47q.36-3.58.51-5.29t2.79-2.12l12.51-1.8q.56-.08,1.2-.23a7.67,7.67,0,0,1,1.24-.19h.44a2.13,2.13,0,0,1,1.74,1,22.13,22.13,0,0,1,1.74,4.1l1.48,4.34q3.24,9.49,5,16.7t3.25,17l1,8.29q.08.66.42,4.23t1,3.57l6.27-.28q1.82-.28,1.92,1v.2l-.36,9a12.89,12.89,0,0,0,0,2.92,1.6,1.6,0,0,1-1.47,1.88,12.92,12.92,0,0,1-3.17.26q-1.67-.06-3.17,0a3.65,3.65,0,0,0-.71.08,3.44,3.44,0,0,1-.77.06l-4.71.1a15.36,15.36,0,0,1-1.61,0l-1.61,0q-.88,0-1.54.06t-1.56.06q-1.68,0-3.17.05t-3.17,0q-1.06,0-2.9.16a2.37,2.37,0,0,1-2.5-1.06,6.37,6.37,0,0,1-.52-2.66,15.54,15.54,0,0,1,.06-3,57.29,57.29,0,0,0,.1-6q-.06-4.82-.06-6.54,0-1.54.06-3t.06-3.14V68.32a4.19,4.19,0,0,0-.4,1.18l-1.86,8.57q-.2,1-.93,4.53t-1.59,7.55q-.86,4-1.64,7.27a16.65,16.65,0,0,1-1.08,3.65,1.38,1.38,0,0,1-1.06.42q-1.42.14-2.85.25t-2.87.11q-.78,0-2.5-4T454,93q-.34-.68-1.4-3.07t-2.26-5q-1.2-2.64-2.23-4.81a19.53,19.53,0,0,0-1.27-2.46,30.44,30.44,0,0,0,.34,4.62q.34,2.22.56,4.56l1,8.91a60.63,60.63,0,0,1,.55,7q-.07,1.47-3.63,2.61-1.06.34-4.47,1.54T434,109.28q-3.77,1.29-6.88,2.3a16.64,16.64,0,0,1-3.58.95q-.78-.06-1.4-1.76a65.45,65.45,0,0,1-2.4-7.33q-.34-1.24-.64-2.39t.36-1.33q.9-.22,3.4-.56l2.52-.34q.36-.22.39-1.09a10.87,10.87,0,0,1,.09-1.23,7.63,7.63,0,0,0,0-1.3,6.61,6.61,0,0,1,0-1.32,23,23,0,0,0,.11-2.5,25.25,25.25,0,0,1,.11-2.58l.6-7.49a127.47,127.47,0,0,1,1.67-12.69q1.15-6.27,2.75-12.45.28-1.08.53-2.14t.53-2.14q.36-1.38,1.37-5.4t1.95-4.86a4.11,4.11,0,0,1,2-.7l9.55-1.32,2.4-.32,1.78-.29a1.7,1.7,0,0,1,1.64.49,2.75,2.75,0,0,1,.5.84q.26.66,1.19,4.88t2,9.4q1.08,5.17,2.06,9.95T460,71.07l.56,2a.12.12,0,0,0,0,.08A24,24,0,0,0,461.14,69.23Zm-39.78,31.64a.58.58,0,0,0-.46.84q.42,1.42,1.43,4.63t2.41,3.6a7.74,7.74,0,0,0,3.4-.53q2.64-.77,5.71-1.86t5.87-2.17l3.92-1.5,1.23-.46,1.25-.48q-5.79,1.62-12.09,3.3-1.2.34-4.53,1.37a23,23,0,0,1-4.13,1q-.86,0-1.86-3.2l-1.28-4.16A.63.63,0,0,0,421.37,100.86Zm15.54-57.44a.63.63,0,0,0-.86.5q-1.62,6.29-3,12.28a122,122,0,0,0-2.22,12.46q-.44,3.44-.8,6.88l-.72,6.88Q431,72.65,433,63.27t4.43-19A.59.59,0,0,0,436.91,43.42Zm12.59,32.4a.6.6,0,0,0-.4.88l3,7.14q1.5,3.57,3.22,7,2.08,4.2,4.12,8.35l-1.57-4.37q-.79-2.19-1.57-4.38-1.32-3.62-2.85-7.17t-3-7.13A.65.65,0,0,0,449.5,75.83Zm25.63,13.78a.6.6,0,0,0-.68.68q0,2.86.14,10.16t1.94,9.22q1.24,1.36,4,1.17l4.59-.31,7.65-.44,7.65-.46-5.58,0-5.54,0-6.08,0q-4.54,0-5.44-.69t-1.22-3.19a55.56,55.56,0,0,1-.56-5.61q-.16-3-.15-5.87t0-4Q475.85,89.59,475.13,89.61Zm6.69-48.45a.6.6,0,0,0-.46.86q2,6.11,3.6,11.66T488,65.5q2.9,12.59,5.35,24.43l-1.36-9q-.68-4.52-1.44-9a151.27,151.27,0,0,0-3.34-15.28q-2-7.07-4.54-15A.64.64,0,0,0,481.82,41.17Z"/><path class="cls-1" d="M505,111.79q-.9-.32-2.46-4.51-.3-.78-.94-2.56a5.07,5.07,0,0,1-.42-2.68q.22-1,2.12-1.16,2.52-.22,2-2.34a40.11,40.11,0,0,1-1.26-12.19q.08-1.44.32-3.08t.52-3.14a2.22,2.22,0,0,1,.22-.74,2.89,2.89,0,0,0,.26-.76L506.87,74a72.43,72.43,0,0,1,3.55-7.76q2-3.75,4.24-7.4.3-.5.71-1.12a4.69,4.69,0,0,0,.61-1.34,13.56,13.56,0,0,1-1.36-.37q-.56-.19-1.36-.39t-2.61-.52a10.84,10.84,0,0,1-2.19-.54,1.26,1.26,0,0,1-.6-1.44l.66-4q.34-1.42.56-2.9t.6-3.1q.12-.58,1.54-.25l2.14.49,6.07,1.3a7,7,0,0,0,1,.17,9,9,0,0,1,1,.15,32.37,32.37,0,0,0,7.07.65,30,30,0,0,0,6.91-.69q.82-.18,1.78-.43a3.63,3.63,0,0,1,1.74-.07q1,.24,3.23,3.29t3,4.07a29.16,29.16,0,0,1,1.65,2.49q.75,1.27,1.57,2.51a2.89,2.89,0,0,0,.34.5,4.45,4.45,0,0,1,.36.48l3,5.13q.48.94,1.09,1.89T554.38,67l2.18,4.22q.6,1.34,1.32,2.67a12.72,12.72,0,0,1,1.1,2.73,4.11,4.11,0,0,1,.74-.07,5.31,5.31,0,0,0,.8-.07q1-.14,2.4-.44a5.52,5.52,0,0,1,2.36-.08q.94.24,1.46,2.75t1,3.95a8.3,8.3,0,0,1,.47,2.32q0,.66-1.41.88-.68.12-2.29.54a12.09,12.09,0,0,1-2,.42q.1.4.17.85t.17.85q.06.2.1.4c0,.13.06.27.1.4l.7,3.22q.14.82.72.68a7.59,7.59,0,0,0,2-1.08,9.37,9.37,0,0,1,2.66-1.28,8.42,8.42,0,0,1,1.14,2.54q.24.78,1.41,4t1,3.88q-.18.74-2.75,2.12t-3.29,1.72q-.94.46-1.82,1t-1.78,1l-.56.26-18.7,10a20.87,20.87,0,0,1-3.85,1.5q-1.95.54-2-2.68,0-1.74.08-3.4.28-4.4.18-8.23t-.5-8.19q-.06-.6-.21-1.54a4.94,4.94,0,0,1,0-1.54,6.92,6.92,0,0,0-2.46.46,4.93,4.93,0,0,1-2.48.28,39.36,39.36,0,0,0,1.36,5.22q.46,1.09-3.3,2.73l-5.41,2.2-.9.34L509,110.73a14.75,14.75,0,0,1-3.66,1.12Zm4.17-17.05q-.13-1.69-.13-2.67-.24-10.85,2.16-17.81a62.47,62.47,0,0,1,8.41-15.41l.73-1q.23-.34-.17-1.2-.9-.24-1.24.18t-.76,1q-6.55,9.17-8.65,16t-1,18.26q.06.76.27,2.71a14.21,14.21,0,0,0,.39,2.45A11.41,11.41,0,0,0,509.2,94.74ZM511,49a7.54,7.54,0,0,1,.84-3q.34-.7,1.4-.52a43.77,43.77,0,0,1,6.86,1.76q2,.8,8.1.44.84,0,1.64-.13l1.6-.19q.48-.06,1.67-.27a8.87,8.87,0,0,1,1.49-.19,18,18,0,0,0-5.09,0,32.48,32.48,0,0,1-10.29-1.3q-4.62-1.14-6.57-1.56t-2.86,3.64q-.36,1.56-.53,2.49t.89,1.09A3.31,3.31,0,0,0,511,49Zm19.36,19.09q-.14,1-.28,2t-.26,2q-.18,1.38-.4,3.88a12.87,12.87,0,0,0,0,3.54,13.44,13.44,0,0,0,2.85,0,18.18,18.18,0,0,1,2.55-.1L534,75.43q-.24-1-.49-1.91T533,71.57l-.89-3.75A20.47,20.47,0,0,0,531.07,64Zm11.12,37.44q.45-3.7-.95-11.13-.58-3-1.4-2.41a1.33,1.33,0,0,0-.64,1.43q.24,1.18.48,2.27t.44,2.35a36.18,36.18,0,0,1,.34,7.86,39.14,39.14,0,0,0,.14,7.24,5.32,5.32,0,0,0,.73,2.19q.59,1,2.19.49a12.16,12.16,0,0,0,2.78-1.45q1.82-1.17,2.92-1.79a7.81,7.81,0,0,0,.92-.6,8,8,0,0,1,1-.62q.78-.38,3.36-2.08t4-2.54l7.19-3.9a1.81,1.81,0,0,0,.54-.38,11,11,0,0,0-3.1,1.17l-3,1.49q-2.56,1.3-5.13,2.73t-5,2.65q-1,.52-1.46.78-.78.44-3,1.63a9.9,9.9,0,0,1-3,1.23A31.41,31.41,0,0,1,541.49,105.52Z"/><path class="cls-1" d="M594.86,51.71l3.48-1.35,12.91-5q1.46-.6,3.3-1.26,3.48-1.3,4.36-.9t1.48,4.69l1.42,12.21q.12,1.54.31,3t.37,3q.5,4.46,1,9.17t1.12,9.15q.68,5.09,1,5.26t3.73-1a33.55,33.55,0,0,1,4-1.21,11.41,11.41,0,0,1,2.19,1.55L645,97.47l1.4,1.21a1.85,1.85,0,0,1,.8,1.27q0,.7-2.67,1.44l-3.57,1-24.57,6.91-3.47.95a2.6,2.6,0,0,1-3-.73q-1-1.2-2.12-6.9t-1.62-7.88q-1-4.06-1.83-8.47t-1.83-8.45q-.42-1.68-.74-3.35t-.7-3.41q-1.32-5.67-1.71-6.12t-3.81-.09q-1.16.1-1.92.14a7.5,7.5,0,0,0-.93.11,7.48,7.48,0,0,1-.89.11,3.35,3.35,0,0,0-.09,1.49l.33,1.57q.14.74.46,2.26l1.9,9q.56,2.82,1.54,6.61t1.76,6.35a20.43,20.43,0,0,0,.7,2q.38.92.82,1.94a17.44,17.44,0,0,0,1.78,3.61q.34.25-4.08,2l-5.53,2.1q-2.88,1.12-6.12,2.25t-6.06,2.27l-8.89,3.28a36.08,36.08,0,0,1-4.34,1.38h-.18q-.9,0-1.66-2.34-.42-1.3-1.53-4.37t-1.39-4.11q-.36-1.38.47-1.55t3.93-1.21a16.24,16.24,0,0,0,2.44-.94q.46-.28.46-3.8V66a17.94,17.94,0,0,0-.1-1.82q-.2-1.64-.64-1.62l-1,.26-2,.55a8.33,8.33,0,0,1-1.83.37,2.35,2.35,0,0,1-.34-.58q0-2,.35-7T564.89,50a7.56,7.56,0,0,1,3.18-1.27l3.58-.73,16.92-3.54,1.92-.38q1.52-.3,1.52.42a28.29,28.29,0,0,1-.28,3.09q-.28,2.19-.44,3.35-.26,1.76.28,1.76A12.15,12.15,0,0,0,594.86,51.71Zm-30.19,5.48a.57.57,0,0,0,.72-.56q.18-1.28.45-3.15a2.79,2.79,0,0,1,1.55-2.41,25.16,25.16,0,0,1,4.44-1.17q3.18-.63,4.85-1l6.13-1.49L589,45.88q-3.26.5-11.36,1.69T566.89,49.9a3.52,3.52,0,0,0-2.16,2.78q-.36,2-.6,3.78A.56.56,0,0,0,564.67,57.19Zm5.53,4.59a.57.57,0,0,0-.64.64q.06,6.31.11,12.6T570,87.6q.12,3.3.26,6.58l.28,6.58q.08-3.3.17-6.58t.17-6.6Q571,81.28,571,75t-.1-12.59A.57.57,0,0,0,570.2,61.78Zm32.4-9.61q.2.62.84.36l7-2.8q5.63-2.26,6.29-1.6T618,54.71q.62,5.89.86,7.57.78,6,1.54,12t1.54,12q-.64-7.91-1.24-15.93t-1.46-15.93q-.18-1.36-.51-4.15t-1.69-3.33q-1.5-.6-6.82,1.55l-7.28,2.93A.56.56,0,0,0,602.61,52.18Zm5,39.54q-.64.2-.46.78.62,2.38,2.24,8.22t3.64,6.94q1.56.88,5-.22l5.22-1.68,7.93-2.53,8-2.55-8.09,2.07-8.07,2-4.74,1.26q-3.43.92-4.35.56-1.72-.6-3.37-6.59t-2.13-7.85A.58.58,0,0,0,607.64,91.71Z"/><g id="Bombe"><circle cx="126.07" cy="73.61" r="31.56"/><path class="cls-1" d="M139.23,56.91c.94,0,1.85-.07,2.75-.15a4.33,4.33,0,0,0,1.12-.26,1.16,1.16,0,0,0,.82-1.68,20.16,20.16,0,0,0-1.05-2.12c-.26-.49-.55-1-.83-1.45l.17-.17c1.14.82,2.36,1.56,3.42,2.47a21.73,21.73,0,0,1,7.48,14.26,54,54,0,0,1,.09,9.66,4.23,4.23,0,0,1-.18,1.16c0-.24-.08-.49-.12-.73a31,31,0,0,0-5.82-14.72,18.41,18.41,0,0,0-7.59-6.11A1.92,1.92,0,0,1,139.23,56.91Z"/><ellipse class="cls-2" cx="135.5" cy="51.71" rx="2.63" ry="6.03" transform="translate(47.32 166.85) rotate(-73.44)"/><polygon class="cls-2" points="129.7 50.06 131.32 46.1 142.89 49.54 141.27 53.5 129.7 50.06"/><ellipse class="cls-3" cx="137.13" cy="47.75" rx="2.63" ry="6.03" transform="matrix(0.29, -0.96, 0.96, 0.29, 52.27, 165.58)"/><path class="cls-1" d="M145.2,32.85c-5.75,4.81-9.69,13.86-9.69,13.86h0a.52.52,0,0,0-.15.23c-.16.53.61,1.22,1.72,1.55s2.13.17,2.29-.36a.49.49,0,0,0,0-.11A43.85,43.85,0,0,1,147,36.3c5.23-5.75,9.51-3.87,9.51-3.87L157.64,29A17.23,17.23,0,0,0,145.2,32.85Z"/><path class="cls-4" d="M139.24,48.32a2.75,2.75,0,0,1-1.45-1.09,4.13,4.13,0,0,1-.7-1.72,4.93,4.93,0,0,1,.07-1.83,7,7,0,0,1,.28-.86,6,6,0,0,1,.45-.78,7,7,0,0,1,0,.88c0,.29,0,.56,0,.84a12.85,12.85,0,0,0,.14,1.59A7,7,0,0,0,139.24,48.32Z"/><path class="cls-4" d="M141.87,43.09a2.75,2.75,0,0,1-1.26-1.31,4.13,4.13,0,0,1-.42-1.81,4.93,4.93,0,0,1,.36-1.79,7,7,0,0,1,.41-.8,6,6,0,0,1,.57-.7,7,7,0,0,1-.11.87c0,.28-.08.56-.11.83a12.85,12.85,0,0,0-.11,1.59A7,7,0,0,0,141.87,43.09Z"/><path class="cls-4" d="M145,38.82a2.75,2.75,0,0,1-1-1.5,4.13,4.13,0,0,1-.11-1.85,4.93,4.93,0,0,1,.66-1.7A7,7,0,0,1,145,33a6,6,0,0,1,.68-.59,7,7,0,0,1-.25.84c-.08.28-.17.54-.25.8a12.85,12.85,0,0,0-.38,1.55A7,7,0,0,0,145,38.82Z"/><path class="cls-4" d="M148.6,34.79a1.9,1.9,0,0,1-.26-1.48,5.11,5.11,0,0,1,.45-1.4,5.54,5.54,0,0,1,1.87-2.19,6.62,6.62,0,0,1-.41,1.38c-.17.43-.36.84-.56,1.25l-.6,1.19A4.56,4.56,0,0,0,148.6,34.79Z"/><path class="cls-4" d="M153.82,32.28a7,7,0,0,1,.34-1,6.05,6.05,0,0,1,.52-.93,4.49,4.49,0,0,1,1.61-1.48,4.26,4.26,0,0,1-.79,2,5.11,5.11,0,0,1-.71.81,3.73,3.73,0,0,1-.44.35l-.26.15-.14.06-.08,0h-.06S153.82,32.28,153.82,32.28Z"/><polygon class="cls-5" points="157.27 31.04 145.79 6.59 159.83 24.28 171.86 11.14 163.73 23.08 177.34 22.28 166.08 25.24 184.93 33.66 166.2 28.67 176.01 45.92 164.75 31.83 164.98 40.91 161.63 32.74 141.14 35.99 157.27 31.04"/><polygon class="cls-6" points="159.62 24.91 149.71 19.28 156.8 27.21 147.73 37.2 159.31 30.55 157.65 35.84 162.23 31.6 168.32 36.78 163.86 31.03 177.28 32.85 164.34 28.98 169.13 19.78 162.23 25.33 163.4 16.38 159.62 24.91"/><polygon class="cls-7" points="158.26 19.89 158.68 26.27 153.37 32.44 158.68 29.3 157.63 34.31 160.88 29.72 163.07 33.69 162.55 29.72 166.81 28.83 162.55 27.94 164.2 22.39 160.98 25.64 158.26 19.89"/></g></svg>