<?xml version="1.0" encoding="utf-8"?>
<!-- Generator: Adobe Illustrator 21.0.2, SVG Export Plug-In . SVG Version: 6.00 Build 0)  -->
<svg version="1.1" xmlns="http://www.w3.org/2000/svg" xmlns:xlink="http://www.w3.org/1999/xlink" x="0px" y="0px"
	 viewBox="0 0 160 40" style="enable-background:new 0 0 160 40;" xml:space="preserve">
<style type="text/css">
	.st0{fill:#90531F;}
	.st1{fill:#CE3326;}
	.st2{fill:#020203;}
	.st3{fill:#21274D;}
</style>
<g id="Front">
	<path class="st0" d="M13.1,25.1c-0.6,0-1.1,0-1.7,0c0,0-0.1-0.1-0.1-0.1c0-0.2,0-0.5,0-0.8c-0.3,0-0.5,0-0.8,0c0,0,0,0-0.1-0.1
		c0-1.1,0-2.2,0-3.4c0-0.3,0-0.5,0-0.8c0,0-0.1-0.1-0.1-0.1c-0.2,0-0.5,0-0.8,0c0-0.2,0-0.5,0-0.7c0,0-0.1-0.1-0.1-0.1
		c-0.5,0-1,0-1.5,0c-0.1-0.1-0.1-0.1-0.1-0.2c0-1,0-2,0-3.1c0,0,0.1-0.1,0.1-0.1c0.2,0,0.4,0,0.6,0c0.1,0,0.1,0,0.2,0.1
		c0,0.1-0.1,0.1-0.1,0.2c0,0.2,0,0.4,0,0.6c0,0,0.1,0.1,0.1,0.1c0.3,0,0.5,0,0.8,0c0,0,0,0,0.1-0.1c0-0.2,0-0.5,0-0.7
		c0.3,0,0.5,0,0.7,0.1c0.1-0.1,0.1-0.1,0.1-0.2c0-0.5,0-1,0-1.5c0,0,0.1-0.1,0.1-0.1c0.2,0,0.5,0,0.7,0c0-0.1,0-0.2,0-0.3
		c0-0.7,0-1.3,0-2c0-0.1,0-0.2,0.1-0.2c0.5,0,1,0,1.6,0c0-0.3,0-0.5,0-0.8c0,0,0,0,0.1-0.1c0.2,0,0.5,0,0.8,0c0-0.3,0-0.5,0-0.7
		c0,0,0.1-0.1,0.1-0.1c0.2,0,0.5,0,0.8,0c0-0.3,0-0.5,0-0.8c0,0,0,0,0.1-0.1c2.5,0,5,0,7.4,0c0,0,0.1,0.1,0.1,0.1c0,0.2,0,0.5,0,0.8
		c0.3,0,0.5,0,0.8,0c0,0,0,0,0.1,0.1c0,0.5,0,1.1,0,1.6c0.6,0,1.1,0,1.6,0c0,0.8,0,1.6,0,2.4c0,0,0,0,0.1,0.1c0.2,0,0.5,0,0.7,0
		c0,0,0.1,0.1,0.1,0.1c0,0.6,0,1.1,0,1.7c-0.2-0.1-0.5,0-0.8-0.1c0,0-0.1,0.1-0.1,0.1c0,0.3,0,0.5,0,0.8c0.3,0,0.5,0,0.8,0
		c0,0,0.1-0.1,0.1-0.1c0-0.2,0-0.5,0-0.7c0.3,0,0.6,0,0.8,0c0,0.3,0,0.5,0,0.8c0.2,0,0.3,0,0.4,0c0.1,0,0.3,0,0.4,0
		c0-0.2,0-0.4,0-0.6c0-0.1,0-0.1,0.1-0.2c0.2,0,0.5,0,0.7,0c0,0,0,0.1,0.1,0.1c0,1.1,0,2.1,0,3.2c0,0-0.1,0-0.1,0.1
		c-0.2,0-0.4,0-0.6,0c0,0-0.1,0.1-0.1,0.1c0,0.2,0,0.5,0,0.8c-0.3,0-0.5,0-0.7,0c0,0-0.1,0.1-0.1,0.1c0,0.2,0,0.5,0,0.7
		c0,1.1,0,2.2,0,3.4c0,0-0.1,0-0.1,0.1c-0.2,0-0.5,0-0.7,0c0,0.3,0,0.5,0,0.8c0,0,0,0-0.1,0.1c-0.6,0-1.1,0-1.7,0
		c-0.8,0-1.6,0-2.4,0c0-1.6,0-3.2,0-4.7c0-0.1,0-0.1,0-0.2c0,0,0-0.1-0.1-0.1c-2,0-3.9,0-5.8,0c-0.2,0.1-0.1,0.2-0.1,0.3
		c0,1.6,0,3.2,0,4.8C14.7,25.1,13.9,25.1,13.1,25.1z M23.1,15.8c0.1,0,0.2,0,0.3,0c0.5,0,0.9,0,1.4,0c0-0.3,0-0.5,0-0.8
		c0,0,0,0-0.1-0.1c-0.5,0-1,0-1.5,0c0,0-0.1,0.1-0.1,0.1C23.1,15.3,23,15.6,23.1,15.8c-0.1-0.1-0.2,0-0.4,0c-0.1,0-0.3,0-0.4,0
		c0,0-0.1,0.1-0.1,0.1c0,0.2,0,0.5,0,0.7c0.1,0,0.3,0,0.4,0c0.1,0,0.3,0,0.4,0C23.1,16.3,23.1,16.1,23.1,15.8z M24.8,17.5
		c0,0-0.1-0.1-0.1-0.1c-0.5,0-0.9,0-1.4,0c0,0-0.1,0-0.1,0.1c0,0.1,0,0.3,0,0.4c0,0.1,0,0.3,0,0.4c0.6,0,1.1,0,1.7,0
		C24.8,18,24.8,17.8,24.8,17.5z M13,18.3c0.6,0,1.1,0,1.7,0c0-0.3,0.1-0.6-0.1-0.8c-0.5,0-1,0-1.5,0C13,17.6,13,17.7,13,17.9
		C13,18,13,18.1,13,18.3z M14.6,14.9c-0.5,0-1,0-1.5,0c0,0,0,0-0.1,0.1c0,0.2,0,0.4,0,0.6c0,0.1,0,0.1,0,0.2c0.5,0,1.1,0,1.6,0
		C14.8,15.5,14.7,15.2,14.6,14.9C14.7,15,14.7,15,14.6,14.9z M12.2,16.6c0.2,0,0.5,0,0.7,0c0,0,0,0,0.1-0.1c0-0.2,0-0.4,0-0.6
		c0-0.1,0-0.1,0-0.2c-0.3,0-0.5,0-0.7,0C12.1,16,12.2,16.3,12.2,16.6C12.2,16.5,12.2,16.6,12.2,16.6z M14.7,16.5
		c0.3,0.1,0.6,0,0.8,0.1c0-0.3,0-0.5,0-0.7c0,0-0.1-0.1-0.1-0.1c-0.2,0-0.5-0.1-0.8,0.1C14.7,16.1,14.7,16.3,14.7,16.5z"/>
	<path class="st1" d="M13.1,25.1c0.8,0,1.7,0,2.5,0c2,0,4,0,6,0c0.8,0,1.6,0,2.4,0c0.1,0.1,0.1,0.1,0.2,0.2c0,0.2,0,0.4,0,0.6
		c1.1,0,2.2,0,3.2,0c0,0,0.1,0.1,0.1,0.1c0,1.1,0,2.2,0,3.3c0.3,0,0.5,0.1,0.8,0.1c0,0,0,0,0.1,0.1c0,0.2,0,0.4,0,0.6
		c0,0.1,0,0.1-0.1,0.2c-0.8,0-1.7,0-2.5,0c0,0.3,0,0.5,0,0.7c0,0,0,0-0.1,0.1c-4.5,0-8.9,0-13.4,0c0,0,0,0-0.1-0.1
		c0-0.2,0-0.4,0.1-0.7c0,0-0.1-0.1-0.1-0.1c-0.7,0-1.5,0-2.2,0c-0.1,0-0.2,0-0.3-0.1c0-0.1,0-0.2-0.1-0.3c0-0.1,0-0.2,0-0.4
		c0,0,0.1-0.1,0.1-0.1c0.3,0,0.5,0,0.8,0c0-0.1,0-0.1,0-0.2c0-1.1,0-2.1,0-3.2c0.1-0.1,0.2-0.1,0.2-0.1c0.6,0,1.2,0,1.8,0
		c0.1,0,0.3,0,0.5,0c0-0.2,0-0.4,0-0.6C13,25.2,13,25.1,13.1,25.1z"/>
	<path class="st2" d="M27.4,15.8c0,0.1-0.1,0.1-0.1,0.2c0,0.2,0,0.4,0,0.6c-0.1,0-0.3,0-0.4,0c-0.1,0-0.3,0-0.4,0c0-0.3,0-0.5,0-0.8
		c-0.3,0-0.6,0-0.8,0c0-0.6,0-1.1,0-1.7c0,0-0.1-0.1-0.1-0.1c-0.2,0-0.5,0-0.7,0c0,0,0,0-0.1-0.1c0-0.8,0-1.6,0-2.4
		c-0.5,0-1.1,0-1.6,0c0-0.5,0-1.1,0-1.6c0,0-0.1-0.1-0.1-0.1c-0.2,0-0.5,0-0.8,0c0-0.3,0-0.5,0-0.8c0,0-0.1-0.1-0.1-0.1
		c-2.5,0-5,0-7.4,0c0,0,0,0-0.1,0.1c0,0.2,0,0.5,0,0.8c-0.3,0-0.5,0-0.8,0c0,0-0.1,0.1-0.1,0.1c0,0.2,0,0.5,0,0.7
		c-0.3,0-0.5,0-0.8,0c0,0,0,0-0.1,0.1c0,0.2,0,0.5,0,0.8c-0.5,0-1.1,0-1.6,0c-0.1,0.1-0.1,0.2-0.1,0.2c0,0.7,0,1.3,0,2
		c0,0.1,0,0.2,0,0.3c-0.2,0-0.5,0-0.7,0c0,0-0.1,0.1-0.1,0.1c0,0.5,0,1,0,1.5c0,0.1,0,0.1-0.1,0.2c-0.2,0-0.5,0-0.7-0.1
		c0,0.3,0,0.5,0,0.7c0,0,0,0-0.1,0.1c-0.2,0-0.5,0-0.8,0c0,0,0,0-0.1-0.1c0-0.2,0-0.4,0-0.6c0-0.1,0-0.1,0.1-0.2c0-1.4,0-2.8,0-4.2
		c0,0,0.1,0,0.1-0.1c0.3,0,0.5,0.1,0.8-0.1c-0.1-0.2,0-0.4,0-0.6c0,0,0.1-0.1,0.1-0.1c0.3,0,0.5-0.1,0.8-0.1c0-0.2,0-0.5,0-0.7
		c0,0,0.1-0.1,0.1-0.1c0.2,0,0.5,0,0.7,0c0,0,0,0,0.1,0.1c0-0.1,0-0.3,0-0.4c0-0.1,0-0.3,0-0.4c0,0,0,0,0.1-0.1c0.2,0,0.5,0,0.8,0
		c0-0.3,0-0.5,0-0.8c0,0,0.1-0.1,0.1-0.1c0.4,0,0.8,0,1.1,0c0.1,0,0.3,0.1,0.5,0c0-0.2,0-0.5,0-0.7c0,0,0,0,0.1-0.1
		c0.2,0,0.5,0,0.8,0c0-0.1,0-0.3,0-0.4c0-0.1,0-0.3,0-0.4c0.1-0.1,0.1-0.1,0.2-0.1c0.5,0,0.9,0,1.4,0c0,0,0.1,0,0.1,0
		c0.1-0.3-0.1-0.6,0.1-0.8c1.4,0,2.7,0,4.1,0c0,0.1,0,0.1,0,0.2c0,0.2,0,0.4,0,0.7c0.5,0,1.1,0,1.6,0c0,0,0.1,0.1,0.1,0.1
		c0,0.2,0,0.5,0,0.8c0.3,0,0.5,0,0.8,0c0,0,0.1,0.1,0.1,0.1c0,0.2,0,0.5,0,0.8c0.5,0,1.1,0,1.6,0c0,0.1,0.1,0.1,0.1,0.2
		c0,0.2,0,0.4,0,0.7c0.3,0,0.5,0,0.8,0c0,0,0.1,0.1,0.1,0.1c0,0.2,0,0.5,0,0.8c0.3,0,0.5,0,0.8,0c0,0,0.1,0.1,0.1,0.1
		c0,0.2,0,0.5,0,0.8c0.3,0,0.5,0,0.8,0c0,0,0,0,0.1,0.1c0,0.2,0.1,0.4,0,0.7c0.1,0.1,0,0.2,0,0.3c0,1.3,0,2.6,0,3.8
		C27.4,15.6,27.3,15.7,27.4,15.8z"/>
	<path class="st3" d="M12.2,31c4.5,0,8.9,0,13.4,0c0,0.1,0.1,0.1,0.1,0.2c0,0.2,0,0.5,0,0.7c0,0.2,0,0.5,0,0.7c0,1.1,0,2.3,0,3.4
		c-0.3,0.1-0.6,0-0.8,0.1c-0.1,0-0.1-0.1-0.2-0.1c-0.4,0-0.9,0-1.3,0c-0.1,0-0.1,0-0.2,0.1c-0.3,0-0.5,0-0.8,0c0,0-0.1-0.1-0.1-0.1
		c0-0.8,0-1.7,0-2.5c-2.3,0-4.5,0-6.8,0c0,0.8,0,1.6,0,2.4c0,0,0,0-0.1,0.1c-0.3,0-0.5,0-0.8,0c-0.5,0-1.1,0-1.6,0
		c-0.3,0-0.5,0-0.8,0c0,0-0.1-0.1-0.1-0.1c0-0.2,0-0.4,0-0.6c0-0.2-0.1-0.4,0-0.6c0-0.1,0-0.2,0-0.2c0-0.6,0-1.3,0-1.9
		c0-0.2,0-0.5,0-0.7c0-0.2,0-0.5,0-0.7C12.2,31.1,12.2,31,12.2,31z"/>
	<path class="st2" d="M8,19.1c0.5,0,1,0,1.5,0c0,0,0.1,0.1,0.1,0.1c0,0.2,0,0.5,0,0.7c0.3,0,0.5,0,0.8,0c0,0,0,0,0.1,0.1
		c0,0.2,0,0.5,0,0.8c-0.1,0.1-0.1,0.1-0.2,0.1c-0.5,0-0.9,0-1.4,0c0,0-0.1,0.1-0.1,0.1c0,0.3,0.1,0.5-0.1,0.8c-0.6,0-1.1,0-1.6,0
		c0,0.2,0,0.3,0,0.4c0,0.1,0.1,0.3-0.1,0.4c-0.2,0-0.5,0-0.7,0c-0.1,0-0.1-0.1-0.1-0.2c0-0.5,0-0.9,0-1.4c0,0,0.1-0.1,0.1-0.1
		c0.2,0,0.4,0,0.7,0c0,0,0-0.1,0.1-0.1c0-0.2,0-0.4,0-0.7c0.1,0,0.1,0,0.2,0c0.2,0,0.4,0,0.7,0c0-0.2,0-0.4,0-0.6
		C7.9,19.3,8,19.2,8,19.1z"/>
	<path class="st2" d="M26.5,20.8c0-0.2,0-0.5,0-0.7c0,0,0.1-0.1,0.1-0.1c0.2,0,0.5,0,0.7,0c0-0.3,0-0.5,0-0.8c0,0,0,0,0.1-0.1
		c0.2,0,0.4,0,0.6,0c0,0,0.1,0.1,0.1,0.2c0,0.2,0,0.4,0,0.7c0.3,0,0.5,0,0.8,0c0,0,0.1,0.1,0.1,0.1c0,0.1,0,0.2,0,0.3
		c0,0.1,0,0.2,0,0.2c0,0.1,0,0.2,0,0.2c0.3,0,0.5,0,0.8,0c0,0,0,0,0.1,0.1c0,0.5,0,1,0,1.5c0,0,0,0-0.1,0.1c-0.2,0-0.5,0-0.7,0
		c0,0,0,0-0.1-0.1c0-0.2,0-0.5,0-0.8c-0.5,0-1.1,0-1.6,0c0,0-0.1-0.1-0.1-0.1c0-0.2,0-0.5,0-0.8c-0.2,0-0.4,0-0.6,0
		C26.6,20.8,26.6,20.8,26.5,20.8z"/>
	<path class="st0" d="M12.2,31.9c0,0.2,0,0.5,0,0.7c-0.1,0.1-0.1,0.1-0.2,0.1c-0.7,0-1.5,0-2.2,0c0,0-0.1-0.1-0.1-0.1
		c0-0.7,0-1.5,0-2.2c0-0.1,0-0.2,0.1-0.2c0.1,0.1,0.2,0.1,0.3,0.1c0.7,0,1.5,0,2.2,0c0,0,0.1,0.1,0.1,0.1c-0.1,0.2,0,0.4-0.1,0.7
		C12.1,31,12,31,11.9,31c-0.5,0-0.9,0-1.4,0c0,0.2,0,0.3,0,0.4c0,0.1,0,0.3,0,0.4c0.5,0,1,0,1.4,0C12,31.8,12.1,31.8,12.2,31.9z"/>
	<path class="st0" d="M25.7,32.6c0-0.2,0-0.5,0-0.7c0.1-0.1,0.2-0.1,0.3-0.1c0.5,0,0.9,0,1.4,0c0-0.2,0-0.3,0-0.4c0-0.1,0-0.3,0-0.4
		c-0.5,0-1,0-1.4,0c-0.1,0-0.2,0-0.2-0.1c0-0.2,0-0.5,0-0.7c0.9,0,1.7,0,2.5,0c0,0.8,0,1.6,0,2.4c-0.1,0-0.1,0.1-0.1,0.1
		c-0.7,0-1.5,0-2.2,0C25.8,32.7,25.7,32.6,25.7,32.6z"/>
	<path class="st1" d="M23.1,36.1c0.1,0,0.1-0.1,0.2-0.1c0.4,0,0.9,0,1.3,0c0.1,0,0.1,0,0.2,0.1c0,0.3,0,0.5,0,0.8c0.4,0,0.8,0,1.2,0
		c0.4,0,0.8,0,1.2,0c0.1,0.1,0.1,0.2,0.1,0.3c0,0,0,0-0.1,0.1c-1.6,0-3.3,0-4.9,0c0,0,0,0-0.1-0.1c0-0.1,0-0.2,0.1-0.3
		c0.2,0,0.5,0,0.8,0C23.1,36.6,23.1,36.4,23.1,36.1z"/>
	<path class="st1" d="M13.1,36c0.5,0,1.1,0,1.6,0c0,0.1,0.1,0.1,0.1,0.2c0,0.2,0,0.4,0,0.6c0.2,0,0.4,0,0.7,0c0.1,0,0.1,0,0.2,0
		c0,0.1,0,0.2,0,0.3c0,0,0,0-0.1,0.1c-1.6,0-3.3,0-4.9,0c0,0,0,0-0.1-0.1c0-0.1,0-0.2,0.1-0.3c0.8,0,1.6,0,2.4,0c0-0.2,0-0.4,0-0.6
		C13,36.2,13,36.1,13.1,36z"/>
	<path class="st2" d="M30.8,23.5c-0.2,0-0.3,0-0.5,0c-0.1,0-0.3,0-0.4-0.1c0-0.2,0-0.5,0-0.7c0,0,0,0,0.1-0.1c0.2,0,0.5,0,0.7,0
		c0.2,0.2,0.1,0.5,0.1,0.8c0.5,0,1,0,1.6,0c0,0.1,0,0.1,0,0.2c0,0.2,0,0.4,0,0.6c0,0,0,0-0.1,0.1c-0.2,0-0.5,0-0.8,0
		c0,0.3,0,0.5,0,0.8c-0.1,0-0.1,0-0.2,0c-0.2,0-0.4,0-0.6,0c0,0,0,0-0.1-0.1C30.8,24.5,30.8,24,30.8,23.5z"/>
	<path class="st2" d="M33.4,22.5c-0.1-0.1-0.1-0.1-0.1-0.1c0-0.8,0-1.6,0-2.3c0,0,0,0,0.1-0.1c0.2,0,0.5,0,0.7,0c0,0,0,0,0.1,0.1
		c0,0.2,0,0.5,0,0.8c0.1,0,0.3,0,0.4,0c0.1,0,0.3,0,0.4,0c0,0,0,0,0.1,0.1c0,0.2,0,0.5,0,0.7c0,0,0,0-0.1,0.1c-0.2,0-0.5,0-0.8,0
		c0,0.3,0,0.5,0,0.8c0,0,0,0-0.1,0.1C33.8,22.5,33.6,22.5,33.4,22.5z"/>
	<path class="st2" d="M2,20.8c0-0.1,0-0.1,0.1-0.1c-0.1-0.2,0-0.4,0-0.6c0.1,0,0.1-0.1,0.2-0.1c0.2,0,0.4,0,0.6,0
		c0,0,0.1,0.1,0.1,0.1c0,0.7,0,1.5,0,2.2c0,0.1,0,0.1-0.1,0.2c-0.2,0-0.5,0-0.7,0c0-0.1,0-0.1,0-0.2c0-0.2,0-0.4,0-0.7
		c-0.3,0-0.5,0-0.8,0c0,0-0.1-0.1-0.1-0.1c0-0.2,0-0.5,0-0.7c0,0,0,0,0.1-0.1C1.5,20.8,1.8,20.8,2,20.8C2,20.8,2,20.8,2,20.8z"/>
	<path class="st2" d="M5.4,25C5.4,25,5.3,25,5.4,25C5.1,25,4.9,25,4.6,25c0,0,0,0-0.1-0.1c0-0.2,0-0.5,0-0.8c-0.3,0-0.5,0-0.8,0
		c0,0-0.1-0.1-0.1-0.1c0-0.2,0-0.5,0-0.7c0,0,0,0,0.1-0.1c0.5,0,1,0,1.5,0c0,0,0,0,0.1,0.1C5.4,23.9,5.4,24.5,5.4,25z"/>
	<path class="st2" d="M33.3,22.6c0,0.3,0,0.5,0,0.7c0,0,0,0-0.1,0.1c-0.2,0-0.5,0-0.7,0c0,0,0,0-0.1-0.1c0-0.2,0-0.5,0-0.7
		c0,0,0,0,0.1-0.1C32.8,22.5,33,22.5,33.3,22.6z"/>
	<path class="st2" d="M6.2,22.6c0,0.2,0,0.4,0,0.7c0,0,0,0-0.1,0.1c-0.2,0-0.5,0-0.7,0c0-0.1,0-0.1,0-0.2c0-0.2,0-0.4,0-0.6
		c0,0,0,0,0.1-0.1C5.7,22.5,6,22.5,6.2,22.6z"/>
	<path class="st2" d="M3.7,23.3C3.7,23.3,3.7,23.3,3.7,23.3c-0.3,0.1-0.5,0.1-0.7,0.1c-0.2-0.2-0.1-0.5-0.1-0.7c0,0,0.1-0.1,0.2-0.1
		c0.2,0,0.4,0,0.6,0c0,0,0,0,0.1,0.1C3.7,22.8,3.7,23,3.7,23.3z"/>
	<path class="st2" d="M21.5,25.1c-2,0-4,0-6,0c0-1.6,0-3.2,0-4.8c0-0.1-0.1-0.2,0.1-0.3c1.9,0,3.9,0,5.8,0c0,0,0.1,0.1,0.1,0.1
		c0,0.1,0,0.1,0,0.2C21.5,21.9,21.5,23.5,21.5,25.1z M18.4,20.8c-0.6,0-1.3,0-1.9,0c0,0-0.1,0.1-0.1,0.1c0,1.1,0,2.2,0,3.3
		c1.4,0,2.8,0,4.2,0c0-1.1,0-2.2,0-3.3c0,0,0,0-0.1-0.1c-0.5,0-1,0-1.5,0"/>
	<path class="st2" d="M24.8,17.5c0,0.3,0,0.5,0,0.8c-0.6,0-1.1,0-1.7,0c0-0.1,0-0.2,0-0.4c0-0.1,0-0.3,0-0.4c0,0,0.1-0.1,0.1-0.1
		c0.5,0,0.9,0,1.4,0C24.7,17.5,24.8,17.5,24.8,17.5z"/>
	<path class="st2" d="M13,18.3c0-0.1,0-0.3,0-0.4c0-0.1,0-0.3,0.1-0.4c0.5,0,1,0,1.5,0c0.1,0.3,0,0.5,0.1,0.8
		C14.1,18.3,13.6,18.3,13,18.3z"/>
	<path class="st2" d="M14.6,14.9C14.7,15,14.7,15,14.6,14.9c0,0.3,0.1,0.6,0,0.8c-0.5,0-1,0-1.6,0c0-0.1,0-0.1,0-0.2
		c0-0.2,0-0.4,0-0.6c0,0,0,0,0.1-0.1C13.6,14.9,14.1,14.9,14.6,14.9z"/>
	<path class="st2" d="M23.1,15.8c-0.1-0.2,0-0.5-0.1-0.7c0.1-0.1,0.1-0.1,0.1-0.1c0.5,0,1,0,1.5,0c0,0,0,0,0.1,0.1
		c0,0.2,0,0.5,0,0.8c-0.5,0-0.9,0-1.4,0C23.3,15.8,23.2,15.8,23.1,15.8z"/>
	<path class="st2" d="M25.7,15.8c0,0.2,0,0.5,0,0.7c0,0-0.1,0-0.1,0.1c-0.2,0-0.5,0-0.8,0c0-0.3,0-0.5,0-0.8c0,0,0,0,0.1-0.1
		C25.2,15.8,25.4,15.7,25.7,15.8z"/>
	<path class="st2" d="M12.2,16.6C12.2,16.6,12.2,16.5,12.2,16.6c0-0.3-0.1-0.6,0-0.8c0.3,0,0.5,0,0.7,0c0,0.1,0,0.1,0,0.2
		c0,0.2,0,0.4,0,0.6c0,0,0,0-0.1,0.1C12.7,16.6,12.5,16.6,12.2,16.6z"/>
	<path class="st2" d="M23.1,15.8c0,0.2,0,0.5,0,0.7c-0.1,0-0.3,0-0.4,0c-0.1,0-0.3,0-0.4,0c0-0.2,0-0.5,0-0.7c0,0,0,0,0.1-0.1
		c0.1,0,0.3,0,0.4,0C22.9,15.8,23,15.7,23.1,15.8z"/>
	<path class="st2" d="M14.7,16.5c0-0.2,0-0.4,0-0.6c0.2-0.1,0.5,0,0.8-0.1c0,0,0.1,0.1,0.1,0.1c0,0.2,0,0.5,0,0.7
		C15.3,16.6,15,16.7,14.7,16.5z"/>
	<path class="st0" d="M19,20.8c0.5,0,1,0,1.5,0c0,0,0,0,0.1,0.1c0,1.1,0,2.2,0,3.3c-1.4,0-2.8,0-4.2,0c0-1.1,0-2.2,0-3.3
		c0,0,0,0,0.1-0.1c0.6,0,1.3,0,1.9,0 M17.3,23.4c0.8,0,1.6,0,2.5,0c0-0.3,0-0.5,0-0.8c0,0,0,0-0.1-0.1c-0.8,0-1.6,0-2.3,0
		c0,0,0,0-0.1,0.1C17.3,22.8,17.3,23.1,17.3,23.4z"/>
	<path class="st2" d="M17.3,23.4c0-0.3,0-0.5,0-0.8c0,0,0,0,0.1-0.1c0.8,0,1.6,0,2.3,0c0,0,0,0,0.1,0.1c0,0.2,0,0.5,0,0.8
		C18.9,23.4,18.1,23.4,17.3,23.4z"/>
</g>
<g id="Right">
	<path class="st0" d="M62.6,12.8v-1.9c0,0-0.1-0.1-0.1-0.1h-0.8c0,0-0.1-0.1-0.1-0.1V7.9h-1.9V6.1c0,0-0.1-0.1-0.1-0.1h-0.9V5.1
		c0,0-0.1-0.1-0.1-0.1H55v12.5v5.8h2.9 M63.6,12.8c-0.3,0-0.7,0-1,0 M57.9,23.3h4.7l0.1-0.1l0.9,0.1v-1c0,0,0-0.1,0-0.1v-4.6
		c0,0,0.1-0.1,0.1-0.1h0.9v-0.9l0.1-0.1h0.7c0,0,0.1-0.1,0.1-0.1l-1.2-3.2c0,0,0-3.2,0-3.2l0.3-1.9"/>
	<path class="st1" d="M60.7,23.6c-0.1-0.1-0.1-0.2-0.2-0.2H55v6.8h7.5c0,0,0,0,0.1-0.1v-0.8"/>
	<path class="st1" d="M65.6,28.3"/>
	<path class="st2" d="M64.5,8.1c0-0.1,0-0.2,0-0.4c0.1-0.3,0-0.5,0.1-0.8c0,0-0.1-0.1-0.1-0.1h-0.9V6c0,0-0.1-0.1-0.1-0.1h-0.9
		c0.1-0.3,0-0.6,0-0.9c0,0-0.1-0.1-0.1-0.1h-0.9c0-0.3,0-0.5,0-0.8c0-0.1,0-0.1-0.1-0.2h-1.9V3.2c0,0-0.1-0.1-0.1-0.1h-0.9V2.2
		c0,0-0.1-0.1-0.1-0.1h-1.8c0-0.3,0-0.5,0-0.8c0-0.1,0-0.1-0.1-0.2H55V5l4.6,1c0,0,0.1,0.1,0.1,0.1v1.8h1.9v2.8c0,0,0.1,0.1,0.1,0.1
		h0.8c0,0,1.7,0,1.7,0"/>
	<path class="st2" d="M63.6,12.8"/>
	<polygon class="st0" points="63.5,10.8 62.6,10.8 57.9,23.2 	"/>
	<path class="st3" d="M62.5,30.1H55V33h3.7v2.8c0,0,0.1,0.1,0.1,0.1h0.9c0.1,0,0.1-0.1,0.2-0.1c0.5,0,1,0,1.5,0c0.1,0,0.1,0,0.2,0.1
		c0.3,0,0.6,0.1,1-0.1v-4.8c0-0.3,0-0.5,0-0.8C62.6,30.2,62.6,30.1,62.5,30.1z"/>
	<path class="st3" d="M55,33v2.8c0,0,0.1,0.1,0.1,0.1H56c0.1,0,0.1-0.1,0.2-0.1c0.5,0,1,0,1.5,0c0.1,0,0.1,0,0.2,0.1
		c0.3,0,0.6,0.1,1-0.1v-4.8c0-0.3,0-0.5,0-0.8c0-0.1,0-0.2-0.1-0.2"/>
	<path class="st2" d="M58.8,13.1c0-0.3,0-0.5,0-0.8c0,0-0.1-0.1-0.1-0.1c-0.3,0-0.6,0-0.9,0c0-0.3,0-0.6,0-0.9c0,0-0.1-0.1-0.1-0.1
		c-0.2,0-0.5,0-0.7,0c0,0.1-0.1,0.1-0.1,0.2c0,0.2,0,0.5,0,0.8c-0.3,0-0.6,0-0.9,0c0,0-0.1,0.1-0.1,0.1c0,0.1,0,0.2,0,0.3
		c0,0.1,0,0.2,0,0.3c0,0.1-0.1,0.2,0,0.3c-0.3,0-0.6,0-0.9,0c0,0-0.1,0.1-0.1,0.1c0,0.6,0,1.2,0,1.8c0,0,0,0,0.1,0.1
		c0.3,0,0.5,0,0.8,0c0,0,0.1-0.1,0.1-0.1c0-0.3,0-0.6,0-0.9c0.6,0,1.2,0,1.8,0c0,0,0.1-0.1,0.1-0.1c0-0.3,0-0.6,0-0.9
		c0.3,0,0.5,0,0.7,0C58.6,13.2,58.7,13.1,58.8,13.1z"/>
	<path class="st0" d="M57.6,31.9c0-0.3,0-0.6,0-0.8c0.1-0.1,0.2-0.1,0.3-0.1c0.5,0,1.1,0,1.6,0c0-0.2,0-0.3,0-0.5c0-0.2,0-0.3,0-0.5
		c-0.6,0-1.1,0-1.7,0c-0.1,0-0.2,0-0.3-0.1c0-0.3,0-0.5,0-0.8c1,0,1.9,0,2.9,0c0,0.9,0,1.8,0,2.8c-0.1,0-0.1,0.1-0.2,0.1
		c-0.9,0-1.7,0-2.6,0C57.7,32,57.7,32,57.6,31.9z"/>
	<path class="st1" d="M59.7,35.9c0.1,0,0.1-0.1,0.2-0.1c0.5,0,1,0,1.5,0c0.1,0,0.1,0,0.2,0.1c0,0.3,0,0.6,0,0.9c0.5,0,0.9,0,1.4,0
		c0.5,0,0.9,0,1.4,0c0.2,0.1,0.1,0.2,0.1,0.3c0,0-0.1,0.1-0.1,0.1c-1.9,0-3.7,0-5.6,0c0,0,0,0-0.1-0.1c0-0.1-0.1-0.2,0.1-0.4
		c0.3,0,0.6,0,0.9,0C59.7,36.5,59.7,36.2,59.7,35.9z"/>
	<path class="st1" d="M56.3,35.9c0.1,0,0.1-0.1,0.2-0.1c0.5,0,1,0,1.5,0c0.1,0,0.1,0,0.2,0.1c0,0.3,0,0.6,0,0.9c0.5,0,0.9,0,1.4,0
		c0.5,0,0.9,0,1.4,0c0.2,0.1,0.1,0.2,0.1,0.3c0,0-0.1,0.1-0.1,0.1c-1.9,0-3.7,0-5.6,0c0,0,0,0-0.1-0.1c0-0.1-0.1-0.2,0.1-0.4
		c0.3,0,0.6,0,0.9,0C56.3,36.5,56.3,36.2,56.3,35.9z"/>
	<path class="st2" d="M53.9,16.2c0.2,0,0.4,0,0.5,0c0.2,0,0.3,0,0.4-0.2c0-0.3,0-0.6,0-0.8c0,0,0,0-0.1-0.1c-0.3,0-0.5,0-0.8,0
		c-0.2,0.3-0.1,0.6-0.1,0.9c-0.6,0-1.2,0-1.8,0c0,0.1-0.1,0.1-0.1,0.2c0,0.2,0,0.4,0,0.7c0,0,0.1,0.1,0.1,0.1c0.3,0,0.6,0,0.9,0
		c0,0.3,0,0.6,0,0.9c0.1,0,0.1,0.1,0.2,0.1c0.2,0,0.4,0,0.7,0c0,0,0.1-0.1,0.1-0.1C53.9,17.4,53.9,16.8,53.9,16.2z"/>
	<path class="st2" d="M50.9,15.1C51,15,51,15,51.1,15c0-0.9,0-1.8,0-2.7c0,0-0.1-0.1-0.1-0.1c-0.3,0-0.5,0-0.8,0c0,0,0,0-0.1,0.1
		c0,0.3,0,0.6,0,0.9c-0.2,0-0.3,0-0.4,0c-0.1,0-0.3,0-0.4,0c0,0-0.1,0.1-0.1,0.1c0,0.3,0,0.5,0,0.8c0,0,0.1,0.1,0.1,0.1
		c0.3,0,0.6,0,0.9,0c0,0.3,0,0.6,0,0.9c0,0,0.1,0.1,0.1,0.1C50.4,15.1,50.7,15.1,50.9,15.1z"/>
	<path class="st2" d="M51.1,15.2c0,0.3,0,0.6,0,0.8c0,0,0.1,0.1,0.1,0.1c0.3,0,0.5,0,0.8,0c0,0,0,0,0.1-0.1c0-0.3,0-0.5,0-0.8
		c0,0,0,0-0.1-0.1C51.7,15.1,51.4,15,51.1,15.2z"/>
	<path class="st2" d="M60.7,23.3c0,0.1,0,0.1,0.1,0.2h2.8v-1h-1.7c0,0,0,0-0.1-0.1v-3.8h1.8v-1h-2.9v5.4
		C60.7,23.2,60.7,23.2,60.7,23.3z"/>
	<path class="st2" d="M63.5,15.2c0,0.3,0,0.6,0,0.9c-1.2,0-0.7,0-1.9,0c0-0.1,0-0.3,0-0.4c0-0.1,0-0.3,0-0.5c0.1,0,0.1-0.1,0.2-0.1
		c0.5,0,1.1,0,1.6,0C63.4,15.1,63.4,15.2,63.5,15.2z"/>
	<path class="st2" d="M62.3,20.9c0-0.3,0-0.6,0-0.9c0,0,0,0,0-0.1c0.4,0,0.8,0,1.2,0c0,0,0,0.1,0,0.1c0,0.3,0,0.6,0,0.9
		C63.1,20.9,62.7,20.9,62.3,20.9z"/>
	<path class="st2" d="M63.3,13.1C63.3,13.1,63.3,13.1,63.3,13.1c0,0.3,0.1,0.6,0,0.8c-0.5,0-1.1,0-1.6,0c0-0.1,0-0.1,0-0.2
		c0-0.2,0-0.4,0-0.6c0,0,0,0,0.1-0.1C62.2,13.1,62.8,13.1,63.3,13.1z"/>
	<path class="st2" d="M60.9,14.7C60.9,14.7,60.8,14.7,60.9,14.7c0-0.3-0.1-0.6,0-0.8c0.3,0,0.5,0,0.7,0c0,0.1,0,0.1,0,0.2
		c0,0.2,0,0.4,0,0.6c0,0,0,0-0.1,0.1C61.4,14.7,61.1,14.7,60.9,14.7z"/>
	<polygon class="st2" points="55,13.2 57.3,13.2 57.8,13.2 57.8,5 55,5 	"/>
	<polyline class="st2" points="55,5 57.8,7.1 60.5,7.1 60.5,5.8 	"/>
</g>
<g id="Calque_4">
	<path class="st0" d="M99.2,22.8h2.9V17V4.5h-3.7c0,0-0.1,0.1-0.1,0.1v0.9h-0.9c0,0-0.1,0.1-0.1,0.1v1.8h-1.9v2.8
		c0,0-0.1,0.1-0.1,0.1h-0.8c0,0-0.1,0.1-0.1,0.1v1.9 M94.4,12.3c-0.3,0-0.6,0-1,0 M92.5,7.6l0.3,1.9c0,0,0,3.2,0,3.2L91.5,16
		c0,0,0.1,0.1,0.1,0.1h0.7l0.1,0.1V17h0.9c0,0,0.1,0.1,0.1,0.1v4.6c0,0,0,0.1,0,0.1v1l0.9-0.1l0.1,0.1h4.7"/>
	<path class="st1" d="M96.3,23.1c0.1-0.1,0.1-0.2,0.2-0.2h5.6v6.8h-7.5c0,0,0,0-0.1-0.1v-0.8"/>
	<path class="st2" d="M92.5,7.6c0-0.1,0-0.2,0-0.4c-0.1-0.3,0-0.5-0.1-0.8c0,0,0.1-0.1,0.1-0.1h0.9V5.5c0,0,0.1-0.1,0.1-0.1h0.9
		c-0.1-0.3,0-0.6,0-0.9c0,0,0.1-0.1,0.1-0.1h0.9c0-0.3,0-0.5,0-0.8c0-0.1,0-0.1,0.1-0.2h1.9V2.7c0,0,0.1-0.1,0.1-0.1h0.9V1.7
		c0,0,0.1-0.1,0.1-0.1h1.8c0-0.3,0-0.5,0-0.8c0-0.1,0-0.1,0.1-0.2h1.8v3.9l-4.6,1c0,0-0.1,0.1-0.1,0.1v1.8h-1.9v2.8
		c0,0-0.1,0.1-0.1,0.1h-0.8c0,0-1.7,0-1.7,0"/>
	<path class="st2" d="M93.5,12.3"/>
	<polygon class="st0" points="93.5,10.3 94.5,10.3 99.1,22.7 	"/>
	<path class="st3" d="M94.5,29.6h7.5v2.9h-3.7v2.8c0,0-0.1,0.1-0.1,0.1h-0.9c-0.1,0-0.1-0.1-0.2-0.1c-0.5,0-1,0-1.5,0
		c-0.1,0-0.1,0-0.2,0.1c-0.3,0-0.6,0.1-1-0.1v-4.8c0-0.3,0-0.5,0-0.8C94.4,29.7,94.5,29.6,94.5,29.6z"/>
	<path class="st3" d="M102,32.5v2.8c0,0-0.1,0.1-0.1,0.1h-0.9c-0.1,0-0.1-0.1-0.2-0.1c-0.5,0-1,0-1.5,0c-0.1,0-0.1,0-0.2,0.1
		c-0.3,0-0.6,0.1-1-0.1v-4.8c0-0.3,0-0.5,0-0.8c0-0.1,0-0.2,0.1-0.2"/>
	<path class="st2" d="M98.3,12.6c0-0.3,0-0.5,0-0.8c0,0,0.1-0.1,0.1-0.1c0.3,0,0.6,0,0.9,0c0-0.3,0-0.6,0-0.9c0,0,0.1-0.1,0.1-0.1
		c0.2,0,0.5,0,0.7,0c0,0.1,0.1,0.1,0.1,0.2c0,0.2,0,0.5,0,0.8c0.3,0,0.6,0,0.9,0c0,0,0.1,0.1,0.1,0.1c0,0.1,0,0.2,0,0.3
		c0,0.1,0,0.2,0,0.3c0,0.1,0.1,0.2,0,0.3c0.3,0,0.6,0,0.9,0c0,0,0.1,0.1,0.1,0.1c0,0.6,0,1.2,0,1.8c0,0,0,0-0.1,0.1
		c-0.3,0-0.5,0-0.8,0c0,0-0.1-0.1-0.1-0.1c0-0.3,0-0.6,0-0.9c-0.6,0-1.2,0-1.8,0c0,0-0.1-0.1-0.1-0.1c0-0.3,0-0.6,0-0.9
		c-0.3,0-0.5,0-0.7,0C98.4,12.7,98.3,12.6,98.3,12.6z"/>
	<path class="st0" d="M99.4,31.4c0-0.3,0-0.6,0-0.8c-0.1-0.1-0.2-0.1-0.3-0.1c-0.5,0-1.1,0-1.6,0c0-0.2,0-0.3,0-0.5
		c0-0.2,0-0.3,0-0.5c0.6,0,1.1,0,1.7,0c0.1,0,0.2,0,0.3-0.1c0-0.3,0-0.5,0-0.8c-1,0-1.9,0-2.9,0c0,0.9,0,1.8,0,2.8
		c0.1,0,0.1,0.1,0.2,0.1c0.9,0,1.7,0,2.6,0C99.3,31.5,99.4,31.5,99.4,31.4z"/>
	<path class="st1" d="M97.3,35.4c-0.1,0-0.1-0.1-0.2-0.1c-0.5,0-1,0-1.5,0c-0.1,0-0.1,0-0.2,0.1c0,0.3,0,0.6,0,0.9
		c-0.5,0-0.9,0-1.4,0c-0.5,0-0.9,0-1.4,0c-0.2,0.1-0.1,0.2-0.1,0.3c0,0,0.1,0.1,0.1,0.1c1.9,0,3.7,0,5.6,0c0,0,0,0,0.1-0.1
		c0-0.1,0.1-0.2-0.1-0.4c-0.3,0-0.6,0-0.9,0C97.3,36,97.3,35.7,97.3,35.4z"/>
	<path class="st1" d="M100.8,35.4c-0.1,0-0.1-0.1-0.2-0.1c-0.5,0-1,0-1.5,0c-0.1,0-0.1,0-0.2,0.1c0,0.3,0,0.6,0,0.9
		c-0.5,0-0.9,0-1.4,0c-0.5,0-0.9,0-1.4,0c-0.2,0.1-0.1,0.2-0.1,0.3c0,0,0.1,0.1,0.1,0.1c1.9,0,3.7,0,5.6,0c0,0,0,0,0.1-0.1
		c0-0.1,0.1-0.2-0.1-0.4c-0.3,0-0.6,0-0.9,0C100.8,36,100.8,35.7,100.8,35.4z"/>
	<path class="st2" d="M103.1,15.7c-0.2,0-0.4,0-0.5,0c-0.2,0-0.3,0-0.4-0.2c0-0.3,0-0.6,0-0.8c0,0,0,0,0.1-0.1c0.3,0,0.5,0,0.8,0
		c0.2,0.3,0.1,0.6,0.1,0.9c0.6,0,1.2,0,1.8,0c0,0.1,0.1,0.1,0.1,0.2c0,0.2,0,0.4,0,0.7c0,0-0.1,0.1-0.1,0.1c-0.3,0-0.6,0-0.9,0
		c0,0.3,0,0.6,0,0.9c-0.1,0-0.1,0.1-0.2,0.1c-0.2,0-0.4,0-0.7,0c0,0-0.1-0.1-0.1-0.1C103.1,16.9,103.1,16.3,103.1,15.7z"/>
	<path class="st2" d="M106.1,14.6c-0.1-0.1-0.1-0.1-0.1-0.1c0-0.9,0-1.8,0-2.7c0,0,0.1-0.1,0.1-0.1c0.3,0,0.5,0,0.8,0
		c0,0,0,0,0.1,0.1c0,0.3,0,0.6,0,0.9c0.2,0,0.3,0,0.4,0c0.1,0,0.3,0,0.4,0c0,0,0.1,0.1,0.1,0.1c0,0.3,0,0.5,0,0.8
		c0,0-0.1,0.1-0.1,0.1c-0.3,0-0.6,0-0.9,0c0,0.3,0,0.6,0,0.9c0,0-0.1,0.1-0.1,0.1C106.6,14.6,106.4,14.6,106.1,14.6z"/>
	<path class="st2" d="M106,14.7c0,0.3,0,0.6,0,0.8c0,0-0.1,0.1-0.1,0.1c-0.3,0-0.5,0-0.8,0c0,0,0,0-0.1-0.1c0-0.3,0-0.5,0-0.8
		c0,0,0,0,0.1-0.1C105.4,14.6,105.7,14.5,106,14.7z"/>
	<path class="st2" d="M96.3,22.8c0,0.1,0,0.1-0.1,0.2h-2.8v-1h1.7c0,0,0,0,0.1-0.1v-3.8h-1.8v-1h2.9v5.4
		C96.3,22.7,96.3,22.7,96.3,22.8z"/>
	<path class="st2" d="M93.6,14.7c0,0.3,0,0.6,0,0.9c1.2,0,0.7,0,1.9,0c0-0.1,0-0.3,0-0.4c0-0.1,0-0.3,0-0.5c-0.1,0-0.1-0.1-0.2-0.1
		c-0.5,0-1.1,0-1.6,0C93.7,14.6,93.6,14.7,93.6,14.7z"/>
	<path class="st2" d="M94.7,20.4c0-0.3,0-0.6,0-0.9c0,0,0,0,0-0.1c-0.4,0-0.8,0-1.2,0c0,0,0,0.1,0,0.1c0,0.3,0,0.6,0,0.9
		C93.9,20.4,94.3,20.4,94.7,20.4z"/>
	<path class="st2" d="M93.8,12.6C93.7,12.6,93.7,12.6,93.8,12.6c0,0.3-0.1,0.6,0,0.8c0.5,0,1.1,0,1.6,0c0-0.1,0-0.1,0-0.2
		c0-0.2,0-0.4,0-0.6c0,0,0,0-0.1-0.1C94.8,12.6,94.3,12.6,93.8,12.6z"/>
	<path class="st2" d="M96.2,14.2C96.2,14.2,96.2,14.2,96.2,14.2c0-0.3,0.1-0.6,0-0.8c-0.3,0-0.5,0-0.7,0c0,0.1,0,0.1,0,0.2
		c0,0.2,0,0.4,0,0.6c0,0,0,0,0.1,0.1C95.7,14.2,95.9,14.2,96.2,14.2z"/>
	<polygon class="st2" points="102,12.7 99.7,12.7 99.2,12.7 99.2,4.5 102,4.5 	"/>
	<polyline class="st2" points="102,4.5 99.2,6.6 96.6,6.6 96.6,5.3 	"/>
</g>
<g id="Back">
	<polygon class="st0" points="138.8,23 144.9,23 145.7,21.2 140,20.6 	"/>
	<path class="st0" d="M138.8,23c-0.8,0-1.7,0-2.5,0c-0.6,0-1.1,0-1.7,0c0,0-0.1-0.1-0.1-0.1c0-0.2,0-0.5,0-0.8c-0.3,0-0.5,0-0.8,0
		c0,0,0,0-0.1-0.1c0-1.1,0-2.2,0-3.4c0-0.3,0-0.5,0-0.8c0,0-0.1-0.1-0.1-0.1c-0.2,0-0.5,0-0.8,0c0-0.2,0-0.5,0-0.7
		c0,0-0.1-0.1-0.1-0.1c-0.5,0-1,0-1.5,0c-0.1-0.1-0.1-0.1-0.1-0.2c0-1,0-2,0-3.1c0,0,0.1-0.1,0.1-0.1c0.2,0,0.4,0,0.6,0
		c0.1,0,0.1,0,0.2,0.1c0,0.1-0.1,0.1-0.1,0.2c0,0.2,0,0.4,0,0.6c0,0,0.1,0.1,0.1,0.1c0.3,0,0.5,0,0.8,0c0,0,0,0,0.1-0.1
		c0-0.2,0-0.5,0-0.7c0.3,0,0.5,0,0.7,0.1c0.1-0.1,0.1-0.1,0.1-0.2c0-0.5,0-1,0-1.5c0,0,0.1-0.1,0.1-0.1c0.2,0,0.5,0,0.7,0
		c0-0.1,0-0.2,0-0.3c0-0.7,0-1.3,0-2c0-0.1,0-0.2,0.1-0.2c0.5,0,1,0,1.6,0c0-0.3,0-0.5,0-0.8c0,0,0,0,0.1-0.1c0.2,0,0.5,0,0.8,0
		c0-0.3,0-0.5,0-0.7c0,0,0.1-0.1,0.1-0.1c0.2,0,0.5,0,0.8,0c0-0.3,0-0.5,0-0.8c0,0,0,0,0.1-0.1c2.5,0,5,0,7.4,0c0,0,0.1,0.1,0.1,0.1
		c0,0.2,0,0.5,0,0.8c0.3,0,0.5,0,0.8,0c0,0,0,0,0.1,0.1c0,0.5,0,1.1,0,1.6c0.6,0,1.1,0,1.6,0c0,0.8,0,1.6,0,2.4c0,0,0,0,0.1,0.1
		c0.2,0,0.5,0,0.7,0c0,0,0.1,0.1,0.1,0.1c0,0.6,0,1.1,0,1.7c-0.2-0.1-0.5,0-0.8-0.1c0,0-0.1,0.1-0.1,0.1 M148.9,13.8
		c0.3,0,0.6,0,0.8,0c0,0.3,0,0.5,0,0.8c0.2,0,0.3,0,0.4,0c0.1,0,0.3,0,0.4,0c0-0.2,0-0.4,0-0.6c0-0.1,0-0.1,0.1-0.2
		c0.2,0,0.5,0,0.7,0c0,0,0,0.1,0.1,0.1c0,1.1,0,2.1,0,3.2c0,0-0.1,0-0.1,0.1c-0.2,0-0.4,0-0.6,0c0,0-0.1,0.1-0.1,0.1
		c0,0.2,0,0.5,0,0.8c-0.3,0-0.5,0-0.7,0c0,0-0.1,0.1-0.1,0.1c0,0.2,0,0.5,0,0.7c0,1.1,0,2.2,0,3.4c0,0-0.1,0-0.1,0.1
		c-0.2,0-0.5,0-0.7,0c0,0.3,0,0.5,0,0.8c0,0,0,0-0.1,0.1c-0.6,0-1.1,0-1.7,0c-0.8,0-1.6,0-2.4,0 M137.9,12.9c-0.5,0-1,0-1.5,0
		c0,0,0,0-0.1,0.1c0,0.2,0,0.4,0,0.6c0,0.1,0,0.1,0,0.2c0.5,0,1.1,0,1.6,0C138,13.5,137.9,13.2,137.9,12.9
		C137.9,12.9,137.9,12.9,137.9,12.9z"/>
	<path class="st1" d="M136.3,23c0.8,0,1.7,0,2.5,0c2,0,4,0,6,0c0.8,0,1.6,0,2.4,0c0.1,0.1,0.1,0.1,0.2,0.2c0,0.2,0,0.4,0,0.6
		c1.1,0,2.2,0,3.2,0c0,0,0.1,0.1,0.1,0.1c0,1.1,0,2.2,0,3.3c0.3,0,0.5,0.1,0.8,0.1c0,0,0,0,0.1,0.1c0,0.2,0,0.4,0,0.6
		c0,0.1,0,0.1-0.1,0.2c-0.8,0-1.7,0-2.5,0c0,0.3,0,0.5,0,0.7c0,0,0,0-0.1,0.1c-4.5,0-8.9,0-13.4,0c0,0,0,0-0.1-0.1
		c0-0.2,0-0.4,0.1-0.7c0,0-0.1-0.1-0.1-0.1c-0.7,0-1.5,0-2.2,0c-0.1,0-0.2,0-0.3-0.1c0-0.1,0-0.2-0.1-0.3c0-0.1,0-0.2,0-0.4
		c0,0,0.1-0.1,0.1-0.1c0.3,0,0.5,0,0.8,0c0-0.1,0-0.1,0-0.2c0-1.1,0-2.1,0-3.2c0.1-0.1,0.2-0.1,0.2-0.1c0.6,0,1.2,0,1.8,0
		c0.1,0,0.3,0,0.5,0c0-0.2,0-0.4,0-0.6C136.3,23.1,136.3,23.1,136.3,23z"/>
	<path class="st2" d="M148.9,13.8c0.3,0,0.6,0,0.8,0c0,0.3,0,0.5,0,0.8c0.2,0,0.3,0,0.4,0c0.1,0,0.3,0,0.4,0c0-0.2,0-0.4,0-0.6
		c0-0.1,0-0.1,0.1-0.2c-0.1,0-0.1-0.1-0.1-0.2c0-1.3,0-2.6,0-3.8c0-0.1,0-0.2,0-0.3c0.1-0.2,0-0.5,0-0.7c0,0-0.1-0.1-0.1-0.1
		c-0.2,0-0.5,0-0.8,0c0-0.3,0-0.5,0-0.8c0,0-0.1-0.1-0.1-0.1c-0.3,0-0.5,0-0.8,0c0.1-0.3,0-0.5,0-0.8c0,0-0.1-0.1-0.1-0.1
		c-0.2,0-0.5,0-0.8,0c0-0.2,0-0.5,0-0.7c0-0.1,0-0.1-0.1-0.2c-0.6,0-1.1,0-1.6,0c0-0.3,0-0.5,0-0.8c0,0-0.1-0.1-0.1-0.1
		c-0.2,0-0.5,0-0.8,0c0-0.3,0-0.5,0-0.8c0,0,0,0-0.1-0.1c-0.5,0-1.1,0-1.6,0c0-0.2,0-0.4,0-0.7c0-0.1,0-0.1,0-0.2
		c-1.4,0-2.7,0-4.1,0c-0.1,0.3,0,0.6-0.1,0.8c0,0-0.1,0-0.1,0c-0.5,0-0.9,0-1.4,0c-0.1,0-0.2,0-0.2,0.1c0,0.1,0,0.3,0,0.4
		c0,0.1,0,0.3,0,0.4c-0.3,0-0.5,0-0.8,0c0,0,0,0-0.1,0.1c0,0.2,0,0.5,0,0.7c-0.2,0.1-0.3,0-0.5,0c-0.4,0-0.8,0-1.1,0
		c0,0,0,0-0.1,0.1c0,0.2,0,0.5,0,0.8c-0.3,0-0.5,0-0.8,0c0,0,0,0-0.1,0.1c0,0.1,0,0.3,0,0.4c0,0.1,0,0.3,0,0.4c0,0,0-0.1-0.1-0.1
		c-0.2,0-0.5,0-0.7,0c0,0,0,0-0.1,0.1c0,0.2,0,0.5,0,0.7c-0.3,0-0.5,0.1-0.8,0.1c0,0,0,0-0.1,0.1c0,0.2,0,0.4,0,0.6
		c-0.3,0.1-0.5,0-0.8,0.1c0,0-0.1,0.1-0.1,0.1c0,1.4,0,2.8,0,4.2c0,0.1-0.1,0.1-0.1,0.2c0,0.2,0,0.4,0,0.6c0,0,0.1,0.1,0.1,0.1
		c0.3,0,0.5,0,0.8,0c0,0,0,0,0.1-0.1c0-0.2,0-0.5,0-0.7c0.3,0,0.5,0,0.7,0.1l0.1,8.2l16.1,0l0.1-4.1h0.7l0.5-2.3l-1.1-2.2"/>
	<path class="st3" d="M135.5,28.9c4.5,0,8.9,0,13.4,0c0,0.1,0.1,0.1,0.1,0.2c0,0.2,0,0.5,0,0.7c0,0.2,0,0.5,0,0.7c0,1.1,0,2.3,0,3.4
		c-0.3,0.1-0.6,0-0.8,0.1c-0.1,0-0.1-0.1-0.2-0.1c-0.4,0-0.9,0-1.3,0c-0.1,0-0.1,0-0.2,0.1c-0.3,0-0.5,0-0.8,0c0,0-0.1-0.1-0.1-0.1
		c0-0.8,0-1.7,0-2.5c-2.3,0-4.5,0-6.8,0c0,0.8,0,1.6,0,2.4c0,0,0,0-0.1,0.1c-0.3,0-0.5,0-0.8,0c-0.5,0-1.1,0-1.6,0
		c-0.3,0-0.5,0-0.8,0c0,0-0.1-0.1-0.1-0.1c0-0.2,0-0.4,0-0.6c0-0.2-0.1-0.4,0-0.6c0-0.1,0-0.2,0-0.2c0-0.6,0-1.3,0-1.9
		c0-0.2,0-0.5,0-0.7c0-0.2,0-0.5,0-0.7C135.4,29,135.5,29,135.5,28.9z"/>
	<path class="st2" d="M131.3,14.6c0.5,0,1,0,1.5,0c0,0,0.1,0.1,0.1,0.2c0,0.4,0,0.8,0,1.2c0.3,0,0.5,0,0.8,0c0,0.1,0,0.1,0.1,0.2
		c0,0.4,0,0.9,0,1.3c-0.1,0.1-0.1,0.1-0.2,0.1c-0.5,0-0.9,0-1.4,0c0,0-0.1,0.1-0.1,0.1c0,0.4,0.1,0.9-0.1,1.3c-0.6,0-1.1,0-1.6,0
		c0,0.3,0,0.5,0,0.8c0,0.2,0.1,0.5-0.1,0.7c-0.2,0-0.5,0-0.7,0c-0.1-0.1-0.1-0.2-0.1-0.3c0-0.8,0-1.6,0-2.4c0-0.1,0.1-0.1,0.1-0.1
		c0.2,0,0.4,0,0.7,0c0,0,0-0.1,0.1-0.2c0-0.4,0-0.8,0-1.2c0.1,0,0.1-0.1,0.2-0.1c0.2,0,0.4,0,0.7,0c0-0.4,0-0.7,0-1.1
		C131.2,14.8,131.2,14.7,131.3,14.6z"/>
	<path class="st2" d="M149.8,17.4c0-0.4,0-0.8,0-1.2c0,0,0.1-0.1,0.1-0.2c0.2,0,0.5,0,0.7,0c0-0.5,0-0.9,0-1.3c0-0.1,0-0.1,0.1-0.2
		c0.2,0,0.4,0,0.6,0c0,0.1,0.1,0.2,0.1,0.3c0,0.4,0,0.8,0,1.2c0.3,0,0.5,0,0.8,0c0,0.1,0.1,0.1,0.1,0.2c0,0.1,0,0.3,0,0.5
		c0,0.1,0,0.3,0,0.4c0,0.2,0,0.3,0,0.4c0.3,0,0.5,0,0.8,0c0,0.1,0,0.1,0.1,0.1c0,0.9,0,1.8,0,2.7c0,0,0,0.1-0.1,0.1
		c-0.2,0-0.5,0-0.7,0c0,0,0-0.1-0.1-0.1c0-0.4,0-0.9,0-1.3c-0.5,0-1.1,0-1.6,0c0-0.1-0.1-0.1-0.1-0.2c0-0.4,0-0.9,0-1.3
		c-0.2,0-0.4,0-0.6,0C149.9,17.5,149.9,17.5,149.8,17.4z"/>
	<path class="st0" d="M135.4,29.8c0,0.2,0,0.5,0,0.7c-0.1,0.1-0.1,0.1-0.2,0.1c-0.7,0-1.5,0-2.2,0c0,0-0.1-0.1-0.1-0.1
		c0-0.7,0-1.5,0-2.2c0-0.1,0-0.2,0.1-0.2c0.1,0.1,0.2,0.1,0.3,0.1c0.7,0,1.5,0,2.2,0c0,0,0.1,0.1,0.1,0.1c-0.1,0.2,0,0.4-0.1,0.7
		c-0.1,0.1-0.2,0.1-0.3,0.1c-0.5,0-0.9,0-1.4,0c0,0.2,0,0.3,0,0.4c0,0.1,0,0.3,0,0.4c0.5,0,1,0,1.4,0
		C135.3,29.8,135.4,29.8,135.4,29.8z"/>
	<path class="st0" d="M148.9,30.5c0-0.2,0-0.5,0-0.7c0.1-0.1,0.2-0.1,0.3-0.1c0.5,0,0.9,0,1.4,0c0-0.2,0-0.3,0-0.4
		c0-0.1,0-0.3,0-0.4c-0.5,0-1,0-1.4,0c-0.1,0-0.2,0-0.2-0.1c0-0.2,0-0.5,0-0.7c0.9,0,1.7,0,2.5,0c0,0.8,0,1.6,0,2.4
		c-0.1,0-0.1,0.1-0.1,0.1c-0.7,0-1.5,0-2.2,0C149,30.6,149,30.6,148.9,30.5z"/>
	<path class="st1" d="M146.4,34c0.1,0,0.1-0.1,0.2-0.1c0.4,0,0.9,0,1.3,0c0.1,0,0.1,0,0.2,0.1c0,0.3,0,0.5,0,0.8c0.4,0,0.8,0,1.2,0
		c0.4,0,0.8,0,1.2,0c0.1,0.1,0.1,0.2,0.1,0.3c0,0,0,0-0.1,0.1c-1.6,0-3.3,0-4.9,0c0,0,0,0-0.1-0.1c0-0.1,0-0.2,0.1-0.3
		c0.2,0,0.5,0,0.8,0C146.4,34.6,146.4,34.3,146.4,34z"/>
	<path class="st1" d="M136.3,34c0.5,0,1.1,0,1.6,0c0,0.1,0.1,0.1,0.1,0.2c0,0.2,0,0.4,0,0.6c0.2,0,0.4,0,0.7,0c0.1,0,0.1,0,0.2,0
		c0,0.1,0,0.2,0,0.3c0,0,0,0-0.1,0.1c-1.6,0-3.3,0-4.9,0c0,0,0,0-0.1-0.1c0-0.1,0-0.2,0.1-0.3c0.8,0,1.6,0,2.4,0c0-0.2,0-0.4,0-0.6
		C136.3,34.1,136.3,34,136.3,34z"/>
	<path class="st2" d="M154,21.4c-0.2,0-0.3,0-0.5,0c-0.1,0-0.3,0-0.4-0.1c0-0.2,0-0.5,0-0.7c0,0,0,0,0.1-0.1c0.2,0,0.5,0,0.7,0
		c0.2,0.2,0.1,0.5,0.1,0.8c0.5,0,1,0,1.6,0c0,0.1,0,0.1,0,0.2c0,0.2,0,0.4,0,0.6c0,0,0,0-0.1,0.1c-0.2,0-0.5,0-0.8,0
		c0,0.3,0,0.5,0,0.8c-0.1,0-0.1,0-0.2,0c-0.2,0-0.4,0-0.6,0c0,0,0,0-0.1-0.1C154,22.4,154,21.9,154,21.4z"/>
	<path class="st2" d="M156.7,20.5c-0.1-0.1-0.1-0.1-0.1-0.1c0-0.8,0-1.6,0-2.3c0,0,0,0,0.1-0.1c0.2,0,0.5,0,0.7,0c0,0,0,0,0.1,0.1
		c0,0.2,0,0.5,0,0.8c0.1,0,0.3,0,0.4,0c0.1,0,0.3,0,0.4,0c0,0,0,0,0.1,0.1c0,0.2,0,0.5,0,0.7c0,0,0,0-0.1,0.1c-0.2,0-0.5,0-0.8,0
		c0,0.3,0,0.5,0,0.8c0,0,0,0-0.1,0.1C157.1,20.5,156.9,20.5,156.7,20.5z"/>
	<path class="st2" d="M125.3,18.8c0-0.1,0-0.1,0.1-0.1c-0.1-0.2,0-0.4,0-0.6c0.1,0,0.1-0.1,0.2-0.1c0.2,0,0.4,0,0.6,0
		c0,0,0.1,0.1,0.1,0.1c0,0.7,0,1.5,0,2.2c0,0.1,0,0.1-0.1,0.2c-0.2,0-0.5,0-0.7,0c0-0.1,0-0.1,0-0.2c0-0.2,0-0.4,0-0.7
		c-0.3,0-0.5,0-0.8,0c0,0-0.1-0.1-0.1-0.1c0-0.2,0-0.5,0-0.7c0,0,0,0,0.1-0.1C124.8,18.8,125,18.8,125.3,18.8
		C125.3,18.8,125.3,18.7,125.3,18.8z"/>
	<path class="st2" d="M128.7,22.9C128.6,22.9,128.6,23,128.7,22.9c-0.3,0.1-0.5,0.1-0.8,0.1c0,0,0,0-0.1-0.1c0-0.2,0-0.5,0-0.8
		c-0.3,0-0.5,0-0.8,0c0,0-0.1-0.1-0.1-0.1c0-0.2,0-0.5,0-0.7c0,0,0,0,0.1-0.1c0.5,0,1,0,1.5,0c0,0,0,0,0.1,0.1
		C128.7,21.9,128.7,22.4,128.7,22.9z"/>
	<path class="st2" d="M156.5,20.5c0,0.3,0,0.5,0,0.7c0,0,0,0-0.1,0.1c-0.2,0-0.5,0-0.7,0c0,0,0,0-0.1-0.1c0-0.2,0-0.5,0-0.7
		c0,0,0,0,0.1-0.1C156,20.5,156.3,20.4,156.5,20.5z"/>
	<path class="st2" d="M129.5,20.6c0,0.2,0,0.4,0,0.7c0,0,0,0-0.1,0.1c-0.2,0-0.5,0-0.7,0c0-0.1,0-0.1,0-0.2c0-0.2,0-0.4,0-0.6
		c0,0,0,0,0.1-0.1C129,20.5,129.3,20.4,129.5,20.6z"/>
	<path class="st2" d="M127,21.2C126.9,21.3,126.9,21.3,127,21.2c-0.3,0.1-0.5,0.1-0.7,0.1c-0.2-0.2-0.1-0.5-0.1-0.7
		c0,0,0.1-0.1,0.2-0.1c0.2,0,0.4,0,0.6,0c0,0,0,0,0.1,0.1C127,20.8,127,21,127,21.2z"/>
</g>
<g id="Calque_2">
</g>
</svg>
