<?xml version="1.0" encoding="utf-8"?>
<!-- Generator: Adobe Illustrator 21.0.2, SVG Export Plug-In . SVG Version: 6.00 Build 0)  -->
<svg version="1.1" id="tupacPxlArt_xA0_Image_1_" xmlns="http://www.w3.org/2000/svg" xmlns:xlink="http://www.w3.org/1999/xlink"
	 x="0px" y="0px" viewBox="0 0 1440 862" style="enable-background:new 0 0 1440 862;" xml:space="preserve">
<style type="text/css">
	.st0{fill:#8E501F;}
	.st1{fill:#070F55;}
	.st2{fill:#FEDD00;}
</style>
<path class="st0" d="M407,346c-4.8,0-9.7,0-14.5,0c-0.5-0.5-0.9-0.9-1.5-1.5c0-1.7,0-3.5,0-5.4c0-1.8,0-3.7,0-5.5c0-2,0-4,0-6
	c0-1.8,0-3.7,0-5.5s0-3.7,0-5.5s0-3.7,0-5.5c0-2,0-4,0-6c0-1.8-0.5-3.8,0.1-5.5c0.6-1.8-0.1-3.2-0.1-4.7c0-1.8,0-3.7,0-5.5
	c0-2,0-4,0-6c0-1.8,0-3.7,0-5.5c0-1.8,0-3.7,0-5.5c0.5-0.5,1-1,1.6-1.6c4.3,0,8.7,0,13.3,0c0-14.6,0-29.1,0-43.3
	c0.5-0.5,0.9-0.9,1.4-1.4c9.3,0,18.7,0,28.6,0c0-4.1-0.1-8,0-12c0-1,0.5-2.1,0.9-3.2c7.2,0,14,0,20.8,0c11.7,0,23.3,0,35,0
	c0.8,0,2.1-0.7,2.3,1c0,5,0,9.9,0,15c-9.8,0-19.3,0-28.5,0c-0.5,0.5-0.9,0.9-1.4,1.4c0,9,0,18.1,0,27.1c0.5,0.5,0.9,1,1.3,1.5
	c10.1,0,20.1,0,30.1,0c0.5-0.5,1-1,1.6-1.6c0-4.6,0-9.4,0-14.1c9.1,0,18,0,27.1,0c0,2,0,3.8,0,5.4c0.5,0.5,0.9,0.9,1.2,1.2
	c4.8,0,9.6,0,14.3,0c0.5-0.5,0.8-0.8,1.3-1.3c0-4.7,0-9.5,0-14.2c-0.4-0.4-0.8-0.8-1.5-1.5c-4.2,0-8.8,0-13.7,0
	c1.2-6.6-1.5-12.7-0.7-18.9c1.5-1.3,3.3-1,5.1-1c23.3,0,46.6,0,69.9,0c0,6.3,0,12.6,0,19c-4.8,0-9.2,0-13.5,0
	c-0.5,0.5-0.9,0.9-1.4,1.4c0,4.7,0,9.4,0,14.2c0.5,0.5,0.9,1,1.4,1.4c4.7,0,9.4,0,14,0c0.5-0.5,0.9-0.9,1.6-1.6c0-1.3,0-2.7,0-4.2
	c9.1,0,18,0,27,0c0,4.7,0,9.1,0,13.4c0.5,0.5,0.9,0.9,1.4,1.4c1.7,0,3.5-0.1,5.3,0c7.7,0.6,15.3-1,22.8-1.2c0.5-0.5,0.8-0.8,1.2-1.2
	c0.6-8.5-0.1-17-1.2-25.4c-0.3-0.3-0.7-0.7-1.2-1.2c-9.1,0-18.4,0-27.7,0c-0.1,0-0.3-0.1-0.4-0.2c-0.1-0.1-0.2-0.2-0.4-0.3
	c0-5.2,0-10.4,0-15.5c12.8,0,25.6,0,38.4,0c8,0,16,2,23.9,0.8c0.6,0.7,1.1,1.2,1.7,1.9c0,3.9,0,8,0,12.3c3.6,0,7.1,0,10.3,0
	c0.6,0.6,1.1,1.1,1.7,1.7c0,14.3,0,28.7,0,43.3c4.6,0,9,0,13.3,0c0.5,0.5,0.9,0.9,1.5,1.5c0,0.5,0,1.3,0,2c0,22.1,0,44.3,0,66.4
	c0,1.8,0.3,3.6-1,5.1c-4.2,0-8.5,0-12.5,0c-0.6,0.7-1.1,1.2-1.5,1.6c0,4.6,0,9,0,13.4c0,24.8,0,49.6,0,74.5
	c-0.5,0.4-0.9,0.9-1.6,1.5c-4.2,0-8.6,0-13.3,0c0,4.3,0,8.4,0,12.3c-0.5,0.5-0.9,0.9-1.6,1.6c-4.3,0-8.9,0-13.5,0
	c-4.6,0-9.2,0-13.5,0c-0.6,0.6-1,1-1.4,1.4c0,4,0,8.1,0,11.9c0.6,0.7,1,1.3,1.4,1.7c4.6,0,9.1,0,13.6,0c14.8,0,29.7,0,44.5,0
	c0.4,0.5,0.9,0.9,1.2,1.3c0,18.2,0,36.3,0,54.4c0,0.2-0.4,0.5-0.4,0.5c0.3,1.2,0.6,2.2,1,3.6c3.9,0,8.1,0,12.7,0
	c0.4,1.3,0.9,2.3,0.9,3.3c0.1,4,0,8,0,12c0,14.8,0,29.6,0,44.3c-0.5,0.5-0.8,0.8-1.5,1.5c-13.3,0-26.9,0-40.5,0c0-5.3,0-10.7,0-16
	c8.6,0,17.2,0,26,0c0-2.8,0-5.3,0-7.8c-0.1-2.4,0.2-4.9-0.2-7.2c-9.2,0-18,0-26.8,0c-36,0-72,0-108,0c0.3-1,0.9-2,1-3.1
	c0.1-3.1,0-6.3,0-9.4c-0.5-0.5-0.9-0.9-1.4-1.4c-9.4,0-18.8,0-28.7,0c-0.3,1-0.8,2-0.9,3c-0.1,3.6,0,7.3,0,10.9
	c-34.7,0-69.3,0-104,0c-9.6,0-19.2,0-29,0c0,2.6,0,4.9,0,7.2c0.1,2.3-0.3,4.5,0.2,6.8c9.5,0,18.6,0,27.8,0c0.5,1.1,1.1,2.1,1.1,3.6
	c-0.2,3.8-0.1,7.6-0.1,11.4c-1.2,1-2.6,1-4.1,1c-13.2,0-26.3,0-39.4,0c-0.5-0.5-1-1-1.5-1.5c0-19.3,0-38.6,0-58.1
	c4.6-2.8,9.9-0.6,14.9-1.6c0-19.1,0-38.2,0-57.2c0.5-0.5,0.9-0.9,1.6-1.6c14.3,0,28.9,0,43.5,0c4.6-0.5,9.4,1.1,13.9-0.9
	c0-4.1,0-7.9,0-11.6c-0.5-0.5-1-1-1.4-1.5c-3.2,0-6.3-0.1-9.5,0c-1,0-2,0.6-3.1,1c-1.2-1-2.6-1-4.1-1c-8.2,0-16.3,0-24.4,0
	c-0.5-0.5-1-1-1.6-1.6c0-4.3,0-8.7,0-13.3c-5,0-9.7,0-14.7,0c-0.4-0.9-1-1.7-1.1-2.6c-0.2-1.1,0-2.3,0-3.5c0-23.3,0-46.6,0-69.9
	c0-4.6,0-9.1,0-14.1C415.7,345.1,411.3,346.4,407,346z M541.2,526c0,4.6,0,9.2,0,13.7c0.5,0.5,0.9,0.9,1.5,1.5
	c4.2-0.8,8.8,0.8,13.3-1c0-4.5,0-8.6,0-12.7c-0.5-0.5-0.9-1-1.4-1.5c-4.6,0-9,0-13.7,0c0-4.6,0-9.2,0-13.7c-0.5-0.5-0.9-0.9-1.2-1.2
	c-4.1,0-8.3,0-12.3,0c-0.5,0.5-0.8,0.8-1.4,1.4c0,2.1,0,4.4,0,6.7c0.1,2.3-0.2,4.6,0.2,6.8C531.3,526,536.2,526,541.2,526z
	 M645,480.8c5.3,0,10.6,0,15.9,0c0-4.6,0-9.1,0-13.2c-0.6-0.7-1-1.3-1.3-1.6c-3.8,0-7.5,0-11.1,0c-1.3,0.8-2.5,1.6-3.5,2.3
	c0,4.4,0,8.5-1.6,12.7c-1.7,0-5-0.1-8.3,0c-1,0-2,0.6-3,0.9c0,4.2,0,8,0,11.3c1,1.1,1.7,2,2.3,2.8c3.9,0,7.5,0,11.1,0
	c0.5-0.5,1-1,1.4-1.4c0-3.8,0-7.6,0-12C646.3,482.3,645.4,481.9,645,480.8z M526,375.2c-5,0-9.9,0-14.7,0c-0.5,0.5-0.9,0.9-1.4,1.4
	c0,4.6,0,9.4,0,14.3c-4.3,0-8.4,0-12.3,0c-0.7,0.7-1.2,1.1-1.5,1.4c0,18.3,0,36.4,0,54.3c0.5,0.5,0.9,0.9,1.4,1.4
	c4.3,0,8.7,0,12.8,0c0.8,1.2,1.4,2.1,2,3.1c4.5,0,9,0,13.6,0c0,4.6,0,9.1,0,13.4c0.5,0.5,0.9,0.9,1.4,1.4c23.7,0,47.4,0,71.2,0
	c0.4-0.4,0.9-0.9,1.6-1.6c0-4.3,0-8.7,0-13.3c5,0,9.7,0,14.3,0c0.8-0.8,1.4-1.4,2.1-2.1c4.3,0,8.7,0,13,0c0.5-0.5,0.9-0.9,1.3-1.3
	c0-19.4,0-38.8,0-58.2c-0.4-0.4-0.8-0.8-1.5-1.5c-4.2,0-8.8,0-13.5,0c0-3.8,0-7.3,0-10.5c-0.5-0.5-0.9-0.9-1.3-1.3
	c-4.1,0-8.2,0-12.2,0c-0.5,0.5-0.8,0.8-1.3,1.3c0,3.7,0,7.4,0,11.2c0.5,0.5,0.9,1,1.5,1.7c3.7,0,7.5,0,11.3,0c0,15.6,0,31.1,0,46.6
	c-33.7,0-67.2,0-100.9,0c0-1.7,0-3.1,0-4.6c0-11.8,0-23.6,0-35.5c0-1.5-0.3-3-0.5-4.7c3.9,0,8,0,11.9,0c0.7-0.6,1.1-1.1,1.6-1.6
	C526,385.3,526,380.2,526,375.2c1.3,0.3,2.7,0.8,4.1,0.8c8.1,0.1,16.3,0,24.4,0c0.5-0.5,0.9-0.9,1.4-1.4c0-4.2,0-8.3,0-12.2
	c-0.5-0.5-0.8-0.8-1.3-1.3c-9,0-18.1,0-27.1,0c-0.5,0.5-1,1-1.5,1.4C526,366.7,526,370.8,526,375.2z M608.8,279.7c0,1.6,0,3.4,0,5.3
	c-1.9,0-3.7,0-5.3,0c-0.5,0.5-1.2,0.9-1.2,1.2c-0.1,4.4,0,8.9,0,13.5c0.3,0.3,0.7,0.7,1.1,1.1c8.9,0,17.6,0,26.2,0
	c0.5-0.5,0.8-0.8,1.3-1.3c0-4.3,0-8.8,0-12.4c-0.9-3.4-3.4-1.6-5-2.6c0-1.8,0-3.6,0-5.2c-0.5-0.5-0.9-0.9-1.3-1.3
	c-4.7,0-9.4,0-14.2,0C610.1,278.4,609.7,278.8,608.8,279.7z M518.7,279.2c-4.9,0-9.7,0-14.3,0c-0.5,0.5-0.9,0.9-1.4,1.4
	c0,1.6,0,3.4,0,5.3c-1.9,0-3.7,0-5.3,0c-0.6,0.6-1.1,1.1-1.6,1.6c0,3.5-0.1,6.9,0,10.4c0,1,0.6,2,0.9,3c9.5,0,18.6,0,27.7,0
	c0.4-0.4,1.1-0.8,1.1-1.1c0.1-4.1,0-8.2,0-12.6c-0.2-0.2-0.6-0.6-1.3-1.3c-1.3,0-2.7,0-4.3,0c0-1.9,0-3.7,0-5.3
	C519.5,280,519.2,279.7,518.7,279.2z M572.2,362.3c0,4,0,7.7,0,11.3c0.5,0.5,0.9,0.9,1.2,1.2c8.8,0,17.6,0,26.2,0
	c0.5-0.5,0.8-0.8,1.3-1.3c0-3.3,0-6.8,0-9.8c-0.9-1.1-1.7-2-2.3-2.7c-8.6,0-16.9,0-25.2,0C573.1,361.4,572.7,361.8,572.2,362.3z
	 M542.1,402.8c15.2,0,30,0,45,0c-0.2-2.4,0.2-4.7-0.3-6.7c-15.1,0-29.9,0-44.7,0C542.1,398.4,542.1,400.6,542.1,402.8z M616,509.1
	c1.6,0.7,3,1.7,4.5,1.8c3.8,0.2,7.6,0.1,11,0.1c0.7-0.7,1-1,1.4-1.4c0-3.8,0-7.6,0-11.4c-4.9-3.4-10.3-1.8-15-2.2
	c-0.9,0.7-1.4,1.1-1.8,1.4C616,501.2,616,504.9,616,509.1z M601.1,525c4.7,2.2,9.7,0.3,14.3,1.1c0.6-0.6,1.1-1.1,1.5-1.5
	c0-3.9,0-7.7,0-11.5c-1.3-0.7-2.5-1.5-3.5-2c-3.9,0-7.5,0-11,0c-0.5,0.5-0.8,0.8-1.3,1.3C601.1,516.4,601.1,520.5,601.1,525z
	 M512.3,510.8c4.3,0,8.4,0,12.4,0c0.5-0.5,0.9-0.9,1.2-1.2c0-4.2,0-8.3,0-12.3c-0.5-0.5-0.8-0.8-1.3-1.3c-4,0-8.1,0-12.7,0
	c-2,4.4-0.4,9-1,13.3C511.4,509.9,511.8,510.3,512.3,510.8z M509.7,481.2c-4.3,0-8.4,0-12.4,0c-0.5,0.5-0.9,0.9-1.3,1.3
	c0,3.4-0.1,6.9,0,10.4c0,1,0.6,2.1,0.8,3c4.6,0,8.7,0,12.7,0c0.4-0.4,1.1-0.8,1.1-1.1c0.1-4.1,0-8.2,0-12.5
	C510.6,482.1,510.2,481.7,509.7,481.2z M494.7,467.2c-4.6,0-9.1,0-13.4,0c-0.5,0.5-0.9,0.9-1.4,1.4c0.7,4-1.1,8.3,1.1,12.3
	c4.8,0,9.2,0,14,0c2.2-4,0.4-8.4,1.1-12.3C495.6,468.1,495.2,467.7,494.7,467.2z M599.7,527.2c-4.3,0-8.4,0-12.4,0
	c-0.5,0.5-0.9,0.9-1.4,1.4c0.7,4-1.1,8.3,1.1,12.3c4.4,0,8.6,0,13,0c2.2-4,0.4-8.4,1.1-12.3C600.6,528.1,600.2,527.7,599.7,527.2z
	 M453.5,272c3.2,0,6.3,0.1,9.5,0c1,0,2-0.6,3.3-1.1c-1.2-4.4,0.9-8.8-1.4-12.8c-4.1,0-7.9,0-12,0c-2.2,4-0.4,8.4-1.1,12.3
	C452.4,270.9,452.8,271.3,453.5,272z M676.8,269.7c0-4,0-7.8,0-11.4c-0.5-0.5-0.9-0.9-1.4-1.4c-4,0.7-8.3-1.1-12.3,1.1
	c0,4.1,0,7.9,0,12c4,2.2,8.4,0.4,12.3,1.1C675.9,270.6,676.3,270.2,676.8,269.7z"/>
<path class="st1" d="M585,556c36,0,72,0,108,0c0.5,1.1,1.1,2.1,1.1,3.6c-0.2,3.8-0.1,7.6-0.1,11.4c0,5.3,0,10.7,0,16
	c0,14.3,0,28.7,0,43c-19.6,0-39.3,0-58.9,0c-1.8,0-3.6-0.3-5.1,1c0-9.3,0-18.5,0-27.8c-40.1,0-80,0-119.7,0c0.2,1.1,0.7,2.2,0.6,3.2
	c-0.4,4,1,8.2-0.9,12.1c1.9,3.9,0.4,8,0.9,12c0.2,1.4-0.5,2.4-1,3.6c-1.2-1-2.6-1-4.1-1c-7.3,0-14.6,0-21.9,0
	c-0.3,0-0.6-0.2-0.4-0.2c-0.8-1.2-1.4-2.1-2-2.8c-10.4,0-20.5,0-30.6,0c0-7.5,0.1-14.9,0-22.4c-0.1-3.7-0.7-7.4-0.9-11
	c-0.1-2-0.2-4,0-6c0.2-1.9,0.6-3.7,1-5.6c0-3.8-0.1-7.6,0.1-11.4c0.1-1.4-0.5-2.4-1.1-3.6c0-3.6-0.1-7.3,0-10.9c0-1,0.6-2,1-3.1
	c34.7,0,69.3,0,104,0C565,556,575,556,585,556z"/>
<path d="M630,631c1.5-1.3,3.3-1,5.1-1c19.6,0,39.3,0,58.9,0c9.2,0,18.3,0,27.5,0c0.4,0.5,0.9,0.9,1.4,1.4c0,9.7,0,19.5,0,29.4
	c-1.1,0.7-2.2,1.3-3.4,2.1c-14.3,0-28.7,0-43.6,0c-0.3-1-0.8-2-0.8-3.1c-0.1-4.8,0-9.6,0-14.9c-4.4,0.4-8.8-1-13,1
	c0,5.4,0,10.6,0,15.9c-1.6,0.4-3.1,1-4.6,1.1c-8.6,0.1-17.3,0-25.8,0c-0.5-0.5-0.8-0.8-1.5-1.5C630,651.6,630,641.3,630,631z"/>
<path d="M451,630c10.1,0,20.2,0,30.6,0c0.5,0.8,1.1,1.6,2,2.8c-0.1-0.1,0.1,0.2,0.4,0.2c7.3,0,14.6,0,21.9,0c1.5,0,2.9,0,4.1,1
	c1,1.2,1,2.6,1,4.1c0,7.5,0,15,0,22.4c-0.5,0.5-1,1-1.4,1.4c-9.8,0-19.6,0-29.5,0c0-5.6,0-11,0-16.7c-4.7,0-9.3,0-14,0
	c0,4.8,0,9.6,0,14.2c-0.6,0.6-1.1,1.1-1.6,1.6c-12.8,0-25.6,0-38.4,0c-2.1,0-4.2,0.1-6-1.4c0-9.4,0-18.8,0-28.2
	c0.4-0.4,0.8-0.8,1.4-1.4C431.1,630,441.1,630,451,630z"/>
<path d="M526,212c-0.7,6.2,1.9,12.3,0.7,18.9c4.9,0,9.5,0,13.7,0c0.7,0.7,1.1,1.1,1.5,1.5c0,4.7,0,9.5,0,14.2
	c-0.4,0.4-0.8,0.8-1.3,1.3c-4.7,0-9.4,0-14.3,0c-0.3-0.3-0.7-0.7-1.2-1.2c0-1.6,0-3.4,0-5.4c-9.1,0-18,0-27.1,0c0,4.7,0,9.5,0,14.1
	c-0.6,0.6-1.1,1.1-1.6,1.6c-10,0-20,0-30.1,0c-0.4-0.4-0.8-0.9-1.3-1.5c0-9,0-18.2,0-27.1c0.5-0.5,0.8-0.8,1.4-1.4
	c9.3,0,18.7,0,28.5,0c0-5.1,0-10.1,0-15c1-0.3,2-0.9,3.1-1c8.3-0.1,16.6-0.1,24.9,0C524,211.1,525,211.7,526,212z"/>
<path d="M630,211c0,5.2,0,10.3,0,15.5c0.1,0.1,0.2,0.2,0.4,0.3c0.1,0.1,0.3,0.2,0.4,0.2c9.3,0,18.6,0,27.7,0
	c0.5,0.5,0.9,0.9,1.2,1.2c1.1,8.5,1.8,16.9,1.2,25.4c-0.4,0.4-0.7,0.7-1.2,1.2c-7.5,0.2-15.1,1.8-22.8,1.2c-1.8-0.1-3.6,0-5.3,0
	c-0.5-0.5-0.8-0.8-1.4-1.4c0-4.3,0-8.7,0-13.4c-9.1,0-18,0-27,0c0,1.4,0,2.9,0,4.2c-0.6,0.6-1.1,1.1-1.6,1.6c-4.7,0-9.3,0-14,0
	c-0.4-0.5-0.9-0.9-1.4-1.4c0-4.8,0-9.5,0-14.2c0.5-0.5,0.8-0.8,1.4-1.4c4.3,0,8.7,0,13.5,0c0-6.5,0-12.7,0-19c1-0.3,2-0.9,3.1-1
	c7.6-0.1,15.2-0.1,22.9,0C628,210.1,629,210.7,630,211z"/>
<path class="st2" d="M676,466c-4.5,0-8.9,0-13.6,0c-0.3-0.4-0.8-0.9-1.4-1.7c0-3.8,0-7.9,0-11.9c0.4-0.4,0.8-0.8,1.4-1.4
	c4.3,0,8.9,0,13.5,0c0.3,1,0.9,2,1,3.1c0.1,3,0.1,5.9,0,8.9C676.9,464,676.3,465,676,466z"/>
<path class="st2" d="M706,361c0-4.4,0-8.9,0-13.4c0.4-0.4,0.8-0.9,1.5-1.6c4,0,8.3,0,12.5,0c0,4.9,0,9.8,0,14.6
	c-0.7,0.6-1.1,1.4-1.6,1.4c-3.6,0.1-7.2,0.1-10.8,0C707,361.9,706.5,361.3,706,361z"/>
<path class="st2" d="M407,346c4.3,0.4,8.7-0.9,13,0.9c0,4.9,0,9.5,0,14.1c-1,0.3-2,0.9-3.1,1c-3.2,0.1-6.3,0-9.4,0
	c-0.5-0.5-1-1-1.5-1.5c0-3.8-0.1-7.6,0-11.4C406.1,348,406.7,347,407,346z"/>
<path class="st2" d="M466,453c1-0.3,2-0.9,3.1-1c3.1-0.1,6.3,0,9.5,0c0.4,0.5,0.9,0.9,1.4,1.5c0,3.7,0,7.4,0,11.6
	c-4.5,2-9.3,0.4-13.9,0.9c-0.3-1.2-0.9-2.3-1-3.5c-0.2-2.1-0.1-4.3,0-6.4C465.1,455,465.7,454,466,453z"/>
<path d="M526,375.2c0,5,0,10.2,0,15.3c-0.5,0.5-0.9,0.9-1.6,1.6c-3.9,0-8,0-11.9,0c0.2,1.6,0.5,3.2,0.5,4.7c0,11.8,0,23.6,0,35.5
	c0,1.5,0,3,0,4.6c33.7,0,67.2,0,100.9,0c0-15.6,0-31,0-46.6c-3.8,0-7.6,0-11.3,0c-0.6-0.6-1-1.1-1.5-1.7c0-3.7,0-7.5,0-11.2
	c0.5-0.5,0.8-0.8,1.3-1.3c4,0,8.1,0,12.2,0c0.4,0.4,0.8,0.8,1.3,1.3c0,3.3,0,6.7,0,10.5c4.7,0,9.3,0,13.5,0c0.7,0.7,1.1,1.1,1.5,1.5
	c0,19.3,0,38.8,0,58.2c-0.4,0.4-0.8,0.8-1.3,1.3c-4.3,0-8.7,0-13,0c-0.8,0.8-1.4,1.4-2.1,2.1c-4.6,0-9.4,0-14.3,0
	c0,4.6,0,9.1,0,13.3c-0.6,0.6-1.1,1.1-1.6,1.6c-23.8,0-47.6,0-71.2,0c-0.5-0.5-0.8-0.8-1.4-1.4c0-4.3,0-8.7,0-13.4
	c-4.6,0-9.1,0-13.6,0c-0.7-1-1.2-1.9-2-3.1c-4.1,0-8.5,0-12.8,0c-0.5-0.5-0.9-0.9-1.4-1.4c0-17.9,0-36,0-54.3
	c0.3-0.3,0.8-0.7,1.5-1.4c3.9,0,8,0,12.3,0c0-5,0-9.7,0-14.3c0.5-0.5,0.9-0.9,1.4-1.4C516.1,375.2,521,375.2,526,375.2z"/>
<path d="M608.8,279.7c0.9-0.9,1.2-1.2,1.6-1.6c4.8,0,9.6,0,14.2,0c0.5,0.5,0.8,0.8,1.3,1.3c0,1.6,0,3.4,0,5.2c1.6,1,4.1-0.8,5,2.6
	c0,3.6,0,8,0,12.4c-0.4,0.4-0.8,0.8-1.3,1.3c-8.6,0-17.4,0-26.2,0c-0.4-0.4-0.9-0.9-1.1-1.1c0-4.7,0-9.1,0-13.5
	c0-0.4,0.7-0.7,1.2-1.2c1.6,0,3.4,0,5.3,0C608.8,283.1,608.8,281.3,608.8,279.7z"/>
<path d="M518.7,279.2c0.5,0.5,0.9,0.9,1.4,1.4c0,1.6,0,3.4,0,5.3c1.6,0,3.1,0,4.3,0c0.6,0.6,1.1,1.1,1.3,1.3c0,4.4,0,8.5,0,12.6
	c0,0.4-0.7,0.7-1.1,1.1c-9,0-18.1,0-27.7,0c-0.3-1-0.8-2-0.9-3c-0.1-3.5,0-7,0-10.4c0.5-0.5,1-1,1.6-1.6c1.6,0,3.4,0,5.3,0
	c0-1.9,0-3.7,0-5.3c0.5-0.5,0.9-0.9,1.4-1.4C508.9,279.2,513.7,279.2,518.7,279.2z"/>
<path d="M526,375.3c0-4.4,0-8.6,0-12.8c0.5-0.4,0.9-0.9,1.5-1.4c9,0,18.1,0,27.1,0c0.4,0.4,0.8,0.8,1.3,1.3c0,4,0,8.1,0,12.2
	c-0.4,0.4-0.9,0.9-1.4,1.4c-8.1,0-16.3,0-24.4,0C528.7,376,527.3,375.5,526,375.3z"/>
<path class="st2" d="M585,556c-10,0-20,0-30,0c0-3.6-0.1-7.3,0-10.9c0-1,0.6-2,0.9-3c9.8,0,19.3,0,28.7,0c0.5,0.5,1,1,1.4,1.4
	c0,3.1,0.1,6.3,0,9.4C585.9,554,585.3,555,585,556z"/>
<path d="M572.2,362.3c0.5-0.5,0.9-0.9,1.3-1.3c8.3,0,16.6,0,25.2,0c0.6,0.7,1.3,1.6,2.3,2.7c0,3,0,6.5,0,9.8
	c-0.5,0.5-0.8,0.8-1.3,1.3c-8.7,0-17.4,0-26.2,0c-0.3-0.3-0.7-0.7-1.2-1.2C572.2,370.1,572.2,366.3,572.2,362.3z"/>
<path d="M542.1,402.8c0-2.3,0-4.4,0-6.7c14.8,0,29.6,0,44.7,0c0.5,2,0,4.3,0.3,6.7C572.1,402.8,557.3,402.8,542.1,402.8z"/>
<path class="st2" d="M616,509.1c0-4.2,0-7.9,0-11.7c0.4-0.3,0.9-0.7,1.8-1.4c4.7,0.4,10.2-1.2,15,2.2c0,3.9,0,7.7,0,11.4
	c-0.4,0.4-0.7,0.7-1.4,1.4c-3.4,0-7.2,0.2-11-0.1C619.1,510.8,617.7,509.8,616,509.1z"/>
<path class="st2" d="M645,480.8c0-4,0-8.2,0-12.5c1.1-0.7,2.3-1.5,3.5-2.3c3.6,0,7.2,0,11.1,0c0.3,0.4,0.7,0.9,1.3,1.6
	c0,4.1,0,8.6,0,13.2C655.6,480.8,650.3,480.8,645,480.8z"/>
<path class="st2" d="M601.1,525c0-4.5,0-8.6,0-12.6c0.4-0.4,0.8-0.8,1.3-1.3c3.5,0,7.1,0,11,0c1,0.6,2.2,1.3,3.5,2
	c0,3.9,0,7.6,0,11.5c-0.4,0.4-0.8,0.8-1.5,1.5C610.8,525.3,605.8,527.2,601.1,525z"/>
<path class="st2" d="M540.8,526c-4.7,0-9.5,0-14.6,0c-0.5-2.2-0.2-4.5-0.2-6.8c-0.1-2.3,0-4.6,0-6.7c0.5-0.5,0.9-0.9,1.4-1.4
	c4,0,8.1,0,12.3,0c0.3,0.3,0.7,0.7,1.2,1.2C540.8,516.8,540.8,521.4,540.8,526z"/>
<path class="st2" d="M541.2,526c4.3,0,8.8,0,13.4,0c0.4,0.5,0.9,0.9,1.4,1.5c0,4,0,8.1,0,12.7c-4.4,1.8-9,0.3-13.3,1
	c-0.6-0.6-1-1-1.5-1.5C541.2,535.2,541.2,530.6,541.2,526z"/>
<path class="st2" d="M512.3,510.8c-0.5-0.5-0.9-0.9-1.4-1.4c0.6-4.3-0.9-8.9,1-13.3c4.5,0,8.6,0,12.7,0c0.4,0.4,0.8,0.8,1.3,1.3
	c0,4,0,8.1,0,12.3c-0.3,0.3-0.7,0.7-1.2,1.2C520.7,510.8,516.6,510.8,512.3,510.8z"/>
<path class="st2" d="M509.7,481.2c0.5,0.5,0.9,0.9,1.1,1.1c0,4.3,0,8.4,0,12.5c0,0.4-0.7,0.7-1.1,1.1c-4,0-8.1,0-12.7,0
	c-0.3-1-0.8-2-0.8-3c-0.1-3.5,0-7,0-10.4c0.4-0.4,0.8-0.8,1.3-1.3C501.3,481.2,505.4,481.2,509.7,481.2z"/>
<path class="st2" d="M494.7,467.2c0.5,0.5,0.9,0.9,1.4,1.4c-0.7,4,1.1,8.3-1.1,12.3c-4.8,0-9.2,0-14,0c-2.2-4-0.4-8.4-1.1-12.3
	c0.5-0.5,0.9-0.9,1.4-1.4C485.6,467.2,490,467.2,494.7,467.2z"/>
<path class="st2" d="M643.4,481c2,0.9,2.9,1.3,3.5,1.6c0,4.4,0,8.2,0,12c-0.4,0.4-0.9,0.9-1.4,1.4c-3.6,0-7.2,0-11.1,0
	c-0.6-0.7-1.4-1.6-2.3-2.8c0-3.3,0-7.1,0-11.3c1-0.3,2-0.8,3-0.9C638.4,480.9,641.7,481,643.4,481z"/>
<path class="st2" d="M599.7,527.2c0.5,0.5,0.9,0.9,1.4,1.4c-0.7,4,1.1,8.3-1.1,12.3c-4.4,0-8.6,0-13,0c-2.2-4-0.4-8.4-1.1-12.3
	c0.5-0.5,0.9-0.9,1.4-1.4C591.3,527.2,595.4,527.2,599.7,527.2z"/>
<path d="M453.5,272c-0.7-0.7-1.1-1.1-1.6-1.6c0.7-4-1.1-8.3,1.1-12.3c4.1,0,7.9,0,12,0c2.3,4,0.2,8.4,1.4,12.8
	c-1.3,0.4-2.3,1-3.3,1.1C459.8,272.1,456.7,272,453.5,272z"/>
<path d="M676.8,269.7c-0.5,0.5-0.9,0.9-1.4,1.4c-4-0.7-8.3,1.1-12.3-1.1c0-4.1,0-7.9,0-12c4-2.2,8.4-0.4,12.3-1.1
	c0.5,0.5,0.9,0.9,1.4,1.4C676.8,261.9,676.8,265.7,676.8,269.7z"/>
</svg>
