<?xml version="1.0" encoding="utf-8"?>
<!-- Generator: Adobe Illustrator 21.0.2, SVG Export Plug-In . SVG Version: 6.00 Build 0)  -->
<svg version="1.1" xmlns="http://www.w3.org/2000/svg" xmlns:xlink="http://www.w3.org/1999/xlink" x="0px" y="0px"
	 viewBox="0 0 160 40" style="enable-background:new 0 0 160 40;" xml:space="preserve">
<style type="text/css">
	.st0{fill:#8E5120;}
	.st1{fill:#21254C;}
	.st2{fill:#020203;}
	.st3{fill:#FEDD0A;}
	.st4{fill:#844820;}
</style>
<g id="Front">
	<path class="st0" d="M5.8,12.3c-0.4,0-0.8,0-1.2,0c0,0-0.1-0.1-0.1-0.1c0-0.1,0-0.3,0-0.5c0-0.2,0-0.3,0-0.5c0-0.2,0-0.3,0-0.5
		c0-0.2,0-0.3,0-0.5s0-0.3,0-0.5s0-0.3,0-0.5c0-0.2,0-0.3,0-0.5c0-0.2,0-0.3,0-0.5c0.1-0.2,0-0.3,0-0.4c0-0.2,0-0.3,0-0.5
		c0-0.2,0-0.3,0-0.5c0-0.2,0-0.3,0-0.5c0-0.2,0-0.3,0-0.5c0,0,0.1-0.1,0.1-0.1c0.4,0,0.7,0,1.1,0c0-1.2,0-2.5,0-3.7
		c0,0,0.1-0.1,0.1-0.1c0.8,0,1.6,0,2.4,0c0-0.3,0-0.7,0-1c0-0.1,0-0.2,0.1-0.3c0.6,0,1.2,0,1.8,0c1,0,2,0,3,0c0.1,0,0.2-0.1,0.2,0.1
		c0,0.4,0,0.8,0,1.3c-0.8,0-1.6,0-2.4,0c0,0-0.1,0.1-0.1,0.1c0,0.8,0,1.5,0,2.3c0,0,0.1,0.1,0.1,0.1c0.9,0,1.7,0,2.6,0
		c0,0,0.1-0.1,0.1-0.1c0-0.4,0-0.8,0-1.2c0.8,0,1.5,0,2.3,0c0,0.2,0,0.3,0,0.5c0,0,0.1,0.1,0.1,0.1c0.4,0,0.8,0,1.2,0
		c0,0,0.1-0.1,0.1-0.1c0-0.4,0-0.8,0-1.2c0,0-0.1-0.1-0.1-0.1c-0.4,0-0.8,0-1.2,0c0.1-0.6-0.1-1.1-0.1-1.6c0.1-0.1,0.3-0.1,0.4-0.1
		c2,0,4,0,6,0c0,0.5,0,1.1,0,1.6c-0.4,0-0.8,0-1.2,0c0,0-0.1,0.1-0.1,0.1c0,0.4,0,0.8,0,1.2c0,0,0.1,0.1,0.1,0.1c0.4,0,0.8,0,1.2,0
		c0,0,0.1-0.1,0.1-0.1c0-0.1,0-0.2,0-0.4c0.8,0,1.5,0,2.3,0c0,0.4,0,0.8,0,1.1c0,0,0.1,0.1,0.1,0.1c0.1,0,0.3,0,0.5,0
		c0.7,0,1.3-0.1,1.9-0.1c0,0,0.1-0.1,0.1-0.1c0.1-0.7,0-1.4-0.1-2.2c0,0-0.1-0.1-0.1-0.1c-0.8,0-1.6,0-2.4,0c0,0,0,0,0,0
		c0,0,0,0,0,0c0-0.4,0-0.9,0-1.3c1.1,0,2.2,0,3.3,0c0.7,0,1.4,0.2,2,0.1c0.1,0.1,0.1,0.1,0.1,0.2c0,0.3,0,0.7,0,1c0.3,0,0.6,0,0.9,0
		c0.1,0.1,0.1,0.1,0.1,0.1c0,1.2,0,2.5,0,3.7c0.4,0,0.8,0,1.1,0c0,0,0.1,0.1,0.1,0.1c0,0,0,0.1,0,0.2c0,1.9,0,3.8,0,5.7
		c0,0.1,0,0.3-0.1,0.4c-0.4,0-0.7,0-1.1,0c-0.1,0.1-0.1,0.1-0.1,0.1c0,0.4,0,0.8,0,1.1c0,2.1,0,4.2,0,6.4c0,0-0.1,0.1-0.1,0.1
		c-0.4,0-0.7,0-1.1,0c0,0.4,0,0.7,0,1.1c0,0-0.1,0.1-0.1,0.1c-0.4,0-0.8,0-1.2,0c-0.4,0-0.8,0-1.2,0c-0.1,0.1-0.1,0.1-0.1,0.1
		c0,0.3,0,0.7,0,1c0.1,0.1,0.1,0.1,0.1,0.1c0.4,0,0.8,0,1.2,0c1.3,0,2.5,0,3.8,0c0,0,0.1,0.1,0.1,0.1c0,1.6,0,3.1,0,4.6c0,0,0,0,0,0
		c0,0.1,0.1,0.2,0.1,0.3c0.3,0,0.7,0,1.1,0c0,0.1,0.1,0.2,0.1,0.3c0,0.3,0,0.7,0,1c0,1.3,0,2.5,0,3.8c0,0-0.1,0.1-0.1,0.1
		c-1.1,0-2.3,0-3.5,0c0-0.5,0-0.9,0-1.4c0.7,0,1.5,0,2.2,0c0-0.2,0-0.5,0-0.7c0-0.2,0-0.4,0-0.6c-0.8,0-1.5,0-2.3,0
		c-3.1,0-6.1,0-9.2,0c0-0.1,0.1-0.2,0.1-0.3c0-0.3,0-0.5,0-0.8c0,0-0.1-0.1-0.1-0.1c-0.8,0-1.6,0-2.4,0c0,0.1-0.1,0.2-0.1,0.3
		c0,0.3,0,0.6,0,0.9c-3,0-5.9,0-8.9,0c-0.8,0-1.6,0-2.5,0c0,0.2,0,0.4,0,0.6c0,0.2,0,0.4,0,0.6c0.8,0,1.6,0,2.4,0
		c0,0.1,0.1,0.2,0.1,0.3c0,0.3,0,0.7,0,1c-0.1,0.1-0.2,0.1-0.3,0.1c-1.1,0-2.2,0-3.4,0c0,0-0.1-0.1-0.1-0.1c0-1.6,0-3.3,0-5
		c0.4-0.2,0.8-0.1,1.3-0.1c0-1.6,0-3.3,0-4.9c0,0,0.1-0.1,0.1-0.1c1.2,0,2.5,0,3.7,0c0.4,0,0.8,0.1,1.2-0.1c0-0.4,0-0.7,0-1
		c0,0-0.1-0.1-0.1-0.1c-0.3,0-0.5,0-0.8,0c-0.1,0-0.2,0.1-0.3,0.1c-0.1-0.1-0.2-0.1-0.3-0.1c-0.7,0-1.4,0-2.1,0c0,0-0.1-0.1-0.1-0.1
		c0-0.4,0-0.7,0-1.1c-0.4,0-0.8,0-1.3,0C7,20,7,19.9,6.9,19.8c0-0.1,0-0.2,0-0.3c0-2,0-4,0-6c0-0.4,0-0.8,0-1.2
		C6.6,12.2,6.2,12.3,5.8,12.3z M17.3,27.6c0,0.4,0,0.8,0,1.2c0,0,0.1,0.1,0.1,0.1c0.4-0.1,0.8,0.1,1.1-0.1c0-0.4,0-0.7,0-1.1
		c0,0-0.1-0.1-0.1-0.1C18,27.6,17.6,27.6,17.3,27.6c0-0.4,0-0.8,0-1.2c0,0-0.1-0.1-0.1-0.1c-0.4,0-0.7,0-1,0c0,0-0.1,0.1-0.1,0.1
		c0,0.2,0,0.4,0,0.6c0,0.2,0,0.4,0,0.6C16.4,27.6,16.9,27.6,17.3,27.6z M26.1,23.8c0.5,0,0.9,0,1.4,0c0-0.4,0-0.8,0-1.1
		c-0.1-0.1-0.1-0.1-0.1-0.1c-0.3,0-0.6,0-0.9,0c-0.1,0.1-0.2,0.1-0.3,0.2c0,0.4,0,0.7-0.1,1.1c-0.1,0-0.4,0-0.7,0
		c-0.1,0-0.2,0-0.3,0.1c0,0.4,0,0.7,0,1c0.1,0.1,0.1,0.2,0.2,0.2c0.3,0,0.6,0,0.9,0c0,0,0.1-0.1,0.1-0.1c0-0.3,0-0.6,0-1
		C26.3,23.9,26.2,23.9,26.1,23.8z M16,14.8c-0.4,0-0.8,0-1.3,0c0,0-0.1,0.1-0.1,0.1c0,0.4,0,0.8,0,1.2c-0.4,0-0.7,0-1,0
		c-0.1,0.1-0.1,0.1-0.1,0.1c0,1.6,0,3.1,0,4.6c0,0,0.1,0.1,0.1,0.1c0.4,0,0.7,0,1.1,0c0.1,0.1,0.1,0.2,0.2,0.3c0.4,0,0.8,0,1.2,0
		c0,0.4,0,0.8,0,1.1c0,0,0.1,0.1,0.1,0.1c2,0,4,0,6.1,0c0,0,0.1-0.1,0.1-0.1c0-0.4,0-0.7,0-1.1c0.4,0,0.8,0,1.2,0
		c0.1-0.1,0.1-0.1,0.2-0.2c0.4,0,0.7,0,1.1,0c0,0,0.1-0.1,0.1-0.1c0-1.7,0-3.3,0-5c0,0-0.1-0.1-0.1-0.1c-0.4,0-0.8,0-1.2,0
		c0-0.3,0-0.6,0-0.9c0,0-0.1-0.1-0.1-0.1c-0.3,0-0.7,0-1,0c0,0-0.1,0.1-0.1,0.1c0,0.3,0,0.6,0,1c0,0,0.1,0.1,0.1,0.1
		c0.3,0,0.6,0,1,0c0,1.3,0,2.7,0,4c-2.9,0-5.7,0-8.6,0c0-0.1,0-0.3,0-0.4c0-1,0-2,0-3c0-0.1,0-0.3,0-0.4c0.3,0,0.7,0,1,0
		c0.1-0.1,0.1-0.1,0.1-0.1C16,15.6,16,15.2,16,14.8c0.1,0,0.2,0.1,0.3,0.1c0.7,0,1.4,0,2.1,0c0,0,0.1-0.1,0.1-0.1c0-0.4,0-0.7,0-1
		c0,0-0.1-0.1-0.1-0.1c-0.8,0-1.5,0-2.3,0c0,0-0.1,0.1-0.1,0.1C16,14,16,14.4,16,14.8z M23.1,6.6c0,0.1,0,0.3,0,0.5
		c-0.2,0-0.3,0-0.5,0c0,0-0.1,0.1-0.1,0.1c0,0.4,0,0.8,0,1.2c0,0,0.1,0.1,0.1,0.1c0.8,0,1.5,0,2.2,0c0,0,0.1-0.1,0.1-0.1
		c0-0.4,0-0.7,0-1.1C24.9,7,24.7,7.1,24.5,7c0-0.2,0-0.3,0-0.4c0,0-0.1-0.1-0.1-0.1c-0.4,0-0.8,0-1.2,0C23.2,6.5,23.1,6.5,23.1,6.6z
		 M15.4,6.6c-0.4,0-0.8,0-1.2,0c0,0-0.1,0.1-0.1,0.1c0,0.1,0,0.3,0,0.5c-0.2,0-0.3,0-0.5,0c-0.1,0.1-0.1,0.1-0.1,0.1
		c0,0.3,0,0.6,0,0.9c0,0.1,0,0.2,0.1,0.3c0.8,0,1.6,0,2.4,0c0,0,0.1-0.1,0.1-0.1c0-0.4,0-0.7,0-1.1c0,0-0.1-0.1-0.1-0.1
		c-0.1,0-0.2,0-0.4,0c0-0.2,0-0.3,0-0.5C15.4,6.6,15.4,6.6,15.4,6.6z M19.9,13.7c0,0.3,0,0.7,0,1c0,0,0.1,0.1,0.1,0.1
		c0.8,0,1.5,0,2.2,0c0,0,0.1-0.1,0.1-0.1c0-0.3,0-0.6,0-0.8c-0.1-0.1-0.1-0.2-0.2-0.2c-0.7,0-1.4,0-2.1,0C20,13.6,20,13.6,19.9,13.7
		z M17.4,17.1c1.3,0,2.6,0,3.8,0c0-0.2,0-0.4,0-0.6c-1.3,0-2.5,0-3.8,0C17.4,16.8,17.4,16.9,17.4,17.1z M23.7,26.2
		c0.1,0.1,0.3,0.1,0.4,0.2c0.3,0,0.6,0,0.9,0c0.1-0.1,0.1-0.1,0.1-0.1c0-0.3,0-0.6,0-1c-0.4-0.3-0.9-0.2-1.3-0.2
		c-0.1,0.1-0.1,0.1-0.2,0.1C23.7,25.5,23.7,25.8,23.7,26.2z M22.4,27.6c0.4,0.2,0.8,0,1.2,0.1c0.1-0.1,0.1-0.1,0.1-0.1
		c0-0.3,0-0.7,0-1c-0.1-0.1-0.2-0.1-0.3-0.2c-0.3,0-0.6,0-0.9,0c0,0-0.1,0.1-0.1,0.1C22.4,26.8,22.4,27.2,22.4,27.6z M14.8,26.3
		c0.4,0,0.7,0,1.1,0c0,0,0.1-0.1,0.1-0.1c0-0.4,0-0.7,0-1c0,0-0.1-0.1-0.1-0.1c-0.3,0-0.7,0-1.1,0c-0.2,0.4,0,0.8-0.1,1.1
		C14.7,26.3,14.8,26.3,14.8,26.3z M14.6,23.8c-0.4,0-0.7,0-1.1,0c0,0-0.1,0.1-0.1,0.1c0,0.3,0,0.6,0,0.9c0,0.1,0,0.2,0.1,0.3
		c0.4,0,0.7,0,1.1,0c0,0,0.1-0.1,0.1-0.1C14.7,24.6,14.7,24.3,14.6,23.8C14.7,23.9,14.6,23.9,14.6,23.8z M13.3,22.6
		c-0.4,0-0.8,0-1.1,0c0,0-0.1,0.1-0.1,0.1c0.1,0.3-0.1,0.7,0.1,1.1c0.4,0,0.8,0,1.2,0c0.2-0.3,0-0.7,0.1-1.1
		C13.4,22.7,13.4,22.7,13.3,22.6z M22.3,27.7c-0.4,0-0.7,0-1.1,0c0,0-0.1,0.1-0.1,0.1c0.1,0.3-0.1,0.7,0.1,1.1c0.4,0,0.7,0,1.1,0
		c0.2-0.3,0-0.7,0.1-1.1C22.3,27.8,22.3,27.8,22.3,27.7z M9.8,6c0.3,0,0.5,0,0.8,0c0.1,0,0.2-0.1,0.3-0.1c-0.1-0.4,0.1-0.8-0.1-1.1
		c-0.3,0-0.7,0-1,0c-0.2,0.3,0,0.7-0.1,1.1C9.7,5.9,9.7,5.9,9.8,6z M28.9,5.8c0-0.3,0-0.7,0-1c0,0-0.1-0.1-0.1-0.1
		c-0.3,0.1-0.7-0.1-1.1,0.1c0,0.4,0,0.7,0,1c0.3,0.2,0.7,0,1.1,0.1C28.8,5.8,28.8,5.8,28.9,5.8z"/>
	<path class="st1" d="M21,30.2c3.1,0,6.1,0,9.2,0c0,0.1,0.1,0.2,0.1,0.3c0,0.3,0,0.7,0,1c0,0.5,0,0.9,0,1.4c0,1.2,0,2.4,0,3.7
		c-1.7,0-3.4,0-5,0c-0.1,0-0.3,0-0.4,0.1c0-0.8,0-1.6,0-2.4c-3.4,0-6.8,0-10.2,0c0,0.1,0.1,0.2,0.1,0.3c0,0.3,0.1,0.7-0.1,1
		c0.2,0.3,0,0.7,0.1,1c0,0.1,0,0.2-0.1,0.3c-0.1-0.1-0.2-0.1-0.3-0.1c-0.6,0-1.2,0-1.9,0c0,0,0,0,0,0c-0.1-0.1-0.1-0.2-0.2-0.2
		c-0.9,0-1.7,0-2.6,0c0-0.6,0-1.3,0-1.9c0-0.3-0.1-0.6-0.1-0.9c0-0.2,0-0.3,0-0.5c0-0.2,0.1-0.3,0.1-0.5c0-0.3,0-0.7,0-1
		c0-0.1,0-0.2-0.1-0.3c0-0.3,0-0.6,0-0.9c0-0.1,0.1-0.2,0.1-0.3c3,0,5.9,0,8.9,0C19.3,30.2,20.2,30.2,21,30.2z"/>
	<path class="st2" d="M24.9,36.6c0.1-0.1,0.3-0.1,0.4-0.1c1.7,0,3.4,0,5,0c0.8,0,1.6,0,2.3,0c0,0,0.1,0.1,0.1,0.1c0,0.8,0,1.7,0,2.5
		c-0.1,0.1-0.2,0.1-0.3,0.2c-1.2,0-2.4,0-3.7,0c0-0.1-0.1-0.2-0.1-0.3c0-0.4,0-0.8,0-1.3c-0.4,0-0.7-0.1-1.1,0.1c0,0.5,0,0.9,0,1.4
		c-0.1,0-0.3,0.1-0.4,0.1c-0.7,0-1.5,0-2.2,0c0,0-0.1-0.1-0.1-0.1C24.9,38.4,24.9,37.5,24.9,36.6z"/>
	<path class="st2" d="M9.6,36.5c0.9,0,1.7,0,2.6,0c0,0.1,0.1,0.1,0.2,0.2c0,0,0,0,0,0c0.6,0,1.2,0,1.9,0c0.1,0,0.2,0,0.3,0.1
		c0.1,0.1,0.1,0.2,0.1,0.3c0,0.6,0,1.3,0,1.9c0,0-0.1,0.1-0.1,0.1c-0.8,0-1.7,0-2.5,0c0-0.5,0-0.9,0-1.4c-0.4,0-0.8,0-1.2,0
		c0,0.4,0,0.8,0,1.2c-0.1,0.1-0.1,0.1-0.1,0.1c-1.1,0-2.2,0-3.3,0c-0.2,0-0.4,0-0.5-0.1c0-0.8,0-1.6,0-2.4c0,0,0.1-0.1,0.1-0.1
		C7.9,36.5,8.7,36.5,9.6,36.5z"/>
	<path class="st2" d="M16,0.8c-0.1,0.5,0.2,1,0.1,1.6c0.4,0,0.8,0,1.2,0c0.1,0.1,0.1,0.1,0.1,0.1c0,0.4,0,0.8,0,1.2
		c0,0-0.1,0.1-0.1,0.1c-0.4,0-0.8,0-1.2,0c0,0-0.1-0.1-0.1-0.1c0-0.1,0-0.3,0-0.5c-0.8,0-1.5,0-2.3,0c0,0.4,0,0.8,0,1.2
		c-0.1,0.1-0.1,0.1-0.1,0.1c-0.9,0-1.7,0-2.6,0c0,0-0.1-0.1-0.1-0.1c0-0.8,0-1.5,0-2.3c0,0,0.1-0.1,0.1-0.1c0.8,0,1.6,0,2.4,0
		c0-0.4,0-0.9,0-1.3c0.1,0,0.2-0.1,0.3-0.1c0.7,0,1.4,0,2.1,0C15.8,0.8,15.9,0.8,16,0.8z"/>
	<path class="st2" d="M24.9,0.8c0,0.4,0,0.9,0,1.3c0,0,0,0,0,0c0,0,0,0,0,0c0.8,0,1.6,0,2.4,0c0,0,0.1,0.1,0.1,0.1
		c0.1,0.7,0.2,1.4,0.1,2.2c0,0-0.1,0.1-0.1,0.1c-0.6,0-1.3,0.1-1.9,0.1c-0.2,0-0.3,0-0.5,0c0,0-0.1-0.1-0.1-0.1c0-0.4,0-0.7,0-1.1
		c-0.8,0-1.5,0-2.3,0c0,0.1,0,0.2,0,0.4c-0.1,0.1-0.1,0.1-0.1,0.1c-0.4,0-0.8,0-1.2,0c0,0-0.1-0.1-0.1-0.1c0-0.4,0-0.8,0-1.2
		c0,0,0.1-0.1,0.1-0.1c0.4,0,0.7,0,1.2,0c0-0.6,0-1.1,0-1.6c0.1,0,0.2-0.1,0.3-0.1c0.7,0,1.3,0,2,0C24.7,0.7,24.8,0.7,24.9,0.8z"/>
	<path class="st3" d="M28.8,22.5c-0.4,0-0.8,0-1.2,0c0,0-0.1-0.1-0.1-0.1c0-0.3,0-0.7,0-1c0,0,0.1-0.1,0.1-0.1c0.4,0,0.8,0,1.2,0
		c0,0.1,0.1,0.2,0.1,0.3c0,0.3,0,0.5,0,0.8C28.9,22.3,28.8,22.4,28.8,22.5z"/>
	<path class="st3" d="M31.3,13.6c0-0.4,0-0.8,0-1.1c0,0,0.1-0.1,0.1-0.1c0.3,0,0.7,0,1.1,0c0,0.4,0,0.8,0,1.2
		c-0.1,0-0.1,0.1-0.1,0.1c-0.3,0-0.6,0-0.9,0C31.4,13.6,31.4,13.6,31.3,13.6z"/>
	<path class="st3" d="M5.8,12.3c0.4,0,0.7-0.1,1.1,0.1c0,0.4,0,0.8,0,1.2c-0.1,0-0.2,0.1-0.3,0.1c-0.3,0-0.5,0-0.8,0
		c0,0-0.1-0.1-0.1-0.1c0-0.3,0-0.6,0-1C5.8,12.5,5.8,12.4,5.8,12.3z"/>
	<path class="st3" d="M10.9,21.4c0.1,0,0.2-0.1,0.3-0.1c0.3,0,0.5,0,0.8,0c0,0,0.1,0.1,0.1,0.1c0,0.3,0,0.6,0,1
		c-0.4,0.2-0.8,0-1.2,0.1c0-0.1-0.1-0.2-0.1-0.3c0-0.2,0-0.4,0-0.5C10.8,21.6,10.8,21.5,10.9,21.4z"/>
	<path class="st2" d="M16,14.8c0,0.4,0,0.9,0,1.3c0,0-0.1,0.1-0.1,0.1c-0.3,0-0.7,0-1,0c0,0.1,0,0.3,0,0.4c0,1,0,2,0,3
		c0,0.1,0,0.3,0,0.4c2.9,0,5.7,0,8.6,0c0-1.3,0-2.6,0-4c-0.3,0-0.6,0-1,0c-0.1-0.1-0.1-0.1-0.1-0.1c0-0.3,0-0.6,0-1
		c0,0,0.1-0.1,0.1-0.1c0.3,0,0.7,0,1,0c0,0,0.1,0.1,0.1,0.1c0,0.3,0,0.6,0,0.9c0.4,0,0.8,0,1.2,0c0.1,0.1,0.1,0.1,0.1,0.1
		c0,1.7,0,3.3,0,5c0,0-0.1,0.1-0.1,0.1c-0.4,0-0.7,0-1.1,0c-0.1,0.1-0.1,0.1-0.2,0.2c-0.4,0-0.8,0-1.2,0c0,0.4,0,0.8,0,1.1
		c-0.1,0.1-0.1,0.1-0.1,0.1c-2,0-4.1,0-6.1,0c0,0-0.1-0.1-0.1-0.1c0-0.4,0-0.7,0-1.1c-0.4,0-0.8,0-1.2,0c-0.1-0.1-0.1-0.2-0.2-0.3
		c-0.3,0-0.7,0-1.1,0c0,0-0.1-0.1-0.1-0.1c0-1.5,0-3.1,0-4.6c0,0,0.1-0.1,0.1-0.1c0.3,0,0.7,0,1,0c0-0.4,0-0.8,0-1.2
		c0,0,0.1-0.1,0.1-0.1C15.1,14.8,15.6,14.8,16,14.8z"/>
	<path class="st2" d="M23.1,6.6c0.1-0.1,0.1-0.1,0.1-0.1c0.4,0,0.8,0,1.2,0c0,0,0.1,0.1,0.1,0.1c0,0.1,0,0.3,0,0.4
		c0.1,0.1,0.3-0.1,0.4,0.2c0,0.3,0,0.7,0,1.1c0,0-0.1,0.1-0.1,0.1c-0.7,0-1.5,0-2.2,0c0,0-0.1-0.1-0.1-0.1c0-0.4,0-0.8,0-1.2
		c0,0,0.1-0.1,0.1-0.1c0.1,0,0.3,0,0.5,0C23.1,6.9,23.1,6.8,23.1,6.6z"/>
	<path class="st2" d="M15.4,6.6c0,0,0.1,0.1,0.1,0.1c0,0.1,0,0.3,0,0.5c0.1,0,0.3,0,0.4,0c0.1,0.1,0.1,0.1,0.1,0.1
		c0,0.4,0,0.7,0,1.1c0,0-0.1,0.1-0.1,0.1c-0.8,0-1.5,0-2.4,0c0-0.1-0.1-0.2-0.1-0.3c0-0.3,0-0.6,0-0.9c0,0,0.1-0.1,0.1-0.1
		c0.1,0,0.3,0,0.5,0c0-0.2,0-0.3,0-0.5c0,0,0.1-0.1,0.1-0.1C14.5,6.6,14.9,6.6,15.4,6.6z"/>
	<path class="st2" d="M16,14.8c0-0.4,0-0.7,0-1.1c0,0,0.1-0.1,0.1-0.1c0.8,0,1.5,0,2.3,0c0,0,0.1,0.1,0.1,0.1c0,0.3,0,0.7,0,1
		c0,0-0.1,0.1-0.1,0.1c-0.7,0-1.4,0-2.1,0C16.2,14.8,16.1,14.8,16,14.8z"/>
	<path class="st3" d="M21,30.2c-0.9,0-1.7,0-2.6,0c0-0.3,0-0.6,0-0.9c0-0.1,0-0.2,0.1-0.3c0.8,0,1.6,0,2.4,0c0,0,0.1,0.1,0.1,0.1
		c0,0.3,0,0.5,0,0.8C21.1,30,21,30.1,21,30.2z"/>
	<path class="st2" d="M19.9,13.7c0,0,0.1-0.1,0.1-0.1c0.7,0,1.4,0,2.1,0c0.1,0.1,0.1,0.1,0.2,0.2c0,0.3,0,0.6,0,0.8
		c0,0-0.1,0.1-0.1,0.1c-0.7,0-1.5,0-2.2,0c0,0-0.1-0.1-0.1-0.1C19.9,14.3,19.9,14,19.9,13.7z"/>
	<path class="st2" d="M17.4,17.1c0-0.2,0-0.4,0-0.6c1.3,0,2.5,0,3.8,0c0,0.2,0,0.4,0,0.6C19.9,17.1,18.7,17.1,17.4,17.1z"/>
	<path class="st3" d="M23.7,26.2c0-0.4,0-0.7,0-1c0,0,0.1-0.1,0.2-0.1c0.4,0,0.9-0.1,1.3,0.2c0,0.3,0,0.7,0,1c0,0-0.1,0.1-0.1,0.1
		c-0.3,0-0.6,0-0.9,0C23.9,26.3,23.8,26.3,23.7,26.2z"/>
	<path class="st3" d="M26.1,23.8c0-0.3,0-0.7,0-1.1c0.1-0.1,0.2-0.1,0.3-0.2c0.3,0,0.6,0,0.9,0c0,0,0.1,0.1,0.1,0.1
		c0,0.4,0,0.7,0,1.1C27,23.8,26.6,23.8,26.1,23.8z"/>
	<path class="st3" d="M22.4,27.6c0-0.4,0-0.7,0-1.1c0,0,0.1-0.1,0.1-0.1c0.3,0,0.6,0,0.9,0c0.1,0,0.2,0.1,0.3,0.2c0,0.3,0,0.7,0,1
		c0,0-0.1,0.1-0.1,0.1C23.2,27.6,22.8,27.7,22.4,27.6z"/>
	<path class="st3" d="M17.3,27.6c-0.4,0-0.8,0-1.2,0c0-0.2,0-0.4,0-0.6c0-0.2,0-0.4,0-0.6c0,0,0.1-0.1,0.1-0.1c0.3,0,0.7,0,1,0
		c0,0,0.1,0.1,0.1,0.1C17.3,26.8,17.3,27.2,17.3,27.6z"/>
	<path class="st3" d="M17.3,27.6c0.4,0,0.8,0,1.1,0c0,0,0.1,0.1,0.1,0.1c0,0.3,0,0.7,0,1.1c-0.4,0.2-0.8,0-1.1,0.1
		c-0.1-0.1-0.1-0.1-0.1-0.1C17.3,28.4,17.3,28,17.3,27.6z"/>
	<path class="st3" d="M14.8,26.3c0,0-0.1-0.1-0.1-0.1c0.1-0.4-0.1-0.8,0.1-1.1c0.4,0,0.7,0,1.1,0c0,0,0.1,0.1,0.1,0.1
		c0,0.3,0,0.7,0,1c0,0-0.1,0.1-0.1,0.1C15.5,26.3,15.2,26.3,14.8,26.3z"/>
	<path class="st3" d="M14.6,23.8C14.6,23.9,14.7,23.9,14.6,23.8c0.1,0.5,0.1,0.8,0.1,1.2c0,0-0.1,0.1-0.1,0.1c-0.3,0-0.7,0-1.1,0
		c0-0.1-0.1-0.2-0.1-0.3c0-0.3,0-0.6,0-0.9c0,0,0.1-0.1,0.1-0.1C13.9,23.8,14.2,23.8,14.6,23.8z"/>
	<path class="st3" d="M13.3,22.6c0,0,0.1,0.1,0.1,0.1c-0.1,0.3,0.1,0.7-0.1,1.1c-0.4,0-0.8,0-1.2,0c-0.2-0.3,0-0.7-0.1-1.1
		c0,0,0.1-0.1,0.1-0.1C12.5,22.6,12.9,22.6,13.3,22.6z"/>
	<path class="st3" d="M26,23.8c0.2,0.1,0.2,0.1,0.3,0.1c0,0.4,0,0.7,0,1c0,0-0.1,0.1-0.1,0.1c-0.3,0-0.6,0-0.9,0
		c-0.1-0.1-0.1-0.1-0.2-0.2c0-0.3,0-0.6,0-1c0.1,0,0.2-0.1,0.3-0.1C25.6,23.8,25.9,23.8,26,23.8z"/>
	<path class="st3" d="M22.3,27.7c0,0,0.1,0.1,0.1,0.1c-0.1,0.3,0.1,0.7-0.1,1.1c-0.4,0-0.7,0-1.1,0c-0.2-0.3,0-0.7-0.1-1.1
		c0,0,0.1-0.1,0.1-0.1C21.6,27.7,21.9,27.7,22.3,27.7z"/>
	<path class="st2" d="M9.8,6C9.7,5.9,9.7,5.9,9.7,5.8c0.1-0.3-0.1-0.7,0.1-1.1c0.4,0,0.7,0,1,0c0.2,0.3,0,0.7,0.1,1.1
		c-0.1,0-0.2,0.1-0.3,0.1C10.3,6,10.1,6,9.8,6z"/>
	<path class="st2" d="M28.9,5.8c0,0-0.1,0.1-0.1,0.1C28.4,5.8,28,6,27.7,5.8c0-0.4,0-0.7,0-1c0.3-0.2,0.7,0,1.1-0.1
		c0,0,0.1,0.1,0.1,0.1C28.9,5.1,28.9,5.4,28.9,5.8z"/>
</g>
<g id="Right">
	<path class="st2" d="M55.4,36.1c0.1-0.1,0.3-0.1,0.5-0.1c1.8,0,3.6,0,5.4,0c0.8,0,1.7,0,2.5,0c0,0,0.1,0.1,0.1,0.1
		c0,0.9,0,1.8,0,2.7c-0.1,0.1-0.2,0.1-0.3,0.2c-1.3,0-2.6,0-4,0c0-0.1-0.1-0.2-0.1-0.3c0-0.4,0-0.9,0-1.4c-0.4,0-0.8-0.1-1.2,0.1
		c0,0.5,0,1,0,1.5c-0.1,0-0.3,0.1-0.4,0.1c-0.8,0-1.6,0-2.4,0c0,0-0.1-0.1-0.1-0.1C55.4,38,55.4,37.1,55.4,36.1z"/>
	<path class="st1" d="M55.4,29.3c1.9,0,3.9,0,5.8,0c0,0.1,0.1,0.2,0.1,0.3c0,0.3,0,0.7,0,1.1c0,0.5,0,1,0,1.5c0,1.3,0,2.6,0,4
		c-1.8,0-3.6,0-5.4,0c-0.2,0-0.3,0-0.5,0.1c0-0.9,0-1.7,0-2.6C55.4,31.8,55.4,30.7,55.4,29.3z"/>
	<path class="st0" d="M65.1,15c0,0,0.1-0.1,0.1-0.1V9.3c0,0,0.1-0.1,0.1-0.1h0.8c0.1-0.1,0.1-0.2,0.1-0.3c0-1.4,0-2.8,0-4.2V4.6
		l-0.1-0.1h-0.8V1.7l-0.1-0.1h-0.7V0.8c0,0-0.1-0.1-0.1-0.1c-0.5,0.1-1-0.1-1.5-0.1c-0.8,0-1.6,0-2.4,0h-1.8c-1.1,0-2.1,0-3.2,0
		c0,2.2,0,16.1,0,16.1c0,0.5,0,1,0,1.5c0,0,0,0.1,0,0.1c1.3,0,2.7,0,4,0.1c0.4,0,0.8,0.1,1.2,0.1c0,0,0,0,0,0v-0.7
		c0.1,0,0.1-0.1,0.2-0.1c0.2,0,0.4,0,0.5,0C61.3,17.5,65.1,15,65.1,15z"/>
	<path class="st2" d="M64,7.4C64,7.3,64,7.3,64,7.4c0.3-0.1,0.5-0.1,0.7-0.1c0,0,0,0,0.1,0.1c0,0.1,0,0.2,0,0.2c0.1,0,0.2,0,0.2,0.1
		c0,0.2,0,0.4,0,0.6c0,0,0,0-0.1,0.1c-0.4,0-0.8,0-1.2,0c0,0,0,0-0.1-0.1c0-0.2,0-0.4,0-0.6c0,0,0,0,0.1-0.1c0.1,0,0.2,0,0.2,0
		C64,7.5,64,7.4,64,7.4z"/>
	<path class="st2" d="M62.9,11.9c0,0.3,0,0.5,0,0.8c0,0-0.1,0-0.1,0.1c-0.2,0-0.4,0-0.6,0c0,0.1,0,0.2,0,0.3c0,0.6,0,1.3,0,1.9
		c0,0.1,0,0.2,0,0.2c0.9-0.1,0.7,1,0.7,0.8c-0.2,0-0.5,0-0.7,0c0-0.1-0.1-0.1-0.1-0.2c-0.2,0-0.5,0-0.7,0c0,0,0,0-0.1-0.1
		c0-1,0-1.9,0-2.9c0,0,0,0,0.1-0.1c0.2,0,0.4,0,0.7,0c0-0.3,0-0.5,0-0.8c0,0,0,0,0.1-0.1C62.4,11.9,62.7,11.9,62.9,11.9z"/>
	<path class="st2" d="M62.7,12.7c0-0.3,0-0.5,0-0.8c0,0,0.1-0.1,0.1-0.1c0.8,0,1.5,0,2.3,0c0,0,0.1,0,0.1,0.1c0,0.2,0,0.5,0,0.7
		c0,0-0.1,0.1-0.1,0.1c-0.7,0-1.4,0-2.1,0C62.9,12.8,62.8,12.7,62.7,12.7z"/>
	<path class="st2" d="M62.7,14.3c0-0.1,0-0.2,0-0.4c0.8,0,1.6,0,2.4,0c0,0.1,0,0.2,0,0.4C64.3,14.3,63.5,14.3,62.7,14.3z"/>
	<path class="st2" d="M64.5,5.2c0,0.2,0.1,0.4,0,0.6c0.2,0,0.3,0,0.5,0c0,0,0,0,0.1,0.1c0,0.2,0,0.3,0,0.5c0,0,0,0,0,0
		c-0.2,0-0.3,0-0.5,0c0,0,0,0,0,0c0-0.1,0-0.1,0-0.2c-0.3,0-0.6,0-0.9,0c0,0.2,0,0.3,0,0.5c0,0,0,0-0.1,0.1c-0.3,0-0.7,0-1,0
		c0,0,0,0,0,0c0-0.3,0-0.6,0-0.9c0,0,0,0,0,0c0.3,0,0.6,0,1,0c0-0.2,0-0.3,0-0.5c0,0,0.1,0,0.1,0c0.3,0,0.6,0,0.8,0
		C64.5,5.1,64.5,5.1,64.5,5.2z"/>
	<rect x="55.3" y="18.2" class="st0" width="7.3" height="11.1"/>
	<path class="st4" d="M60.2,25.5c0-0.1,0-0.2-0.1-0.3H59c0-0.1-0.1-0.2-0.1-0.3c0,0,0,0,0,0c0-1.7,0-3.3,0-5c0,0-0.1-0.1-0.1-0.1
		h-3.5l0.1,8.3h3.4c0,0.2,0,0.4,0,0.7c0,0.2,0,0.5,0,0.7h-2.4v1.5h3.7l0.1-0.1v-4.1C60.2,26.2,60.2,25.8,60.2,25.5z"/>
	<path class="st3" d="M58.1,8.9c0-0.3,0-0.5,0-0.8c0,0,0,0,0.1-0.1c0.2,0,0.5,0,0.7,0c0,0.3,0,0.6,0,0.8c0,0-0.1,0.1-0.1,0.1
		C58.6,9,58.4,9,58.1,8.9C58.1,9,58.1,9,58.1,8.9z"/>
</g>
<g id="Calque_3">
	<g>
		<path class="st2" d="M105,36.4c-0.1-0.1-0.3-0.1-0.5-0.1c-1.8,0-3.6,0-5.4,0c-0.8,0-1.7,0-2.5,0c0,0-0.1,0.1-0.1,0.1
			c0,0.9,0,1.8,0,2.7c0.1,0.1,0.2,0.1,0.3,0.2c1.3,0,2.7,0,4,0c0-0.1,0.1-0.2,0.1-0.3c0-0.4,0-0.9,0-1.4c0.4,0,0.8-0.1,1.2,0.1
			c0,0.5,0,1,0,1.5c0.2,0,0.3,0.1,0.4,0.1c0.8,0,1.6,0,2.4,0c0,0,0.1-0.1,0.1-0.1C105,38.3,105,37.4,105,36.4z"/>
		<path class="st1" d="M105,29.5c-1.9,0-3.9,0-5.8,0c0,0.1-0.1,0.2-0.1,0.3c0,0.4,0,0.7,0,1.1c0,0.5,0,1,0,1.5c0,1.3,0,2.6,0,4
			c1.8,0,3.6,0,5.4,0c0.2,0,0.3,0,0.5,0.1c0-0.9,0-1.7,0-2.6C105,32,105,31,105,29.5z"/>
		<path class="st0" d="M99.1,17.9c0.1,0,0.3,0,0.5,0c0.1,0,0.1,0,0.2,0.1v0.7c0,0,0,0,0,0c0.4,0,0.8-0.1,1.2-0.1
			c1.4-0.1,2.7-0.1,4.1-0.1c0,0,0-0.1,0-0.1c0-0.5,0-1,0-1.5c0,0-0.1-14,0-16.2c-1.1,0-2.1,0-3.2,0h-1.8c-0.8,0-1.6,0-2.4,0
			c-0.5,0-1,0.1-1.5,0.1c0,0-0.1,0.1-0.1,0.1v0.8h-0.7l-0.1,0.1v2.8h-0.8l-0.1,0.1v0.1c0,1.4,0,2.8,0,4.2c0,0.1,0,0.2,0.1,0.3H95
			c0,0,0.1,0.1,0.1,0.1v5.6c0,0,0.1,0.1,0.1,0.1C95.2,15.1,99,17.7,99.1,17.9z"/>
		<path class="st2" d="M96.3,7.5C96.3,7.4,96.3,7.4,96.3,7.5c-0.3-0.1-0.5-0.1-0.7-0.1c0,0,0,0-0.1,0.1c0,0.1,0,0.2,0,0.2
			c-0.1,0-0.2,0-0.2,0.1c0,0.2,0,0.4,0,0.6c0,0,0,0,0.1,0.1c0.4,0,0.8,0,1.2,0c0,0,0,0,0.1-0.1c0-0.2,0-0.4,0-0.6c0,0,0,0-0.1-0.1
			c-0.1,0-0.2,0-0.2,0C96.3,7.6,96.3,7.6,96.3,7.5z"/>
		<path class="st2" d="M97.4,12c0,0.3,0,0.5,0,0.8c0,0,0.1,0,0.1,0.1c0.2,0,0.4,0,0.6,0c0,0.1,0,0.2,0,0.3c0,0.6,0,1.3,0,1.9
			c0,0.1,0,0.2,0,0.2c-0.9-0.1-0.7,1-0.7,0.8c0.2,0,0.5,0,0.7,0c0-0.1,0.1-0.1,0.1-0.2c0.2,0,0.5,0,0.7,0c0,0,0,0,0.1-0.1
			c0-1,0-2,0-2.9c0,0,0,0-0.1-0.1c-0.2,0-0.4,0-0.7,0c0-0.3,0-0.5,0-0.8c0,0,0,0-0.1-0.1C97.9,12,97.7,12,97.4,12z"/>
		<path class="st2" d="M97.6,12.9c0-0.3,0-0.5,0-0.8c0,0-0.1-0.1-0.1-0.1c-0.8,0-1.5,0-2.3,0c0,0-0.1,0-0.1,0.1c0,0.2,0,0.5,0,0.7
			c0,0,0.1,0.1,0.1,0.1c0.7,0,1.4,0,2.1,0C97.4,12.9,97.5,12.9,97.6,12.9z"/>
		<path class="st2" d="M97.6,14.5c0-0.1,0-0.2,0-0.4c-0.8,0-1.6,0-2.4,0c0,0.1,0,0.2,0,0.4C96,14.5,96.8,14.5,97.6,14.5z"/>
		<path class="st2" d="M95.7,5.3c0,0.2-0.1,0.4,0,0.6c-0.2,0-0.3,0-0.5,0c0,0,0,0-0.1,0.1c0,0.2,0,0.3,0,0.5c0,0,0,0,0,0
			c0.2,0,0.3,0,0.5,0c0,0,0,0,0,0c0-0.1,0-0.1,0-0.2c0.3,0,0.6,0,0.9,0c0,0.2,0,0.3,0,0.5c0,0,0,0,0.1,0.1c0.3,0,0.7,0,1,0
			c0,0,0,0,0,0c0-0.3,0-0.6,0-0.9c0,0,0,0,0,0c-0.3,0-0.6,0-1,0c0-0.2,0-0.3,0-0.5c0,0-0.1,0-0.1,0c-0.3,0-0.6,0-0.8,0
			C95.8,5.2,95.8,5.3,95.7,5.3z"/>
		
			<rect x="97.7" y="18.4" transform="matrix(-1 -4.495039e-11 4.495039e-11 -1 202.7676 47.8721)" class="st0" width="7.3" height="11.2"/>
		<path class="st4" d="M100.1,25.7c0-0.1,0-0.2,0.1-0.3h1.2c0-0.1,0.1-0.2,0.1-0.3c0,0,0,0,0,0c0-1.7,0-3.3,0-5c0,0,0.1-0.1,0.1-0.1
			h3.5l-0.1,8.3h-3.4c0,0.2,0,0.4,0,0.7c0,0.2,0,0.5,0,0.7h2.4V31h-3.7l-0.1-0.1v-4.1C100.1,26.4,100.1,26,100.1,25.7z"/>
		<path class="st3" d="M102.2,9.1c0-0.3,0-0.5,0-0.8c0,0,0-0.1-0.1-0.1c-0.2,0-0.5,0-0.7,0c0,0.3,0,0.6,0,0.8c0,0,0.1,0.1,0.1,0.1
			C101.7,9.1,102,9.1,102.2,9.1C102.2,9.1,102.2,9.1,102.2,9.1z"/>
	</g>
</g>
<g id="Calque_4">
	<g>
		<path class="st0" d="M130.4,29.8c-0.8,0-1.6,0-2.5,0c0,0.2,0,0.4,0,0.6c0,0.2,0,0.4,0,0.6c0.8,0,1.6,0,2.4,0
			c0,0.1,0.1,0.2,0.1,0.3c0,0.3,0,0.7,0,1c-0.1,0.1-0.2,0.1-0.3,0.1c-1.1,0-2.2,0-3.4,0c0,0-0.1-0.1-0.1-0.1c0-1.6,0-3.3,0-5
			c0.4-0.2,0.8-0.1,1.3-0.1c0-1.6,0-3.3,0-4.9c0,0,0.1-0.1,0.1-0.1c1.2,0,2.5,0,3.7,0c0.4,0,0.8,0.1,1.2-0.1c0-0.4,0-0.7,0-1
			c0,0-0.1-0.1-0.1-0.1c-0.3,0-0.5,0-0.8,0c-0.1,0-0.2,0.1-0.3,0.1c-0.1-0.1-0.2-0.1-0.3-0.1c-0.7,0-1.4,0-2.1,0
			c0,0-0.1-0.1-0.1-0.1c0-0.4,0-0.7,0-1.1c-0.4,0-0.8,0-1.3,0c0-0.1-0.1-0.1-0.1-0.2c0-0.1,0-0.2,0-0.3c0-2,0-4,0-6
			c0-0.4,0-0.8,0-1.2c-0.4-0.2-0.7,0-1.1-0.1c-0.4,0-0.8,0-1.2,0c0,0-0.1-0.1-0.1-0.1c0-0.1,0-0.3,0-0.5c0-0.2,0-0.3,0-0.5
			c0-0.2,0-0.3,0-0.5c0-0.2,0-0.3,0-0.5s0-0.3,0-0.5c0-0.2,0-0.3,0-0.5c0-0.2,0-0.3,0-0.5c0-0.2,0-0.3,0-0.5c0.1-0.2,0-0.3,0-0.4
			c0-0.2,0-0.3,0-0.5c0-0.2,0-0.3,0-0.5c0-0.2,0-0.3,0-0.5c0-0.2,0-0.3,0-0.5c0,0,0.1-0.1,0.1-0.1c0.4,0,0.7,0,1.1,0
			c0-1.2,0-2.5,0-3.7c0,0,0.1-0.1,0.1-0.1c0.8,0,1.6,0,2.4,0c0-0.3,0-0.7,0-1c0-0.1,0-0.2,0.1-0.3c0.6,0,1.2,0,1.8,0c1,0,2,0,3,0
			c0.1,0,3.1,0,3.3,0c2,0,10.6,0,11.7,0c0.7,0,1.4,0.2,2,0.1c0.1,0.1,0.1,0.1,0.1,0.2c0,0.3,0,0.7,0,1c0.3,0,0.6,0,0.9,0
			c0.1,0.1,0.1,0.1,0.1,0.1c0,1.2,0,2.5,0,3.7c0.4,0,0.8,0,1.1,0c0,0,0.1,0.1,0.1,0.1c0,0,0,0.1,0,0.2c0,1.9,0,3.8,0,5.7
			c0,0.1,0,0.3-0.1,0.4c-0.4,0-0.7,0-1.1,0c-0.1,0.1-0.1,0.1-0.1,0.1c0,0.4,0,0.8,0,1.1c0,2.1,0,4.2,0,6.4c0,0-0.1,0.1-0.1,0.1
			c-0.4,0-0.7,0-1.1,0c0,0.4,0,0.7,0,1.1c0,0-0.1,0.1-0.1,0.1c-0.4,0-0.8,0-1.2,0c-0.4,0-0.8,0-1.2,0c-0.1,0.1-0.1,0.1-0.1,0.1
			c0,0.3,0,0.7,0,1c0.1,0.1,0.1,0.1,0.1,0.1c0.4,0,0.8,0,1.2,0c1.3,0,2.5,0,3.8,0c0,0,0.1,0.1,0.1,0.1c0,1.6,0,3.1,0,4.6
			c0,0,0,0,0,0c0,0.1,0.1,0.2,0.1,0.3c0.3,0,0.7,0,1.1,0c0,0.1,0.1,0.2,0.1,0.3c0,0.3,0,0.7,0,1c0,1.3,0,2.5,0,3.8
			c0,0-0.1,0.1-0.1,0.1c-1.1,0-2.3,0-3.5,0c0-0.5,0-0.9,0-1.4c0.7,0,1.5,0,2.2,0c0-0.2,0-0.5,0-0.7c0-0.2,0-0.4,0-0.6
			c-0.8,0-1.5,0-2.3,0"/>
		<path class="st1" d="M141.8,29.8c3.1,0,6.1,0,9.2,0c0,0.1,0.1,0.2,0.1,0.3c0,0.3,0,0.7,0,1c0,0.5,0,0.9,0,1.4c0,1.2,0,2.4,0,3.7
			c-1.7,0-3.4,0-5,0c-0.1,0-0.3,0-0.4,0.1c0-0.8,0-1.6,0-2.4c-3.4,0-6.8,0-10.2,0c0,0.1,0.1,0.2,0.1,0.3c0,0.3,0.1,0.7-0.1,1
			c0.2,0.3,0,0.7,0.1,1c0,0.1,0,0.2-0.1,0.3c-0.1-0.1-0.2-0.1-0.3-0.1c-0.6,0-1.2,0-1.9,0c0,0,0,0,0,0c-0.1-0.1-0.1-0.2-0.2-0.2
			c-0.9,0-1.7,0-2.6,0c0-0.6,0-1.3,0-1.9c0-0.3-0.1-0.6-0.1-0.9c0-0.2,0-0.3,0-0.5c0-0.2,0.1-0.3,0.1-0.5c0-0.3,0-0.7,0-1
			c0-0.1,0-0.2-0.1-0.3c0-0.3,0-0.6,0-0.9c0-0.1,0.1-0.2,0.1-0.3c3,0,5.9,0,8.9,0C140.1,29.8,141,29.8,141.8,29.8z"/>
		<path class="st2" d="M145.7,36.2c0.1-0.1,0.3-0.1,0.4-0.1c1.7,0,3.4,0,5,0c0.8,0,1.6,0,2.3,0c0,0,0.1,0.1,0.1,0.1
			c0,0.8,0,1.7,0,2.5c-0.1,0.1-0.2,0.1-0.3,0.2c-1.2,0-2.4,0-3.7,0c0-0.1-0.1-0.2-0.1-0.3c0-0.4,0-0.8,0-1.3c-0.4,0-0.7-0.1-1.1,0.1
			c0,0.5,0,0.9,0,1.4c-0.1,0-0.3,0.1-0.4,0.1c-0.7,0-1.5,0-2.2,0c0,0-0.1-0.1-0.1-0.1C145.7,38,145.7,37.1,145.7,36.2z"/>
		<path class="st2" d="M130.4,36.1c0.9,0,1.7,0,2.6,0c0,0.1,0.1,0.1,0.2,0.2c0,0,0,0,0,0c0.6,0,1.2,0,1.9,0c0.1,0,0.2,0,0.3,0.1
			c0.1,0.1,0.1,0.2,0.1,0.3c0,0.6,0,1.3,0,1.9c0,0-0.1,0.1-0.1,0.1c-0.8,0-1.7,0-2.5,0c0-0.5,0-0.9,0-1.4c-0.4,0-0.8,0-1.2,0
			c0,0.4,0,0.8,0,1.2c-0.1,0.1-0.1,0.1-0.1,0.1c-1.1,0-2.2,0-3.3,0c-0.2,0-0.4,0-0.5-0.1c0-0.8,0-1.6,0-2.4c0,0,0.1-0.1,0.1-0.1
			C128.7,36.1,129.6,36.1,130.4,36.1z"/>
		<path class="st3" d="M149.6,22.1c-0.4,0-0.8,0-1.2,0c0,0-0.1-0.1-0.1-0.1c0-0.3,0-0.7,0-1c0,0,0.1-0.1,0.1-0.1c0.4,0,0.8,0,1.2,0
			c0,0.1,0.1,0.2,0.1,0.3c0,0.3,0,0.5,0,0.8C149.7,21.9,149.6,22,149.6,22.1z"/>
		<path class="st3" d="M148.2,22.1c-0.4,0-0.8,0-1.2,0c0,0-0.1-0.1-0.1-0.1c0-0.3,0-0.7,0-1c0,0,0.1-0.1,0.1-0.1c0.4,0,0.8,0,1.2,0
			c0,0.1,0.1,0.2,0.1,0.3c0,0.3,0,0.5,0,0.8C148.3,21.9,148.3,22,148.2,22.1z"/>
		<path class="st3" d="M147,22.1c-0.4,0-0.8,0-1.2,0c0,0-0.1-0.1-0.1-0.1c0-0.3,0-0.7,0-1c0,0,0.1-0.1,0.1-0.1c0.4,0,0.8,0,1.2,0
			c0,0.1,0.1,0.2,0.1,0.3c0,0.3,0,0.5,0,0.8C147,21.9,147,22,147,22.1z"/>
		<path class="st3" d="M145.6,22.1c-0.4,0-0.8,0-1.2,0c0,0-0.1-0.1-0.1-0.1c0-0.3,0-0.7,0-1c0,0,0.1-0.1,0.1-0.1c0.4,0,0.8,0,1.2,0
			c0,0.1,0.1,0.2,0.1,0.3c0,0.3,0,0.5,0,0.8C145.7,21.9,145.6,22,145.6,22.1z"/>
		<path class="st3" d="M144.2,22.1c-0.4,0-0.8,0-1.2,0c0,0-0.1-0.1-0.1-0.1c0-0.3,0-0.7,0-1c0,0,0.1-0.1,0.1-0.1c0.4,0,0.8,0,1.2,0
			c0,0.1,0.1,0.2,0.1,0.3c0,0.3,0,0.5,0,0.8C144.3,21.9,144.3,22,144.2,22.1z"/>
		<path class="st3" d="M142.9,22.1c-0.4,0-0.8,0-1.2,0c0,0-0.1-0.1-0.1-0.1c0-0.3,0-0.7,0-1c0,0,0.1-0.1,0.1-0.1c0.4,0,0.8,0,1.2,0
			c0,0.1,0.1,0.2,0.1,0.3c0,0.3,0,0.5,0,0.8C142.9,21.9,142.9,22,142.9,22.1z"/>
		<path class="st3" d="M141.5,22.1c-0.4,0-0.8,0-1.2,0c0,0-0.1-0.1-0.1-0.1c0-0.3,0-0.7,0-1c0,0,0.1-0.1,0.1-0.1c0.4,0,0.8,0,1.2,0
			c0,0.1,0.1,0.2,0.1,0.3c0,0.3,0,0.5,0,0.8C141.6,21.9,141.5,22,141.5,22.1z"/>
		<path class="st3" d="M140.1,22.1c-0.4,0-0.8,0-1.2,0c0,0-0.1-0.1-0.1-0.1c0-0.3,0-0.7,0-1c0,0,0.1-0.1,0.1-0.1c0.4,0,0.8,0,1.2,0
			c0,0.1,0.1,0.2,0.1,0.3c0,0.3,0,0.5,0,0.8C140.2,21.9,140.2,22,140.1,22.1z"/>
		<path class="st3" d="M138.8,22.1c-0.4,0-0.8,0-1.2,0c0,0-0.1-0.1-0.1-0.1c0-0.3,0-0.7,0-1c0,0,0.1-0.1,0.1-0.1c0.4,0,0.8,0,1.2,0
			c0,0.1,0.1,0.2,0.1,0.3c0,0.3,0,0.5,0,0.8C138.9,21.9,138.8,22,138.8,22.1z"/>
		<path class="st3" d="M137.4,22.1c-0.4,0-0.8,0-1.2,0c0,0-0.1-0.1-0.1-0.1c0-0.3,0-0.7,0-1c0,0,0.1-0.1,0.1-0.1c0.4,0,0.8,0,1.2,0
			c0,0.1,0.1,0.2,0.1,0.3c0,0.3,0,0.5,0,0.8C137.5,21.9,137.4,22,137.4,22.1z"/>
		<path class="st3" d="M136.1,22.2c-0.4,0-0.8,0-1.2,0c0,0-0.1-0.1-0.1-0.1c0-0.3,0-0.7,0-1c0,0,0.1-0.1,0.1-0.1c0.4,0,0.8,0,1.2,0
			c0,0.1,0.1,0.2,0.1,0.3c0,0.3,0,0.5,0,0.8C136.2,22,136.1,22.1,136.1,22.2z"/>
		<path class="st3" d="M134.8,22.2c-0.4,0-0.8,0-1.2,0c0,0-0.1-0.1-0.1-0.1c0-0.3,0-0.7,0-1c0,0,0.1-0.1,0.1-0.1c0.4,0,0.8,0,1.2,0
			c0,0.1,0.1,0.2,0.1,0.3c0,0.3,0,0.5,0,0.8C134.8,22,134.8,22.1,134.8,22.2z"/>
		<path class="st3" d="M134.1,22.2c-0.4,0-0.8,0-1.2,0c0,0-0.1-0.1-0.1-0.1c0-0.3,0-0.7,0-1c0,0,0.1-0.1,0.1-0.1c0.4,0,0.8,0,1.2,0
			c0,0.1,0.1,0.2,0.1,0.3c0,0.3,0,0.5,0,0.8C134.2,22,134.1,22.1,134.1,22.2z"/>
		<path class="st3" d="M152.2,13.2c0-0.4,0-0.8,0-1.1c0,0,0.1-0.1,0.1-0.1c0.3,0,0.7,0,1.1,0c0,0.4,0,0.8,0,1.2
			c-0.1,0-0.1,0.1-0.1,0.1c-0.3,0-0.6,0-0.9,0C152.3,13.2,152.2,13.2,152.2,13.2z"/>
		<path class="st3" d="M126.7,11.9c0.4,0,0.7-0.1,1.1,0.1c0,0.4,0,0.8,0,1.2c-0.1,0-0.2,0.1-0.3,0.1c-0.3,0-0.5,0-0.8,0
			c0,0-0.1-0.1-0.1-0.1c0-0.3,0-0.6,0-1C126.6,12.1,126.6,12,126.7,11.9z"/>
		<path class="st3" d="M131.7,21c0.1,0,0.2-0.1,0.3-0.1c0.3,0,0.5,0,0.8,0c0,0,0.1,0.1,0.1,0.1c0,0.3,0,0.6,0,1
			c-0.4,0.2-0.6,0.1-1.2,0.1C131.7,22,131.7,21.1,131.7,21z"/>
	</g>
</g>
</svg>
